<svg width="19" height="18" viewBox="0 0 19 18" fill="none" xmlns="http://www.w3.org/2000/svg">
<path d="M1.00001 10.3558C0.999858 10.3598 1.00104 10.3637 1.00337 10.3669C1.0057 10.3701 1.00904 10.3724 1.01285 10.3734C1.01665 10.3745 1.0207 10.3742 1.02433 10.3726C1.02795 10.3711 1.03095 10.3683 1.03283 10.3649L2.35912 8.07332C2.36062 8.07055 2.36135 8.06742 2.36124 8.06427L2.36229 5.32757C2.36245 5.32361 2.36127 5.31971 2.35894 5.31651C2.3566 5.31331 2.35327 5.311 2.34946 5.30995C2.34566 5.3089 2.34161 5.30918 2.33798 5.31074C2.33435 5.3123 2.33136 5.31504 2.32948 5.31853L1.00372 7.61427C1.00222 7.61704 1.00149 7.62017 1.0016 7.62332L1.00001 10.3558Z" stroke="#888888" stroke-width="0.0868578"/>
<path d="M2.45545 8.32082C2.45247 8.31522 2.44805 8.31053 2.44267 8.30723C2.43728 8.30392 2.43111 8.30212 2.4248 8.30201C2.41849 8.3019 2.41226 8.30349 2.40676 8.30661C2.40127 8.30973 2.3967 8.31427 2.39353 8.31975L1.0233 10.6868C1.02019 10.6922 1.01855 10.6984 1.01855 10.7046C1.01855 10.7109 1.02019 10.717 1.0233 10.7225L2.393 13.1299C2.39613 13.1355 2.40071 13.1402 2.40627 13.1434C2.41182 13.1466 2.41813 13.1482 2.42454 13.1481C2.43094 13.148 2.4372 13.1462 2.44264 13.1428C2.44808 13.1394 2.45251 13.1346 2.45545 13.1288L3.71453 10.7209C3.71717 10.7158 3.71855 10.7101 3.71855 10.7044C3.71855 10.6986 3.71717 10.693 3.71453 10.6879L2.45545 8.32082Z" stroke="#888888" stroke-width="0.0868578"/>
<path d="M2.54149 5.0708C2.53655 5.0708 2.53166 5.07178 2.52711 5.07368C2.52255 5.07558 2.5184 5.07836 2.51491 5.08186C2.51143 5.08537 2.50866 5.08953 2.50677 5.09412C2.50488 5.0987 2.50391 5.10361 2.50391 5.10857V7.99474C2.50391 7.9997 2.50488 8.00461 2.50677 8.00919C2.50866 8.01377 2.51143 8.01794 2.51491 8.02144C2.5184 8.02495 2.52255 8.02773 2.52711 8.02963C2.53166 8.03153 2.53655 8.03251 2.54149 8.03251L5.36661 8.0325C5.37658 8.0325 5.38613 8.02853 5.39318 8.02144C5.40023 8.01436 5.40419 8.00475 5.40419 7.99474V5.10857C5.40419 5.09855 5.40023 5.08895 5.39318 5.08186C5.38613 5.07478 5.37658 5.0708 5.36661 5.0708H2.54149Z" stroke="#828282" stroke-width="0.0868578"/>
<path d="M3.8717 10.832C3.86727 10.8294 3.86237 10.8277 3.85728 10.827C3.85219 10.8264 3.84702 10.8267 3.84208 10.8281C3.83713 10.8295 3.83252 10.8319 3.82852 10.8351C3.82451 10.8383 3.8212 10.8424 3.81877 10.8469L2.54646 13.2873C2.54175 13.2962 2.54071 13.3066 2.54359 13.3163C2.54646 13.326 2.55301 13.3341 2.56181 13.3389L4.79418 14.5687C4.80267 14.5733 4.81259 14.5745 4.82192 14.572C4.83125 14.5695 4.83931 14.5636 4.84445 14.5554L6.27131 12.3171C6.27408 12.3128 6.27596 12.3079 6.27682 12.3028C6.27769 12.2978 6.27752 12.2925 6.27634 12.2875C6.27515 12.2825 6.27297 12.2778 6.26992 12.2736C6.26687 12.2695 6.26303 12.266 6.2586 12.2634L3.8717 10.832Z" stroke="#888888" stroke-width="0.0868578"/>
<path d="M2.58516 8.238L3.8273 10.588C3.84212 10.6153 3.86488 10.6289 3.89557 10.6289L6.81755 10.6273C6.86518 10.6273 6.87665 10.6068 6.85195 10.5656L5.4595 8.21992C5.45209 8.20744 5.44162 8.19711 5.42909 8.18993C5.41657 8.18275 5.40243 8.17897 5.38805 8.17896C4.47598 8.17187 3.56003 8.17506 2.6402 8.18853C2.62256 8.18889 2.61074 8.18978 2.60474 8.19119C2.57933 8.19864 2.57281 8.21424 2.58516 8.238Z" stroke="#828282" stroke-width="0.0868578"/>
<path d="M5.42158 4.92959C5.4256 4.92959 5.42955 4.92856 5.43306 4.92661C5.43658 4.92465 5.43955 4.92184 5.44169 4.91842L6.98656 2.4631C6.98881 2.45952 6.99008 2.45541 6.99022 2.45118C6.99037 2.44694 6.9894 2.44275 6.98741 2.43902C6.98542 2.43529 6.98248 2.43215 6.97889 2.42994C6.9753 2.42772 6.97119 2.4265 6.96698 2.4264L4.16091 2.41895C4.15689 2.41896 4.15294 2.41999 4.14943 2.42194C4.14591 2.42389 4.14294 2.42671 4.1408 2.43012L2.58375 4.89129C2.58148 4.89491 2.58022 4.89908 2.58009 4.90335C2.57997 4.90763 2.58098 4.91186 2.58304 4.91561C2.58509 4.91935 2.5881 4.92248 2.59177 4.92466C2.59543 4.92684 2.59961 4.92799 2.60386 4.928L5.42158 4.92959Z" stroke="#828282" stroke-width="0.0868578"/>
<path d="M5.24793 16.7054C5.60817 16.9005 5.96453 17.0951 6.31701 17.2895C6.31957 17.2911 6.32259 17.2917 6.32558 17.2913C6.32856 17.291 6.33133 17.2896 6.33343 17.2874C6.33552 17.2852 6.33682 17.2824 6.33711 17.2794C6.33739 17.2764 6.33665 17.2734 6.335 17.2709C5.9229 16.6028 5.51661 15.9368 5.11615 15.273C4.98648 15.0576 4.87693 14.8012 4.6811 14.69C4.01143 14.3081 3.34052 13.9349 2.66837 13.5703C2.66535 13.5686 2.66182 13.5678 2.65835 13.5683C2.65488 13.5688 2.65166 13.5704 2.64918 13.5728C2.64671 13.5753 2.64512 13.5786 2.64467 13.5821C2.64421 13.5855 2.64492 13.5891 2.64667 13.5921C3.08948 14.374 3.52928 15.1604 3.96609 15.9512C4.00578 16.023 4.07776 16.1022 4.1418 16.1336C4.51439 16.317 4.8831 16.5076 5.24793 16.7054Z" stroke="#828282" stroke-width="0.0868578"/>
<path d="M4.1817 10.8568C4.90006 11.2735 5.61949 11.701 6.33997 12.1393C6.38182 12.165 6.42999 12.1786 6.47916 12.1786L9.14975 12.177C9.15439 12.1772 9.15895 12.1757 9.1627 12.173C9.16646 12.1702 9.16921 12.1663 9.17054 12.1618C9.17186 12.1574 9.17168 12.1526 9.17003 12.1482C9.16838 12.1438 9.16534 12.1401 9.16139 12.1377L7.0788 10.8281C7.03209 10.7989 6.97837 10.7834 6.92373 10.7834L4.16211 10.7935C4.11342 10.7935 4.10707 10.807 4.14306 10.834C4.14518 10.8354 4.15806 10.843 4.1817 10.8568Z" stroke="#828282" stroke-width="0.0868578"/>
<path d="M7.1366 2.26915C7.13978 2.26907 7.14289 2.26816 7.1456 2.26649L9.24513 1.03351C9.24848 1.03144 9.25107 1.02833 9.2525 1.02465C9.25393 1.02097 9.25412 1.01692 9.25304 1.01311C9.25196 1.00931 9.24967 1.00597 9.24652 1.0036C9.24337 1.00123 9.23953 0.999971 9.2356 1L6.58989 1.00053C6.58671 1.0006 6.5836 1.00152 6.58089 1.00319L4.43532 2.24521C4.43174 2.24713 4.4289 2.25021 4.42728 2.25395C4.42566 2.25769 4.42534 2.26187 4.42638 2.26582C4.42743 2.26976 4.42976 2.27324 4.43302 2.27568C4.43628 2.27812 4.44026 2.27938 4.44432 2.27925L7.1366 2.26915Z" stroke="#828282" stroke-width="0.0868578"/>
<path d="M9.33178 17.4214C9.3348 17.4215 9.33778 17.4207 9.34043 17.4193C9.34308 17.4179 9.34532 17.4157 9.34691 17.4132C9.34851 17.4106 9.34942 17.4077 9.34955 17.4046C9.34968 17.4016 9.34903 17.3986 9.34766 17.3959L8.07111 14.7821C8.06963 14.7791 8.06735 14.7767 8.06454 14.775C8.06173 14.7733 8.05851 14.7724 8.05524 14.7725L5.02317 14.773C5.0201 14.773 5.01708 14.7739 5.01443 14.7755C5.01178 14.777 5.00959 14.7793 5.00809 14.782C5.00658 14.7847 5.00581 14.7877 5.00586 14.7908C5.00591 14.7939 5.00677 14.797 5.00836 14.7996L6.59134 17.4087C6.59288 17.4112 6.59505 17.4134 6.59764 17.4149C6.60024 17.4163 6.60317 17.4171 6.60616 17.4172L9.33178 17.4214Z" stroke="#828282" stroke-width="0.0868578"/>
<path d="M8.04914 14.6222C8.05213 14.6223 8.05509 14.6215 8.05769 14.62C8.06029 14.6185 8.06245 14.6163 8.06395 14.6137L9.34368 12.3563C9.34517 12.3537 9.34595 12.3507 9.34595 12.3477C9.34594 12.3447 9.34514 12.3418 9.34364 12.3392C9.34213 12.3366 9.33997 12.3345 9.33738 12.333C9.33478 12.3315 9.33184 12.3307 9.32886 12.3308L6.44128 12.3355C6.43842 12.3356 6.43561 12.3363 6.43311 12.3377C6.43062 12.3391 6.42851 12.3411 6.42699 12.3435L5.00649 14.5957C5.00488 14.5982 5.00399 14.6012 5.00391 14.6042C5.00382 14.6072 5.00455 14.6103 5.006 14.6129C5.00746 14.6156 5.0096 14.6178 5.0122 14.6193C5.0148 14.6209 5.01776 14.6217 5.02078 14.6217L8.04914 14.6222Z" stroke="#888888" stroke-width="0.0868578"/>
<path d="M5.70479 8.33742C6.11584 9.02713 6.52195 9.71562 6.92312 10.4028C6.925 10.4061 6.92788 10.4086 6.93133 10.4101C6.93478 10.4115 6.93862 10.4118 6.9423 10.4109C6.94597 10.4099 6.94927 10.4078 6.95173 10.4048C6.95418 10.4018 6.95566 10.3981 6.95593 10.3943L7.06813 7.64327C7.06881 7.62841 7.06492 7.61389 7.05702 7.60178L5.60847 5.33901C5.57142 5.28121 5.5529 5.28653 5.5529 5.35497C5.55219 6.20923 5.55378 7.07909 5.55766 7.96455C5.55872 8.11401 5.63281 8.21721 5.70479 8.33742Z" stroke="#888888" stroke-width="0.0868578"/>
<path d="M7.11106 7.40761C7.11412 7.41237 7.11835 7.41626 7.12334 7.4189C7.12833 7.42155 7.13392 7.42285 7.13956 7.42269C7.1452 7.42253 7.1507 7.42091 7.15554 7.41799C7.16037 7.41507 7.16438 7.41094 7.16716 7.40601L8.47229 5.0108C8.47497 5.00591 8.47638 5.00042 8.47638 4.99484C8.47638 4.98926 8.47497 4.98377 8.47229 4.97888L7.16769 2.55282C7.16499 2.54774 7.16101 2.54346 7.15614 2.54041C7.15128 2.53736 7.14571 2.53564 7.13998 2.53542C7.13426 2.53521 7.12857 2.5365 7.1235 2.53918C7.11842 2.54186 7.11414 2.54583 7.11106 2.55069L5.5773 4.97995C5.57401 4.98521 5.57227 4.99129 5.57227 4.9975C5.57227 5.00371 5.57401 5.0098 5.5773 5.01505L7.11106 7.40761Z" stroke="#888888" stroke-width="0.0868578"/>
<path d="M9.56876 1.0825C9.56085 1.0693 9.54807 1.05977 9.5332 1.05599C9.51834 1.0522 9.50259 1.05447 9.48938 1.06228L7.29723 2.35484C7.28425 2.36252 7.27474 2.37495 7.2707 2.38954C7.26665 2.40412 7.26838 2.4197 7.27553 2.43303L8.56637 4.84314C8.56998 4.84998 8.57491 4.85604 8.58087 4.86096C8.58683 4.86588 8.5937 4.86956 8.60108 4.87178C8.60847 4.87401 8.61622 4.87474 8.62389 4.87393C8.63156 4.87312 8.63899 4.87079 8.64576 4.86707L10.9972 3.56973C11.0041 3.56597 11.0102 3.56085 11.015 3.55467C11.0199 3.5485 11.0235 3.5414 11.0256 3.5338C11.0277 3.5262 11.0282 3.51825 11.0271 3.51044C11.0261 3.50263 11.0235 3.49512 11.0194 3.48835L9.56876 1.0825Z" stroke="#888888" stroke-width="0.0868578"/>
<path d="M10.8982 3.79694L8.64734 5.03896C8.63005 5.04818 8.61665 5.06148 8.60712 5.07885L7.36074 7.35864C7.35955 7.36095 7.35912 7.36357 7.35952 7.36614C7.35992 7.36871 7.36111 7.37108 7.36294 7.37292C7.36477 7.37475 7.36713 7.37596 7.36968 7.37635C7.37224 7.37675 7.37485 7.37632 7.37715 7.37513C8.08704 6.98258 8.79571 6.58045 9.50314 6.16875C9.56735 6.13151 9.61816 6.08063 9.65556 6.01609C10.079 5.28701 10.501 4.55545 10.9215 3.8214C10.9423 3.78523 10.9346 3.77708 10.8982 3.79694Z" stroke="#828282" stroke-width="0.0868578"/>
<path d="M8.29876 14.9047C8.69464 15.7288 9.09157 16.5377 9.48957 17.3313C9.51074 17.3742 9.54196 17.3836 9.58324 17.3595L11.9734 15.9441C11.9782 15.9412 11.9825 15.9374 11.9859 15.9329C11.9893 15.9284 11.9918 15.9232 11.9932 15.9177C11.9947 15.9122 11.995 15.9065 11.9942 15.9009C11.9934 15.8953 11.9916 15.8899 11.9887 15.885L10.6031 13.4882C10.5976 13.4786 10.5886 13.4716 10.578 13.4685C10.5673 13.4654 10.5559 13.4666 10.546 13.4717L8.25007 14.6978C8.23031 14.7084 8.22414 14.7244 8.23155 14.7456C8.24707 14.791 8.26947 14.8441 8.29876 14.9047Z" stroke="#828282" stroke-width="0.0868578"/>
<path d="M8.34112 14.4747C9.13217 14.0584 9.83624 13.6818 10.4534 13.3449C10.5183 13.3094 10.57 13.26 10.6084 13.1965C11.0333 12.4997 11.4501 11.8004 11.8591 11.0986C11.8841 11.0557 11.8748 11.0461 11.831 11.0699L9.57744 12.2938C9.55358 12.3067 9.53378 12.326 9.52028 12.3497L8.32365 14.4561C8.30848 14.4826 8.3143 14.4889 8.34112 14.4747Z" stroke="#888888" stroke-width="0.0868578"/>
<path d="M9.73366 1.00477C9.73087 1.00477 9.72813 1.0055 9.72571 1.0069C9.7233 1.0083 9.72129 1.01032 9.7199 1.01274C9.7185 1.01517 9.71777 1.01792 9.71777 1.02072C9.71777 1.02353 9.7185 1.02628 9.7199 1.02871L11.1917 3.48562C11.1931 3.48805 11.1951 3.49006 11.1976 3.49146C11.2 3.49287 11.2027 3.4936 11.2055 3.4936L13.9973 3.49413C14.0002 3.49419 14.003 3.49347 14.0055 3.49204C14.008 3.49062 14.01 3.48854 14.0114 3.48603C14.0129 3.48352 14.0136 3.48067 14.0135 3.47779C14.0134 3.47491 14.0126 3.4721 14.011 3.46966L12.5355 1.01115C12.5341 1.00873 12.5321 1.00671 12.5297 1.00531C12.5273 1.00391 12.5245 1.00317 12.5217 1.00317L9.73366 1.00477Z" stroke="#888888" stroke-width="0.0868578"/>
<path d="M12.5187 6.0936C12.5234 6.09356 12.528 6.09231 12.5321 6.08999C12.5361 6.08766 12.5396 6.08432 12.542 6.0803L14.0048 3.67976C14.0074 3.67555 14.0088 3.67073 14.0088 3.66579C14.0089 3.66086 14.0077 3.656 14.0052 3.65171C14.0028 3.64742 13.9993 3.64387 13.995 3.64141C13.9908 3.63896 13.9859 3.63769 13.981 3.63774L11.2183 3.63721C11.2135 3.63722 11.2088 3.6385 11.2046 3.64092C11.2004 3.64335 11.1969 3.64684 11.1945 3.65104L9.8074 6.05689C9.80499 6.0611 9.80371 6.06586 9.80371 6.07072C9.80371 6.07557 9.80498 6.08034 9.8074 6.08455C9.80981 6.08875 9.81328 6.09224 9.81746 6.09467C9.82164 6.0971 9.82639 6.09838 9.83122 6.09838L12.5187 6.0936Z" stroke="#828282" stroke-width="0.0868578"/>
<path d="M12.0885 16.0575L9.8297 17.3878C9.8254 17.3901 9.82202 17.3939 9.8201 17.3984C9.81818 17.4029 9.81784 17.4079 9.81913 17.4127C9.82041 17.4174 9.82325 17.4216 9.82719 17.4245C9.83113 17.4274 9.83593 17.4289 9.84082 17.4287C10.6735 17.4206 11.5076 17.4184 12.3431 17.4223C12.5077 17.4234 12.64 17.4287 12.7787 17.3415C13.4554 16.9167 14.1385 16.4949 14.8279 16.0761C14.8328 16.073 14.8365 16.0683 14.8386 16.0629C14.8407 16.0575 14.841 16.0516 14.8394 16.046C14.8379 16.0404 14.8346 16.0354 14.83 16.0318C14.8255 16.0282 14.8199 16.0262 14.8141 16.0261L12.2113 16.0239C12.1672 16.0239 12.1263 16.0351 12.0885 16.0575Z" stroke="#888888" stroke-width="0.0868578"/>
<path d="M13.7722 7.00236C13.3703 6.75307 12.9663 6.50378 12.5602 6.25449C12.545 6.2451 12.5274 6.24013 12.5094 6.24013L10.0341 6.23853C9.93958 6.23818 9.93199 6.26389 10.0114 6.31566L12.1172 7.68215C12.1286 7.68944 12.1417 7.69331 12.1548 7.69332C12.9677 7.69616 13.7808 7.69616 14.5941 7.69332C14.665 7.69332 14.7518 7.71832 14.8338 7.72098C14.873 7.72204 14.8769 7.71105 14.8455 7.688C14.4999 7.43162 14.086 7.19704 13.7722 7.00236Z" stroke="#888888" stroke-width="0.0868578"/>
<path d="M10.7078 13.336C10.7054 13.3401 10.7041 13.3448 10.7041 13.3495C10.7041 13.3543 10.7054 13.359 10.7078 13.3631L12.096 15.7626C12.0983 15.7665 12.1015 15.7697 12.1054 15.772C12.1093 15.7743 12.1137 15.7756 12.1182 15.7757C12.1227 15.7758 12.1272 15.7748 12.1312 15.7726C12.1352 15.7705 12.1385 15.7674 12.141 15.7636L13.6864 13.3647C13.6893 13.3604 13.6908 13.3553 13.6908 13.3501C13.6908 13.3449 13.6893 13.3398 13.6864 13.3355L12.1415 11.0062C12.1391 11.0024 12.1357 10.9993 12.1317 10.9972C12.1277 10.9951 12.1233 10.994 12.1187 10.9941C12.1142 10.9942 12.1098 10.9955 12.106 10.9978C12.1021 11.0001 12.0988 11.0034 12.0965 11.0073L10.7078 13.336Z" stroke="#828282" stroke-width="0.0868578"/>
<path d="M12.6432 8.69521C12.5194 8.50018 12.3802 8.29894 12.2257 8.09149C12.1995 8.05638 12.1865 8.06082 12.1865 8.10479L12.1934 10.7766C12.1934 10.8002 12.2004 10.8231 12.2135 10.8426L13.6477 13.0005C13.6933 13.069 13.7158 13.0621 13.7155 12.9798C13.7127 12.2546 13.7123 11.5094 13.7144 10.7442C13.715 10.459 13.7319 10.3628 13.5911 10.1596C13.4521 9.9589 13.1361 9.4707 12.6432 8.69521Z" stroke="#828282" stroke-width="0.0868578"/>
<path d="M13.8362 13.4262C13.8335 13.4262 13.8308 13.4268 13.8284 13.4281C13.826 13.4294 13.8239 13.4313 13.8224 13.4336L12.277 15.8395C12.2754 15.8419 12.2745 15.8448 12.2744 15.8478C12.2742 15.8508 12.2749 15.8537 12.2763 15.8564C12.2777 15.859 12.2798 15.8612 12.2824 15.8627C12.2849 15.8642 12.2878 15.865 12.2908 15.865L15.1154 15.8666C15.1183 15.8666 15.1211 15.8659 15.1236 15.8645C15.1261 15.8631 15.1282 15.8611 15.1297 15.8586L16.5205 13.4496C16.522 13.447 16.5229 13.4442 16.5229 13.4412C16.5229 13.4383 16.5222 13.4354 16.5207 13.4328C16.5193 13.4303 16.5171 13.4282 16.5146 13.4267C16.5121 13.4253 16.5092 13.4245 16.5062 13.4246L13.8362 13.4262Z" stroke="#888888" stroke-width="0.0868578"/>
<path d="M16.482 10.2612C16.4878 10.2611 16.4936 10.2595 16.4987 10.2566C16.5037 10.2536 16.5079 10.2493 16.5108 10.2442C16.5137 10.2391 16.5152 10.2333 16.5152 10.2274C16.5151 10.2215 16.5135 10.2157 16.5106 10.2106L15.1287 7.8585C15.1258 7.8535 15.1216 7.84935 15.1166 7.84646C15.1116 7.84357 15.1059 7.84204 15.1001 7.84201L12.312 7.83936C12.306 7.8393 12.3 7.8409 12.2948 7.844C12.2895 7.84709 12.2853 7.85156 12.2824 7.85692C12.2795 7.86229 12.2781 7.86834 12.2784 7.87443C12.2787 7.88052 12.2806 7.88641 12.284 7.89148L13.831 10.2553C13.834 10.2599 13.8382 10.2637 13.8431 10.2663C13.848 10.2689 13.8535 10.2703 13.859 10.2702L16.482 10.2612Z" stroke="#888888" stroke-width="0.0868578"/>
<path d="M15.0917 7.63826C15.0972 7.64167 15.1033 7.64393 15.1097 7.64489C15.1162 7.64585 15.1227 7.64551 15.129 7.64387C15.1353 7.64223 15.1411 7.63933 15.1463 7.63535C15.1514 7.63137 15.1557 7.62639 15.1589 7.62071L16.5418 5.1473C16.5478 5.13632 16.5494 5.12342 16.5461 5.11131C16.5428 5.09921 16.535 5.08884 16.5243 5.08241L14.2279 3.70156C14.217 3.69508 14.204 3.69319 14.1917 3.69627C14.1795 3.69936 14.1689 3.70718 14.1623 3.71805L12.7026 6.10528C12.6993 6.11072 12.697 6.11677 12.696 6.1231C12.6949 6.12942 12.6952 6.13589 12.6966 6.14213C12.6981 6.14836 12.7008 6.15424 12.7046 6.15942C12.7083 6.1646 12.7131 6.16898 12.7185 6.1723L15.0917 7.63826Z" stroke="#828282" stroke-width="0.0868578"/>
<path d="M16.4376 4.82079C15.9914 4.09207 15.5828 3.32824 15.1647 2.58143C15.1333 2.5254 15.0818 2.47646 15.0102 2.43462C14.308 2.02611 13.6004 1.61405 12.8874 1.19845C12.8242 1.16157 12.8115 1.17451 12.8493 1.23728C13.2734 1.94402 13.7082 2.66813 14.1539 3.40962C14.1941 3.47629 14.2474 3.53001 14.3137 3.57079C15.0116 3.99739 15.7132 4.42061 16.4185 4.84047C16.4212 4.84187 16.4243 4.84236 16.4273 4.84187C16.4304 4.84137 16.4331 4.83991 16.4353 4.83771C16.4374 4.83551 16.4388 4.83267 16.4392 4.82963C16.4396 4.82658 16.439 4.82349 16.4376 4.82079Z" stroke="#888888" stroke-width="0.0868578"/>
<path d="M13.879 10.4141C13.8763 10.4141 13.8736 10.4146 13.8711 10.4157C13.8686 10.4167 13.8663 10.4183 13.8644 10.4202C13.8625 10.4221 13.861 10.4244 13.86 10.4269C13.8589 10.4295 13.8584 10.4322 13.8584 10.4349L13.8633 13.2476C13.8633 13.2504 13.8638 13.2531 13.8649 13.2556C13.8659 13.2581 13.8674 13.2604 13.8694 13.2623C13.8713 13.2642 13.8735 13.2657 13.8761 13.2668C13.8786 13.2678 13.8812 13.2683 13.884 13.2683L16.563 13.2636C16.5657 13.2636 16.5684 13.2631 16.5709 13.2621C16.5734 13.261 16.5757 13.2595 16.5776 13.2575C16.5795 13.2556 16.581 13.2533 16.5821 13.2508C16.5831 13.2483 16.5836 13.2456 16.5836 13.2429L16.5787 10.4301C16.5787 10.4274 16.5782 10.4247 16.5771 10.4222C16.5761 10.4197 16.5746 10.4174 16.5727 10.4154C16.5707 10.4135 16.5685 10.412 16.5659 10.411C16.5634 10.4099 16.5608 10.4094 16.558 10.4094L13.879 10.4141Z" stroke="#888888" stroke-width="0.0868578"/>
<path d="M16.4944 9.91066C16.5381 9.98726 16.5792 10.0558 16.6177 10.1161C16.6224 10.1234 16.6289 10.1294 16.6366 10.1335C16.6442 10.1377 16.6528 10.1398 16.6615 10.1398C16.6702 10.1397 16.6787 10.1375 16.6863 10.1332C16.6939 10.129 16.7004 10.1229 16.705 10.1155L18.1028 7.86761C18.1216 7.83749 18.1318 7.80275 18.1322 7.76718C18.1327 7.73162 18.1234 7.69662 18.1054 7.66601L16.6976 5.2841C16.6747 5.24545 16.6526 5.2458 16.6314 5.28516C16.2056 6.07098 15.7621 6.8607 15.3009 7.65431C15.2589 7.72665 15.2591 7.79828 15.3014 7.86921C15.7072 8.54509 16.1048 9.22556 16.4944 9.91066Z" stroke="#828282" stroke-width="0.0868578"/>
<path d="M18.1223 8.11982L16.7901 10.2756C16.7597 10.3246 16.7438 10.3813 16.7441 10.4389L16.7489 13.0256C16.7489 13.0303 16.7505 13.0349 16.7533 13.0386C16.756 13.0424 16.7599 13.0452 16.7644 13.0466C16.7688 13.048 16.7736 13.048 16.778 13.0465C16.7825 13.045 16.7863 13.0422 16.7891 13.0384C16.8441 12.9613 16.8907 12.8453 16.9277 12.7868C17.3282 12.1595 17.7218 11.528 18.1085 10.8921C18.1459 10.8311 18.1649 10.7317 18.1657 10.5937C18.1699 9.75832 18.1694 8.93772 18.1641 8.13205C18.1637 8.07921 18.1498 8.07514 18.1223 8.11982Z" stroke="#828282" stroke-width="0.0868578"/>
<path d="M1.00001 10.3558L1.0016 7.62332C1.00149 7.62017 1.00222 7.61704 1.00372 7.61427L2.32948 5.31853C2.33136 5.31504 2.33435 5.3123 2.33798 5.31074C2.34161 5.30918 2.34566 5.3089 2.34946 5.30995C2.35327 5.311 2.3566 5.31331 2.35894 5.31651C2.36127 5.31971 2.36245 5.32361 2.36229 5.32757L2.36124 8.06427C2.36135 8.06742 2.36062 8.07055 2.35912 8.07332L1.03283 10.3649C1.03095 10.3683 1.02795 10.3711 1.02433 10.3726C1.0207 10.3742 1.01665 10.3745 1.01285 10.3734C1.00904 10.3724 1.0057 10.3701 1.00337 10.3669C1.00104 10.3637 0.999858 10.3598 1.00001 10.3558Z" fill="white"/>
<path d="M2.45545 8.32056L3.71453 10.6876C3.71717 10.6927 3.71855 10.6984 3.71855 10.7041C3.71855 10.7099 3.71717 10.7155 3.71453 10.7206L2.45545 13.1286C2.45251 13.1343 2.44808 13.1391 2.44264 13.1425C2.4372 13.1459 2.43094 13.1478 2.42454 13.1479C2.41813 13.148 2.41182 13.1464 2.40626 13.1431C2.40071 13.1399 2.39613 13.1353 2.393 13.1297L1.0233 10.7222C1.02019 10.7168 1.01855 10.7106 1.01855 10.7044C1.01855 10.6981 1.02019 10.692 1.0233 10.6866L2.39353 8.3195C2.39669 8.31401 2.40126 8.30947 2.40676 8.30636C2.41226 8.30324 2.41849 8.30165 2.4248 8.30176C2.43111 8.30187 2.43728 8.30367 2.44267 8.30697C2.44805 8.31028 2.45247 8.31497 2.45545 8.32056Z" fill="white"/>
<path d="M2.50391 5.10832V7.99449C2.50391 8.01535 2.52073 8.03226 2.54148 8.03226H5.36661C5.38736 8.03226 5.40419 8.01535 5.40419 7.99449V5.10832C5.40419 5.08747 5.38736 5.07056 5.36661 5.07056H2.54148C2.52073 5.07056 2.50391 5.08747 2.50391 5.10832Z" fill="#F3F3F3"/>
<path d="M3.8717 10.8318L6.2586 12.2631C6.26302 12.2658 6.26687 12.2692 6.26992 12.2734C6.27297 12.2775 6.27515 12.2823 6.27634 12.2873C6.27752 12.2923 6.27769 12.2975 6.27682 12.3026C6.27596 12.3077 6.27408 12.3125 6.27131 12.3169L4.84445 14.5552C4.83931 14.5634 4.83125 14.5693 4.82192 14.5718C4.81259 14.5742 4.80267 14.5731 4.79417 14.5685L2.56181 13.3387C2.55301 13.3338 2.54646 13.3257 2.54359 13.316C2.54071 13.3064 2.54174 13.296 2.54646 13.2871L3.81877 10.8467C3.8212 10.8421 3.82451 10.8381 3.82852 10.8349C3.83252 10.8316 3.83713 10.8293 3.84208 10.8279C3.84702 10.8265 3.85219 10.8261 3.85728 10.8268C3.86237 10.8274 3.86727 10.8291 3.8717 10.8318Z" fill="white"/>
<path d="M3.8273 10.5877L2.58516 8.23776C2.57281 8.214 2.57933 8.1984 2.60474 8.19095C2.61074 8.18953 2.62256 8.18865 2.6402 8.18829C3.56003 8.17482 4.47598 8.17162 5.38805 8.17872C5.40243 8.17873 5.41657 8.18251 5.42909 8.18969C5.44162 8.19687 5.45209 8.2072 5.4595 8.21967L6.85195 10.5654C6.87665 10.6065 6.86518 10.6271 6.81755 10.6271L3.89557 10.6287C3.86488 10.6287 3.84212 10.615 3.8273 10.5877Z" fill="#F3F3F3"/>
<path d="M5.42158 4.92959L2.60386 4.928C2.59961 4.92799 2.59543 4.92684 2.59177 4.92466C2.5881 4.92248 2.58509 4.91935 2.58303 4.91561C2.58098 4.91186 2.57997 4.90763 2.58009 4.90335C2.58022 4.89908 2.58148 4.89491 2.58375 4.89129L4.1408 2.43012C4.14294 2.42671 4.14591 2.42389 4.14942 2.42194C4.15294 2.41999 4.15689 2.41896 4.16091 2.41895L6.96698 2.4264C6.97119 2.4265 6.9753 2.42772 6.97889 2.42994C6.98248 2.43215 6.98542 2.43529 6.98741 2.43902C6.9894 2.44275 6.99037 2.44694 6.99022 2.45118C6.99007 2.45541 6.98881 2.45952 6.98656 2.4631L5.44169 4.91842C5.43955 4.92184 5.43658 4.92465 5.43306 4.92661C5.42955 4.92856 5.4256 4.92959 5.42158 4.92959Z" fill="#F3F3F3"/>
<path d="M5.24793 16.7054C4.8831 16.5075 4.51439 16.3169 4.1418 16.1336C4.07776 16.1022 4.00578 16.0229 3.96609 15.9511C3.52928 15.1603 3.08948 14.374 2.64667 13.5921C2.64492 13.589 2.64421 13.5855 2.64467 13.582C2.64512 13.5785 2.64671 13.5753 2.64918 13.5728C2.65166 13.5703 2.65488 13.5687 2.65835 13.5683C2.66182 13.5678 2.66535 13.5685 2.66837 13.5703C3.34052 13.9348 4.01143 14.308 4.6811 14.69C4.87692 14.8011 4.98648 15.0575 5.11614 15.2729C5.51661 15.9368 5.92289 16.6027 6.335 17.2708C6.33665 17.2733 6.33739 17.2764 6.33711 17.2794C6.33682 17.2824 6.33552 17.2852 6.33343 17.2874C6.33133 17.2895 6.32856 17.2909 6.32558 17.2913C6.32259 17.2917 6.31957 17.291 6.31701 17.2894C5.96453 17.0951 5.60817 16.9004 5.24793 16.7054Z" fill="#F3F3F3"/>
<path d="M4.18169 10.8568C4.15805 10.843 4.14518 10.8354 4.14306 10.834C4.10707 10.807 4.11342 10.7935 4.16211 10.7935L6.92373 10.7834C6.97837 10.7834 7.03209 10.7989 7.0788 10.8281L9.16139 12.1377C9.16534 12.1401 9.16838 12.1438 9.17003 12.1482C9.17168 12.1526 9.17186 12.1574 9.17054 12.1618C9.16921 12.1663 9.16646 12.1702 9.1627 12.173C9.15894 12.1757 9.15439 12.1772 9.14974 12.177L6.47916 12.1786C6.42999 12.1786 6.38182 12.165 6.33997 12.1393C5.61948 11.701 4.90006 11.2735 4.18169 10.8568Z" fill="#F3F3F3"/>
<path d="M7.1366 2.26915L4.44432 2.27925C4.44026 2.27938 4.43628 2.27812 4.43302 2.27568C4.42976 2.27324 4.42743 2.26976 4.42638 2.26582C4.42534 2.26187 4.42566 2.25769 4.42728 2.25395C4.4289 2.25021 4.43174 2.24713 4.43532 2.24521L6.58089 1.00319C6.5836 1.00152 6.58671 1.0006 6.58989 1.00053L9.2356 1C9.23953 0.999971 9.24337 1.00123 9.24652 1.0036C9.24967 1.00597 9.25196 1.00931 9.25304 1.01311C9.25412 1.01692 9.25393 1.02097 9.2525 1.02465C9.25107 1.02833 9.24848 1.03144 9.24513 1.03351L7.1456 2.26649C7.14289 2.26816 7.13978 2.26907 7.1366 2.26915Z" fill="#F3F3F3"/>
<path d="M9.33178 17.4212L6.60616 17.4169C6.60317 17.4169 6.60024 17.4161 6.59764 17.4146C6.59505 17.4131 6.59288 17.411 6.59134 17.4084L5.00836 14.7994C5.00677 14.7967 5.00591 14.7937 5.00586 14.7906C5.00581 14.7875 5.00658 14.7844 5.00809 14.7817C5.00959 14.779 5.01178 14.7768 5.01443 14.7752C5.01708 14.7736 5.0201 14.7728 5.02317 14.7728L8.05524 14.7722C8.05851 14.7722 8.06173 14.773 8.06454 14.7747C8.06735 14.7764 8.06963 14.7789 8.07111 14.7818L9.34766 17.3956C9.34903 17.3983 9.34968 17.4014 9.34955 17.4044C9.34942 17.4074 9.34851 17.4104 9.34691 17.4129C9.34532 17.4155 9.34308 17.4176 9.34043 17.4191C9.33778 17.4205 9.3348 17.4212 9.33178 17.4212Z" fill="#F3F3F3"/>
<path d="M8.04913 14.6222L5.02078 14.6217C5.01776 14.6217 5.0148 14.6209 5.0122 14.6193C5.0096 14.6178 5.00746 14.6156 5.006 14.6129C5.00455 14.6103 5.00382 14.6072 5.00391 14.6042C5.00399 14.6012 5.00488 14.5982 5.00649 14.5957L6.42699 12.3435C6.42851 12.3411 6.43061 12.3391 6.43311 12.3377C6.43561 12.3363 6.43842 12.3356 6.44128 12.3355L9.32886 12.3308C9.33184 12.3307 9.33478 12.3315 9.33738 12.333C9.33997 12.3345 9.34213 12.3366 9.34364 12.3392C9.34514 12.3418 9.34594 12.3447 9.34594 12.3477C9.34595 12.3507 9.34517 12.3537 9.34368 12.3563L8.06395 14.6137C8.06245 14.6163 8.06029 14.6185 8.05769 14.62C8.05509 14.6215 8.05213 14.6223 8.04913 14.6222Z" fill="white"/>
<path d="M5.70479 8.33717C5.63281 8.21696 5.55872 8.11377 5.55766 7.9643C5.55378 7.07884 5.55219 6.20898 5.5529 5.35473C5.5529 5.28629 5.57142 5.28097 5.60847 5.33877L7.05702 7.60154C7.06492 7.61365 7.06881 7.62817 7.06813 7.64303L6.95593 10.3941C6.95566 10.3979 6.95418 10.4016 6.95173 10.4046C6.94927 10.4075 6.94597 10.4097 6.9423 10.4106C6.93862 10.4116 6.93478 10.4113 6.93133 10.4098C6.92788 10.4084 6.925 10.4059 6.92312 10.4026C6.52195 9.71532 6.11584 9.02689 5.70479 8.33717Z" fill="white"/>
<path d="M7.11106 7.40736L5.5773 5.01481C5.57401 5.00955 5.57227 5.00347 5.57227 4.99726C5.57227 4.99105 5.57401 4.98496 5.5773 4.9797L7.11106 2.55045C7.11413 2.54559 7.11842 2.54162 7.1235 2.53894C7.12857 2.53626 7.13425 2.53496 7.13998 2.53518C7.14571 2.53539 7.15128 2.53711 7.15614 2.54017C7.161 2.54322 7.16499 2.5475 7.16769 2.55258L8.47229 4.97864C8.47497 4.98353 8.47638 4.98902 8.47638 4.9946C8.47638 5.00018 8.47497 5.00567 8.47229 5.01056L7.16716 7.40577C7.16437 7.4107 7.16037 7.41482 7.15553 7.41774C7.1507 7.42067 7.1452 7.42228 7.13956 7.42244C7.13392 7.4226 7.12833 7.4213 7.12334 7.41866C7.11835 7.41602 7.11412 7.41213 7.11106 7.40736Z" fill="white"/>
<path d="M9.56876 1.0825L11.0194 3.48835C11.0235 3.49512 11.0261 3.50263 11.0271 3.51044C11.0282 3.51825 11.0277 3.5262 11.0256 3.5338C11.0235 3.5414 11.0199 3.5485 11.015 3.55467C11.0102 3.56085 11.0041 3.56597 10.9972 3.56973L8.64576 4.86707C8.63899 4.87079 8.63156 4.87312 8.62389 4.87393C8.61622 4.87474 8.60847 4.87401 8.60108 4.87178C8.5937 4.86956 8.58683 4.86588 8.58087 4.86096C8.57491 4.85604 8.56998 4.84998 8.56637 4.84314L7.27553 2.43303C7.26838 2.4197 7.26665 2.40412 7.2707 2.38954C7.27474 2.37495 7.28425 2.36252 7.29723 2.35484L9.48938 1.06228C9.50259 1.05447 9.51834 1.0522 9.5332 1.05599C9.54807 1.05977 9.56085 1.0693 9.56876 1.0825Z" fill="white"/>
<path d="M8.64734 5.03896L10.8983 3.79694C10.9346 3.77708 10.9424 3.78523 10.9216 3.8214C10.501 4.55545 10.079 5.28701 9.65556 6.01609C9.61816 6.08063 9.56735 6.13151 9.50313 6.16875C8.79571 6.58045 8.08704 6.98258 7.37715 7.37513C7.37485 7.37632 7.37224 7.37675 7.36968 7.37635C7.36713 7.37596 7.36477 7.37475 7.36294 7.37292C7.36111 7.37108 7.35992 7.36871 7.35952 7.36614C7.35912 7.36357 7.35955 7.36095 7.36074 7.35864L8.60712 5.07885C8.61664 5.06148 8.63005 5.04818 8.64734 5.03896Z" fill="#F3F3F3"/>
<path d="M8.29876 14.9047C8.26947 14.8441 8.24707 14.791 8.23155 14.7456C8.22414 14.7244 8.23031 14.7084 8.25007 14.6978L10.546 13.4717C10.5559 13.4666 10.5673 13.4654 10.578 13.4685C10.5886 13.4716 10.5976 13.4786 10.6031 13.4882L11.9887 15.885C11.9916 15.8899 11.9934 15.8953 11.9942 15.9009C11.995 15.9065 11.9947 15.9122 11.9932 15.9177C11.9918 15.9232 11.9893 15.9284 11.9859 15.9329C11.9825 15.9374 11.9782 15.9412 11.9734 15.9441L9.58324 17.3595C9.54196 17.3836 9.51074 17.3742 9.48957 17.3313C9.09157 16.5377 8.69464 15.7288 8.29876 14.9047Z" fill="#F3F3F3"/>
<path d="M8.34112 14.4743C8.3143 14.4885 8.30848 14.4823 8.32365 14.4557L9.52028 12.3493C9.53378 12.3257 9.55358 12.3063 9.57744 12.2935L11.8309 11.0695C11.8747 11.0458 11.884 11.0554 11.859 11.0983C11.4501 11.8 11.0332 12.4993 10.6084 13.1961C10.5699 13.2596 10.5182 13.3091 10.4533 13.3445C9.83624 13.6814 9.13216 14.058 8.34112 14.4743Z" fill="white"/>
<path d="M9.73366 1.00477L12.5217 1.00317C12.5245 1.00317 12.5273 1.00391 12.5297 1.00531C12.5321 1.00671 12.5341 1.00873 12.5355 1.01115L14.011 3.46966C14.0126 3.4721 14.0134 3.47491 14.0135 3.47779C14.0136 3.48067 14.0129 3.48352 14.0114 3.48603C14.01 3.48854 14.008 3.49062 14.0055 3.49204C14.003 3.49347 14.0002 3.49419 13.9973 3.49413L11.2055 3.4936C11.2027 3.4936 11.2 3.49287 11.1976 3.49146C11.1951 3.49006 11.1931 3.48805 11.1917 3.48562L9.7199 1.02871C9.7185 1.02628 9.71777 1.02353 9.71777 1.02072C9.71777 1.01792 9.7185 1.01517 9.7199 1.01274C9.72129 1.01032 9.7233 1.0083 9.72571 1.0069C9.72813 1.0055 9.73087 1.00477 9.73366 1.00477Z" fill="white"/>
<path d="M12.5188 6.0936L9.83122 6.09838C9.82639 6.09838 9.82164 6.0971 9.81746 6.09467C9.81328 6.09224 9.80981 6.08875 9.8074 6.08455C9.80498 6.08034 9.80371 6.07557 9.80371 6.07072C9.80371 6.06586 9.80498 6.0611 9.8074 6.05689L11.1946 3.65104C11.197 3.64684 11.2005 3.64335 11.2047 3.64092C11.2088 3.6385 11.2136 3.63722 11.2184 3.63721L13.9811 3.63774C13.986 3.63769 13.9908 3.63896 13.9951 3.64141C13.9993 3.64387 14.0029 3.64742 14.0053 3.65171C14.0077 3.656 14.009 3.66086 14.0089 3.66579C14.0088 3.67073 14.0075 3.67555 14.0049 3.67976L12.5421 6.0803C12.5396 6.08432 12.5362 6.08766 12.5321 6.08999C12.5281 6.09231 12.5235 6.09356 12.5188 6.0936Z" fill="#F3F3F3"/>
<path d="M9.8297 17.3878L12.0886 16.0575C12.1263 16.0351 12.1672 16.0239 12.2113 16.0239L14.8142 16.0261C14.82 16.0262 14.8255 16.0282 14.8301 16.0318C14.8346 16.0354 14.8379 16.0404 14.8395 16.046C14.841 16.0516 14.8407 16.0575 14.8386 16.0629C14.8366 16.0683 14.8328 16.073 14.8279 16.0761C14.1385 16.4949 13.4554 16.9167 12.7787 17.3415C12.64 17.4287 12.5077 17.4234 12.3431 17.4223C11.5076 17.4184 10.6735 17.4206 9.84081 17.4287C9.83593 17.4289 9.83113 17.4274 9.82719 17.4245C9.82325 17.4216 9.82041 17.4174 9.81913 17.4127C9.81784 17.4079 9.81818 17.4029 9.8201 17.3984C9.82202 17.3939 9.8254 17.3901 9.8297 17.3878Z" fill="white"/>
<path d="M13.7722 7.00212C14.0861 7.1968 14.5 7.43136 14.8456 7.68775C14.877 7.7108 14.8731 7.72179 14.8339 7.72073C14.7519 7.71807 14.6651 7.69308 14.5942 7.69308C13.7809 7.69591 12.9678 7.69591 12.1549 7.69308C12.1417 7.69307 12.1287 7.68919 12.1173 7.68191L10.0114 6.31542C9.93199 6.26364 9.93958 6.23792 10.0341 6.23828L12.5095 6.23989C12.5275 6.23989 12.545 6.24486 12.5603 6.25425C12.9664 6.50354 13.3704 6.75283 13.7722 7.00212Z" fill="white"/>
<path d="M10.7078 13.336L12.0966 11.0073C12.0989 11.0034 12.1021 11.0001 12.106 10.9978C12.1099 10.9955 12.1143 10.9942 12.1188 10.9941C12.1233 10.994 12.1278 10.9951 12.1317 10.9972C12.1357 10.9993 12.1391 11.0024 12.1416 11.0062L13.6864 13.3355C13.6893 13.3398 13.6908 13.3449 13.6908 13.3501C13.6908 13.3553 13.6893 13.3604 13.6864 13.3647L12.141 15.7636C12.1386 15.7674 12.1352 15.7705 12.1312 15.7726C12.1272 15.7748 12.1228 15.7758 12.1183 15.7757C12.1138 15.7756 12.1093 15.7743 12.1055 15.772C12.1016 15.7697 12.0983 15.7665 12.0961 15.7626L10.7078 13.3631C10.7054 13.359 10.7041 13.3543 10.7041 13.3495C10.7041 13.3448 10.7054 13.3401 10.7078 13.336Z" fill="#F3F3F3"/>
<path d="M12.6432 8.69521C13.1361 9.4707 13.4521 9.9589 13.5911 10.1596C13.7319 10.3628 13.715 10.459 13.7144 10.7442C13.7123 11.5094 13.7127 12.2546 13.7155 12.9798C13.7158 13.0621 13.6933 13.069 13.6477 13.0005L12.2135 10.8426C12.2004 10.8231 12.1934 10.8002 12.1934 10.7766L12.1865 8.10479C12.1865 8.06082 12.1995 8.05638 12.2257 8.09149C12.3802 8.29894 12.5194 8.50018 12.6432 8.69521Z" fill="#F3F3F3"/>
<path d="M13.8362 13.4262L16.5062 13.4246C16.5092 13.4245 16.5121 13.4253 16.5146 13.4267C16.5171 13.4282 16.5193 13.4303 16.5207 13.4328C16.5222 13.4354 16.5229 13.4383 16.5229 13.4412C16.5229 13.4442 16.522 13.447 16.5205 13.4496L15.1297 15.8586C15.1282 15.8611 15.1261 15.8631 15.1236 15.8645C15.1211 15.8659 15.1183 15.8666 15.1154 15.8666L12.2908 15.865C12.2878 15.865 12.2849 15.8642 12.2824 15.8627C12.2798 15.8612 12.2777 15.859 12.2763 15.8564C12.2749 15.8537 12.2742 15.8508 12.2744 15.8478C12.2745 15.8448 12.2754 15.8419 12.277 15.8395L13.8224 13.4336C13.8239 13.4313 13.826 13.4294 13.8284 13.4281C13.8308 13.4268 13.8335 13.4262 13.8362 13.4262Z" fill="white"/>
<path d="M16.482 10.2612L13.859 10.2702C13.8535 10.2703 13.848 10.2689 13.8431 10.2663C13.8382 10.2637 13.834 10.2599 13.831 10.2553L12.284 7.89148C12.2806 7.88641 12.2787 7.88052 12.2784 7.87443C12.2781 7.86834 12.2795 7.86229 12.2824 7.85692C12.2853 7.85156 12.2895 7.84709 12.2948 7.844C12.3 7.8409 12.306 7.8393 12.312 7.83936L15.1001 7.84201C15.1059 7.84204 15.1116 7.84357 15.1166 7.84646C15.1216 7.84935 15.1258 7.8535 15.1287 7.8585L16.5106 10.2106C16.5135 10.2157 16.5151 10.2215 16.5152 10.2274C16.5152 10.2333 16.5137 10.2391 16.5108 10.2442C16.5079 10.2493 16.5037 10.2536 16.4987 10.2566C16.4936 10.2595 16.4878 10.2611 16.482 10.2612Z" fill="white"/>
<path d="M15.0916 7.63826L12.7185 6.1723C12.713 6.16898 12.7083 6.1646 12.7045 6.15942C12.7008 6.15424 12.6981 6.14836 12.6966 6.14213C12.6951 6.13589 12.6949 6.12942 12.6959 6.1231C12.697 6.11677 12.6992 6.11072 12.7026 6.10528L14.1623 3.71805C14.1689 3.70718 14.1794 3.69936 14.1917 3.69627C14.204 3.69319 14.217 3.69508 14.2279 3.70156L16.5243 5.08241C16.535 5.08884 16.5428 5.09921 16.5461 5.11131C16.5493 5.12342 16.5478 5.13632 16.5418 5.1473L15.1588 7.62071C15.1557 7.62639 15.1514 7.63137 15.1462 7.63535C15.1411 7.63933 15.1352 7.64223 15.129 7.64387C15.1227 7.64551 15.1161 7.64585 15.1097 7.64489C15.1033 7.64393 15.0972 7.64167 15.0916 7.63826Z" fill="#F3F3F3"/>
<path d="M15.1648 2.58118C15.5829 3.32799 15.9914 4.09182 16.4376 4.82055C16.4391 4.82324 16.4396 4.82634 16.4392 4.82938C16.4388 4.83243 16.4374 4.83526 16.4353 4.83746C16.4332 4.83967 16.4304 4.84112 16.4274 4.84162C16.4244 4.84212 16.4213 4.84163 16.4185 4.84023C15.7132 4.42037 15.0116 3.99714 14.3137 3.57055C14.2474 3.52977 14.1941 3.47604 14.1539 3.40938C13.7083 2.66789 13.2734 1.94377 12.8493 1.23704C12.8115 1.17427 12.8242 1.16133 12.8874 1.19821C13.6005 1.61381 14.3081 2.02586 15.0102 2.43438C15.0818 2.47622 15.1334 2.52516 15.1648 2.58118Z" fill="white"/>
<path d="M13.8574 10.4348L13.8623 13.2476C13.8623 13.2591 13.8716 13.2683 13.883 13.2683L16.562 13.2636C16.5734 13.2636 16.5827 13.2543 16.5826 13.2428L16.5778 10.4301C16.5777 10.4186 16.5685 10.4093 16.5571 10.4094L13.878 10.4141C13.8666 10.4141 13.8574 10.4234 13.8574 10.4348Z" fill="white"/>
<path d="M16.4943 9.91066C16.1048 9.22556 15.7072 8.54509 15.3014 7.86921C15.2591 7.79828 15.2589 7.72665 15.3009 7.65431C15.762 6.8607 16.2055 6.07098 16.6314 5.28516C16.6526 5.2458 16.6746 5.24545 16.6976 5.2841L18.1054 7.66601C18.1234 7.69662 18.1327 7.73162 18.1322 7.76718C18.1317 7.80275 18.1215 7.83749 18.1027 7.86761L16.705 10.1155C16.7003 10.1229 16.6939 10.129 16.6863 10.1332C16.6787 10.1375 16.6702 10.1397 16.6615 10.1398C16.6528 10.1398 16.6442 10.1377 16.6365 10.1335C16.6289 10.1294 16.6224 10.1234 16.6177 10.1161C16.5792 10.0558 16.5381 9.98726 16.4943 9.91066Z" fill="#F3F3F3"/>
<path d="M16.7901 10.2756L18.1222 8.11982C18.1497 8.07514 18.1637 8.07921 18.164 8.13205C18.1693 8.93772 18.1699 9.75832 18.1656 10.5937C18.1649 10.7317 18.1459 10.8311 18.1085 10.8921C17.7218 11.528 17.3282 12.1595 16.9277 12.7868C16.8907 12.8453 16.8441 12.9613 16.789 13.0384C16.7863 13.0422 16.7824 13.045 16.778 13.0465C16.7736 13.048 16.7688 13.048 16.7644 13.0466C16.7599 13.0452 16.756 13.0424 16.7532 13.0386C16.7504 13.0349 16.7489 13.0303 16.7488 13.0256L16.7441 10.4389C16.7437 10.3813 16.7597 10.3246 16.7901 10.2756Z" fill="#F3F3F3"/>
</svg>
