<svg width="376" height="359" viewBox="0 0 376 359" fill="none" xmlns="http://www.w3.org/2000/svg">
<path d="M254.47 37.21C247.497 33.1834 240.517 29.1634 233.53 25.15C228.85 22.4634 224.137 19.7667 219.39 17.06C218.163 16.3667 216.84 16.0067 215.42 15.98C199.08 15.74 182.83 15.6834 166.67 15.81C166.579 15.8131 166.491 15.8452 166.42 15.9017C166.348 15.9581 166.296 16.0357 166.272 16.1228C166.249 16.2098 166.254 16.3015 166.288 16.384C166.322 16.4665 166.382 16.5353 166.46 16.58L208.44 41.07C208.755 41.2473 209.109 41.3435 209.47 41.35C226.01 41.4634 242.603 41.4734 259.25 41.38C259.577 41.38 259.857 41.2434 260.09 40.97C260.125 40.9285 260.15 40.8798 260.164 40.8274C260.178 40.7749 260.181 40.72 260.171 40.6666C260.162 40.6131 260.141 40.5624 260.109 40.5181C260.078 40.4738 260.037 40.4369 259.99 40.41C258.19 39.3634 256.35 38.2967 254.47 37.21Z" stroke="#858585" stroke-width="2"/>
<path d="M160.19 16.34C160.088 16.2812 159.973 16.2502 159.855 16.2502C159.737 16.2502 159.622 16.2812 159.52 16.34L114.44 42.19C114.334 42.2491 114.247 42.3358 114.186 42.4407C114.126 42.5456 114.095 42.665 114.097 42.786C114.099 42.907 114.134 43.0252 114.198 43.128C114.262 43.2309 114.352 43.3145 114.46 43.37L159.34 67.03C159.436 67.08 159.542 67.106 159.65 67.106C159.758 67.106 159.864 67.08 159.96 67.03L204.57 43.26C204.675 43.2037 204.763 43.1203 204.825 43.0185C204.888 42.9167 204.921 42.8001 204.924 42.6809C204.926 42.5616 204.896 42.444 204.837 42.3401C204.778 42.2362 204.693 42.1499 204.59 42.09L160.19 16.34Z" stroke="#858585" stroke-width="2"/>
<path d="M265.607 44.6885C265.607 44.6334 265.596 44.5787 265.575 44.5277C265.554 44.4767 265.523 44.4304 265.484 44.3913C265.446 44.3523 265.399 44.3212 265.348 44.3001C265.297 44.2789 265.243 44.2679 265.188 44.2678L210.368 44.1721C210.313 44.172 210.258 44.1828 210.207 44.2038C210.156 44.2248 210.11 44.2557 210.071 44.2946C210.032 44.3336 210.001 44.3798 209.979 44.4307C209.958 44.4817 209.947 44.5363 209.947 44.5914L209.853 98.5113C209.853 98.5665 209.864 98.6211 209.885 98.6721C209.906 98.7231 209.937 98.7694 209.976 98.8085C210.014 98.8476 210.061 98.8786 210.112 98.8998C210.163 98.921 210.217 98.9319 210.272 98.932L265.092 99.0277C265.147 99.0278 265.202 99.017 265.253 98.996C265.304 98.975 265.35 98.9441 265.389 98.9052C265.428 98.8663 265.459 98.82 265.481 98.7691C265.502 98.7182 265.513 98.6636 265.513 98.6084L265.607 44.6885Z" stroke="#7F7F7F" stroke-width="2"/>
<path d="M111.36 45.2399C110.293 45.7532 109.523 46.4466 109.05 47.3199C101.75 60.7332 94.41 74.1032 87.03 87.4299C86.81 87.8366 86.8933 88.1632 87.28 88.4099L129.41 115.38C129.486 115.429 129.572 115.463 129.661 115.479C129.751 115.494 129.842 115.492 129.93 115.471C130.018 115.451 130.101 115.413 130.173 115.359C130.245 115.305 130.305 115.238 130.35 115.16L157.28 69.9799C157.327 69.8997 157.358 69.8107 157.37 69.7182C157.382 69.6258 157.375 69.5319 157.35 69.4422C157.325 69.3525 157.282 69.2688 157.223 69.1963C157.165 69.1237 157.092 69.0637 157.01 69.0199L111.51 45.2399C111.488 45.2278 111.463 45.2214 111.437 45.2214C111.411 45.2214 111.385 45.2278 111.36 45.2399Z" stroke="#858585" stroke-width="2"/>
<path d="M207.06 46.4099C207.058 46.2769 207.022 46.1467 206.955 46.0315C206.889 45.9163 206.794 45.8201 206.68 45.752C206.565 45.6838 206.436 45.646 206.303 45.6422C206.17 45.6383 206.038 45.6685 205.92 45.7299L161.49 69.3999C161.366 69.467 161.262 69.5666 161.189 69.6882C161.117 69.8097 161.079 69.9486 161.08 70.0899L161.17 125.61C161.17 125.748 161.206 125.883 161.276 126.003C161.345 126.122 161.445 126.22 161.565 126.289C161.685 126.357 161.821 126.392 161.959 126.39C162.097 126.389 162.232 126.351 162.35 126.28L206.89 99.7599C207.007 99.6898 207.104 99.5901 207.171 99.4708C207.238 99.3514 207.272 99.2166 207.27 99.0799L207.06 46.4099Z" stroke="#7F7F7F" stroke-width="2"/>
<path d="M313.91 74.53L269.23 46.15C269.135 46.0911 269.025 46.0582 268.913 46.0547C268.801 46.0513 268.691 46.0775 268.593 46.1305C268.495 46.1835 268.413 46.2614 268.357 46.3563C268.3 46.4511 268.27 46.5594 268.27 46.67L268.23 99.01C268.23 99.3633 268.38 99.6366 268.68 99.83L314.06 128.55C315.467 129.443 315.963 129.083 315.55 127.47C315.39 126.837 315.313 125.847 315.32 124.5C315.433 108.313 315.317 92.2766 314.97 76.39C314.961 76.018 314.859 75.6537 314.674 75.3292C314.489 75.0048 314.227 74.7303 313.91 74.53Z" stroke="#7F7F7F" stroke-width="2"/>
<path d="M37.58 113.79C37.0667 114.137 36.8333 114.667 36.88 115.38C36.9067 115.787 37.0933 115.883 37.44 115.67C51.3333 107.103 65.2633 98.6035 79.23 90.1701C81.54 88.7801 83.34 87.9001 84.72 85.4101C91.3867 73.4101 98.0867 61.2968 104.82 49.0701C105.673 47.5168 105.33 47.1801 103.79 48.0601C93.53 53.9068 82.8167 59.9068 71.65 66.0601C68.27 67.9268 64.92 69.8701 61.6 71.8901C59.27 73.3201 57.98 74.7901 56.86 77.1201C50.95 89.3901 44.07 101.14 37.99 113.33C37.8985 113.514 37.7571 113.672 37.58 113.79Z" stroke="#7F7F7F" stroke-width="2"/>
<path d="M132.03 169.64C132.031 169.704 132.053 169.766 132.092 169.817C132.131 169.867 132.185 169.904 132.246 169.922C132.308 169.94 132.373 169.938 132.433 169.916C132.493 169.894 132.545 169.853 132.58 169.8L158.06 129.34C158.092 129.292 158.109 129.237 158.11 129.18L158.02 75.3699C158.02 75.3038 157.998 75.2395 157.958 75.1871C157.918 75.1346 157.861 75.0969 157.798 75.0798C157.734 75.0627 157.666 75.0672 157.605 75.0925C157.544 75.1178 157.493 75.1626 157.46 75.2199L131.98 117.85C131.954 117.896 131.94 117.947 131.94 118L132.03 169.64Z" stroke="#7F7F7F" stroke-width="2"/>
<path d="M333.53 106.75L319.2 81.9499C319.14 81.8481 319.048 81.7683 318.938 81.7229C318.828 81.6774 318.707 81.6688 318.593 81.6984C318.479 81.7281 318.379 81.7942 318.308 81.8867C318.237 81.9792 318.199 82.0928 318.2 82.2099L318.16 131.52C318.16 131.644 318.191 131.762 318.25 131.86L341.29 171.29C341.331 171.364 341.395 171.422 341.473 171.456C341.55 171.491 341.637 171.499 341.719 171.48C341.801 171.46 341.875 171.415 341.93 171.35C341.984 171.285 342.016 171.204 342.02 171.12C342.173 168.827 342.233 166.453 342.2 164C342.007 150.5 341.947 137 342.02 123.5C342.04 120.74 341.35 120.39 340.16 118.38C338.53 115.6 336 112.23 335.17 109.16C334.997 108.493 334.657 107.943 334.15 107.51C333.903 107.29 333.697 107.037 333.53 106.75Z" stroke="#7F7F7F" stroke-width="2"/>
<path d="M33.62 172.53C33.6203 172.575 33.6337 172.619 33.6586 172.656C33.6835 172.693 33.7187 172.723 33.76 172.74C34.1133 172.873 34.5067 172.837 34.94 172.63C50.3867 165.21 66.0133 157.673 81.82 150.02C82.2373 149.816 82.5889 149.499 82.8346 149.104C83.0804 148.71 83.2104 148.255 83.21 147.79L83.17 92.1701C83.1697 92.0745 83.144 91.9806 83.0955 91.8982C83.0471 91.8158 82.9776 91.7477 82.8942 91.7009C82.8108 91.6541 82.7165 91.6303 82.6208 91.6319C82.5252 91.6335 82.4318 91.6605 82.35 91.7101L35.46 120.45C34.9011 120.792 34.4394 121.273 34.119 121.845C33.7986 122.418 33.6303 123.063 33.63 123.72L33.62 172.53Z" stroke="#7F7F7F" stroke-width="2"/>
<path d="M86 148.76C86.0001 148.882 86.0325 149.002 86.094 149.107C86.1555 149.213 86.2438 149.3 86.35 149.36L127.98 172.99C128.085 173.049 128.204 173.08 128.324 173.08C128.445 173.079 128.563 173.046 128.667 172.986C128.772 172.925 128.858 172.838 128.918 172.734C128.978 172.629 129.01 172.511 129.01 172.39L129.05 118.8C129.05 118.684 129.02 118.57 128.964 118.469C128.908 118.368 128.828 118.282 128.73 118.22L87.09 91.82C86.9858 91.7538 86.8659 91.7168 86.7425 91.7128C86.6192 91.7087 86.497 91.7379 86.3888 91.7971C86.2805 91.8563 86.1901 91.9435 86.127 92.0495C86.0639 92.1556 86.0304 92.2766 86.03 92.4L86 148.76Z" stroke="#858585" stroke-width="2"/>
<path d="M165.41 127.72C165.35 127.757 165.304 127.813 165.278 127.878C165.251 127.944 165.247 128.016 165.265 128.084C165.283 128.152 165.322 128.213 165.377 128.257C165.432 128.302 165.5 128.327 165.57 128.33L217.6 130.41C217.668 130.41 217.734 130.389 217.79 130.35L261.25 102.39C261.311 102.352 261.358 102.295 261.384 102.227C261.41 102.16 261.412 102.086 261.392 102.017C261.372 101.947 261.329 101.887 261.271 101.844C261.213 101.801 261.142 101.779 261.07 101.78L209.01 101.8C208.95 101.801 208.891 101.818 208.84 101.85L165.41 127.72Z" stroke="#858585" stroke-width="2"/>
<path d="M266.64 156.92C266.743 156.979 266.86 157.01 266.979 157.012C267.098 157.014 267.215 156.985 267.32 156.93L312.84 132.37C312.951 132.312 313.044 132.226 313.111 132.121C313.178 132.016 313.216 131.894 313.221 131.77C313.226 131.645 313.198 131.521 313.14 131.41C313.082 131.3 312.996 131.207 312.89 131.14L267.32 102.28C267.205 102.21 267.073 102.173 266.939 102.175C266.804 102.177 266.673 102.217 266.56 102.29L221.77 131.12C221.667 131.187 221.583 131.28 221.526 131.39C221.47 131.499 221.443 131.621 221.448 131.744C221.453 131.867 221.49 131.987 221.555 132.092C221.62 132.196 221.712 132.282 221.82 132.34L266.64 156.92Z" stroke="#858585" stroke-width="2"/>
<path d="M268.93 160.18L294.2 204.67C294.238 204.736 294.3 204.784 294.373 204.804C294.445 204.825 294.523 204.816 294.59 204.78L333.96 182.41C336.003 181.25 337.859 179.957 339.123 178.815C340.386 177.673 340.954 176.776 340.7 176.32L317.09 134.75C316.828 134.299 315.767 134.327 314.14 134.827C312.513 135.328 310.452 136.26 308.41 137.42L269.04 159.79C268.974 159.828 268.926 159.89 268.906 159.963C268.885 160.035 268.894 160.114 268.93 160.18Z" stroke="#858585" stroke-width="2"/>
<path d="M223.03 137.68C230.423 151.127 237.897 164.247 245.45 177.04C245.968 177.918 246.702 178.648 247.58 179.16L288.55 202.97C289.623 203.59 289.86 203.357 289.26 202.27L266.16 160.2C265.993 159.9 265.757 159.667 265.45 159.5L223.31 136.33C222.95 136.13 222.76 136.237 222.74 136.65C222.727 136.963 222.823 137.307 223.03 137.68Z" stroke="#7F7F7F" stroke-width="2"/>
<path d="M80.7 153.67C65.4467 161.01 50.3867 168.487 35.52 176.1C35.329 176.198 35.16 176.334 35.0235 176.5C34.8869 176.666 34.7856 176.858 34.7257 177.065C34.6658 177.271 34.6486 177.488 34.6752 177.703C34.7017 177.917 34.7714 178.123 34.88 178.31L61.21 223.2C61.2555 223.279 61.3163 223.349 61.3889 223.404C61.4615 223.46 61.5443 223.5 61.6327 223.524C61.7211 223.547 61.8132 223.552 61.9038 223.54C61.9943 223.527 62.0814 223.497 62.16 223.45L107.11 197.34C107.35 197.199 107.527 196.971 107.603 196.705C107.679 196.438 107.65 196.154 107.52 195.91L84.64 152.83C84.5555 152.675 84.4213 152.552 84.2596 152.483C84.0978 152.414 83.9181 152.403 83.75 152.45C82.8967 152.697 81.88 153.103 80.7 153.67Z" stroke="#7F7F7F" stroke-width="2"/>
<path d="M152.7 220.68C152.718 220.681 152.736 220.678 152.751 220.669C152.767 220.66 152.78 220.647 152.789 220.631C152.799 220.615 152.803 220.596 152.804 220.576C152.804 220.557 152.799 220.537 152.79 220.52L129.81 178.11C129.47 177.489 128.968 176.977 128.36 176.63L89.15 154.11C88.5633 153.77 88.43 153.9 88.75 154.5L110.33 195.05C110.742 195.822 111.358 196.469 112.11 196.92C124.963 204.673 138 212.483 151.22 220.35C151.567 220.563 152.06 220.673 152.7 220.68Z" stroke="#858585" stroke-width="2"/>
<path d="M295.21 260.97C295.211 261.063 295.237 261.154 295.284 261.234C295.331 261.314 295.399 261.38 295.48 261.426C295.561 261.471 295.653 261.495 295.746 261.494C295.839 261.493 295.93 261.467 296.01 261.42L341.7 233.73C341.778 233.684 341.843 233.618 341.889 233.539C341.934 233.46 341.959 233.371 341.96 233.28V181.2C341.961 181.106 341.936 181.014 341.89 180.932C341.843 180.851 341.776 180.783 341.694 180.737C341.613 180.69 341.52 180.665 341.427 180.666C341.333 180.667 341.241 180.692 341.16 180.74L295.48 208.25C295.402 208.296 295.337 208.362 295.291 208.441C295.246 208.52 295.221 208.609 295.22 208.7L295.21 260.97Z" stroke="#858585" stroke-width="2"/>
<path d="M246.32 233.37C246.32 233.464 246.343 233.557 246.389 233.639C246.434 233.721 246.5 233.79 246.58 233.84L291.69 261.48C291.773 261.532 291.869 261.56 291.968 261.562C292.066 261.565 292.163 261.541 292.249 261.493C292.334 261.445 292.406 261.375 292.455 261.29C292.505 261.205 292.53 261.108 292.53 261.01L292.54 208.86C292.541 208.763 292.517 208.668 292.469 208.584C292.422 208.499 292.353 208.429 292.27 208.38L247.1 182.22C247.016 182.17 246.92 182.144 246.823 182.143C246.725 182.143 246.629 182.168 246.545 182.217C246.46 182.266 246.39 182.337 246.342 182.421C246.294 182.506 246.269 182.602 246.27 182.7L246.32 233.37Z" stroke="#7F7F7F" stroke-width="2"/>
<path d="M42.38 249.62C47.6533 258.307 52.9333 267.057 58.22 275.87C58.2724 275.959 58.3517 276.029 58.4464 276.071C58.5412 276.112 58.6466 276.122 58.7476 276.1C58.8486 276.078 58.9399 276.025 59.0086 275.947C59.0773 275.87 59.1198 275.773 59.13 275.67C59.1433 275.503 59.1533 275.277 59.16 274.99C59.55 259.93 59.32 244.89 59.7 229.85C59.76 227.683 59.5867 226.253 59.18 225.56C51.0133 211.567 42.78 197.567 34.48 183.56C34.4533 183.514 34.4127 183.477 34.364 183.455C34.3153 183.433 34.2612 183.426 34.2097 183.436C34.1581 183.446 34.1119 183.472 34.0777 183.511C34.0436 183.549 34.0233 183.598 34.02 183.65C33.52 188.19 33.3233 192.76 33.43 197.36C33.7 208.69 33.66 220.02 33.59 231.38C33.5767 233.067 33.9133 234.593 34.6 235.96C36.2067 239.18 38.8 243.733 42.38 249.62Z" stroke="#858585" stroke-width="2"/>
<path d="M217.58 224.6C216.767 225.86 216.357 227.243 216.35 228.75C216.257 243.617 216.227 258.487 216.26 273.36C216.267 273.787 216.207 274.21 216.08 274.63C215.853 275.403 215.74 275.82 215.74 275.88C215.873 277.88 216.48 277.997 217.56 276.23L243.17 234.51C243.477 234.013 243.64 233.442 243.64 232.86C243.613 217.34 243.593 201.72 243.58 186C243.58 185.707 243.53 185.527 243.43 185.46C243.347 185.409 243.255 185.374 243.159 185.358C243.063 185.343 242.965 185.346 242.87 185.368C242.775 185.391 242.686 185.431 242.607 185.488C242.528 185.545 242.461 185.617 242.41 185.7C234.21 198.64 225.933 211.607 217.58 224.6Z" stroke="#858585" stroke-width="2"/>
<path d="M153.58 226.44C153.674 226.378 153.751 226.293 153.803 226.193C153.856 226.093 153.882 225.982 153.88 225.869C153.878 225.757 153.848 225.646 153.792 225.549C153.736 225.451 153.656 225.369 153.56 225.31L110.28 199.23C110.177 199.169 110.06 199.137 109.94 199.137C109.82 199.137 109.703 199.169 109.6 199.23L64.82 225.27C64.7217 225.328 64.64 225.411 64.5826 225.509C64.5252 225.608 64.494 225.72 64.492 225.834C64.49 225.949 64.5173 226.061 64.5712 226.162C64.6251 226.263 64.7039 226.348 64.8 226.41L109.59 255.42C109.701 255.491 109.83 255.528 109.962 255.526C110.093 255.525 110.221 255.484 110.33 255.41L153.58 226.44Z" stroke="#7F7F7F" stroke-width="2"/>
<path d="M208.02 228.35C208.107 228.289 208.172 228.203 208.207 228.103C208.241 228.003 208.243 227.894 208.212 227.793C208.181 227.692 208.118 227.603 208.033 227.54C207.949 227.476 207.846 227.441 207.74 227.44L159.31 227.15C158.457 227.144 157.623 227.395 156.92 227.87L116.49 254.7C115.177 255.573 115.307 256.007 116.88 256C131.573 255.953 146.697 255.97 162.25 256.05C164.65 256.063 166.25 255.817 167.05 255.31C180.643 246.657 194.3 237.67 208.02 228.35Z" stroke="#7F7F7F" stroke-width="2"/>
<path d="M107.02 308.02L108.21 308.15C108.537 308.19 108.68 308.047 108.64 307.72L108.39 305.95" stroke="#7F7F7F" stroke-width="2"/>
<path d="M108.39 305.95L108.46 258.68C108.46 258.3 108.3 258.007 107.98 257.8L63.15 228.86C62.8167 228.647 62.65 228.737 62.65 229.13C62.6367 246.303 62.7533 263.51 63 280.75C63.02 282.017 63.6067 282.927 64.76 283.48C69.89 285.93 75.82 289.94 79.35 291.98C88.6033 297.333 97.8267 302.68 107.02 308.02" stroke="#858585" stroke-width="2"/>
<path d="M108.39 305.95C108.323 307.117 107.867 307.807 107.02 308.02" stroke="#F9F9F9" stroke-width="2"/>
<path d="M213.08 282.76C213.214 282.681 213.326 282.569 213.403 282.434C213.48 282.299 213.52 282.146 213.52 281.99L213.44 230.15C213.441 229.989 213.399 229.83 213.317 229.691C213.235 229.552 213.117 229.438 212.975 229.361C212.833 229.284 212.673 229.247 212.512 229.254C212.351 229.261 212.195 229.311 212.06 229.4L168.26 258.14C168.137 258.221 168.037 258.331 167.967 258.46C167.897 258.589 167.86 258.733 167.86 258.88L167.99 307.85C167.991 308.006 168.034 308.159 168.113 308.293C168.192 308.428 168.305 308.539 168.441 308.616C168.577 308.693 168.73 308.733 168.886 308.732C169.042 308.731 169.195 308.689 169.33 308.61L213.08 282.76Z" stroke="#858585" stroke-width="2"/>
<path d="M217.39 281.88C217.315 282.003 217.266 282.139 217.245 282.281C217.224 282.424 217.232 282.569 217.269 282.708C217.305 282.847 217.369 282.977 217.457 283.091C217.545 283.205 217.655 283.3 217.78 283.37L263.93 309.24C264.172 309.376 264.458 309.412 264.727 309.342C264.996 309.271 265.226 309.098 265.37 308.86L291.25 265.84C291.395 265.599 291.44 265.311 291.374 265.038C291.309 264.765 291.138 264.529 290.9 264.38L246.24 236.94C245.999 236.792 245.708 236.745 245.433 236.811C245.157 236.877 244.919 237.049 244.77 237.29L217.39 281.88Z" stroke="#7F7F7F" stroke-width="2"/>
<path d="M270.74 305.52C270.46 305.86 270.343 306.207 270.39 306.56C270.45 306.973 270.66 307.077 271.02 306.87L312.85 282.85C313.65 282.39 314.28 281.76 314.74 280.96L338.31 240.28C338.361 240.199 338.384 240.104 338.373 240.008C338.363 239.913 338.321 239.825 338.253 239.757C338.185 239.689 338.097 239.647 338.002 239.637C337.906 239.626 337.811 239.649 337.73 239.7C324.077 247.813 310.443 256.007 296.83 264.28C295.563 265.047 294.547 266.063 293.78 267.33C286.247 279.757 278.787 292.2 271.4 304.66C271.34 304.76 271.12 305.047 270.74 305.52Z" stroke="#858585" stroke-width="2"/>
<path d="M165.126 259.273C165.126 259.2 165.111 259.127 165.083 259.059C165.055 258.991 165.013 258.929 164.961 258.877C164.909 258.826 164.847 258.784 164.779 258.756C164.711 258.728 164.639 258.714 164.565 258.714L112.065 258.806C111.917 258.806 111.774 258.865 111.67 258.97C111.565 259.076 111.506 259.218 111.506 259.367L111.594 309.607C111.594 309.68 111.609 309.753 111.637 309.821C111.665 309.889 111.707 309.95 111.759 310.002C111.811 310.054 111.873 310.095 111.941 310.123C112.009 310.151 112.081 310.166 112.155 310.166L164.655 310.074C164.803 310.074 164.946 310.014 165.05 309.909C165.155 309.804 165.214 309.662 165.214 309.513L165.126 259.273Z" stroke="#858585" stroke-width="2"/>
<path d="M218.87 337.37C219.53 336.697 221.023 336.06 223.35 335.46C223.643 335.38 223.843 335.197 223.95 334.91C224.03 334.697 224.177 334.527 224.39 334.4C236.443 327.067 248.533 319.88 260.66 312.84C261.84 312.153 261.833 311.473 260.64 310.8L216.45 285.84C215.981 285.575 215.452 285.439 214.915 285.444C214.377 285.45 213.851 285.596 213.39 285.87L170.68 311.04C170.557 311.113 170.456 311.217 170.385 311.34C170.314 311.464 170.276 311.604 170.275 311.747C170.274 311.89 170.31 312.031 170.379 312.155C170.448 312.28 170.548 312.385 170.67 312.46C184.397 320.94 197.967 329.407 211.38 337.86C214.273 339.68 216.77 339.517 218.87 337.37Z" stroke="#7F7F7F" stroke-width="2"/>
<path d="M156.32 338.93C156.6 340.003 157.33 340.537 158.51 340.53C173.997 340.383 190.01 340.1 206.55 339.68C207.977 339.647 208.083 339.25 206.87 338.49L167.77 314.15C166.894 313.601 165.882 313.31 164.85 313.31C150.457 313.283 136.007 313.267 121.5 313.26C119.887 313.26 118.37 313.447 116.95 313.82C116.888 313.836 116.831 313.871 116.788 313.919C116.745 313.967 116.717 314.026 116.707 314.09C116.698 314.154 116.707 314.22 116.734 314.278C116.761 314.337 116.805 314.386 116.86 314.42C125.747 319.82 134.57 325.32 143.33 330.92C143.363 330.933 143.38 330.96 143.38 331C143.373 331.087 143.367 331.17 143.36 331.25C143.347 331.377 143.397 331.473 143.51 331.54L156.03 338.54C156.102 338.581 156.165 338.637 156.215 338.704C156.265 338.771 156.301 338.848 156.32 338.93Z" stroke="#7F7F7F" stroke-width="2"/>
<path d="M129.52 324.03C120.27 318.03 111.68 311.97 101.73 306.82C88.06 299.75 77.32 292.44 65.28 286.19C62.44 284.72 60.89 283.31 59.21 280.37C55.09 273.183 50.8 266.103 46.34 259.13C42.65 253.35 37.77 244.68 32.81 237.85C32.08 236.83 30.97 234.82 30.97 233.57C30.9633 198.13 30.9633 162.69 30.97 127.25C30.97 124.93 31.6933 122.663 33.14 120.45C34.52 118.34 34.37 116.25 35.53 114.2C38.92 108.28 41.73 102.24 45.25 96.27C48.3767 90.9633 51.3333 85.2533 54.12 79.14C55.84 75.36 58.02 72.8 61.73 70.46C67.25 66.9667 72.8967 63.7033 78.67 60.67C81.65 59.1033 84.9733 57.2467 88.64 55.1C93.04 52.53 97.63 50.29 101.91 47.62C110.31 42.37 120.55 37.23 127.7 33.09C138.173 27.01 148.637 20.92 159.09 14.82C159.431 14.6234 159.814 14.5199 160.2 14.52L216 14.51C217.109 14.5099 218.199 14.7884 219.17 15.32C234 23.51 248.47 32.68 263.78 40.35C265.92 41.4167 268.03 42.7967 270.11 44.49C274.823 48.3167 279.83 51.71 285.13 54.67C287.61 56.05 289.6 57.95 292.02 59.33C299.78 63.7767 307.257 68.3067 314.45 72.92C315.371 73.5121 316.144 74.3056 316.71 75.24C324.69 88.46 332.563 101.933 340.33 115.66C341.96 118.54 342.97 120.83 342.93 124.31C342.757 138.077 342.79 151.843 343.03 165.61C343.03 165.637 343.067 166.23 343.14 167.39C343.213 168.61 343.2 170.647 343.1 173.5C342.633 186.807 342.59 205.577 342.97 229.81C343.04 234.71 339.54 242.26 337.37 245.59C332.557 253.023 327.96 260.583 323.58 268.27C320.88 273 319.31 278.87 314.73 283.4C313.097 285.02 310.33 286.877 306.43 288.97C294.43 295.42 282.81 302.57 270.62 308.65C266.17 310.87 262.09 314.27 258.44 316.4C245.48 323.973 232.57 331.637 219.71 339.39C216.643 341.243 213.323 342.153 209.75 342.12C193.25 341.967 176.75 341.923 160.25 341.99C154.76 342.02 150.31 337.83 145.83 335.12C140.2 331.72 135.02 327.59 129.52 324.03ZM254.47 37.21C247.497 33.1833 240.517 29.1633 233.53 25.15C228.85 22.4633 224.137 19.7667 219.39 17.06C218.163 16.3667 216.84 16.0067 215.42 15.98C199.08 15.74 182.83 15.6833 166.67 15.81C166.579 15.8131 166.491 15.8452 166.42 15.9017C166.348 15.9581 166.296 16.0357 166.272 16.1228C166.249 16.2098 166.254 16.3015 166.288 16.384C166.322 16.4665 166.382 16.5353 166.46 16.58L208.44 41.07C208.755 41.2473 209.109 41.3435 209.47 41.35C226.01 41.4633 242.603 41.4733 259.25 41.38C259.577 41.38 259.857 41.2433 260.09 40.97C260.125 40.9285 260.15 40.8798 260.164 40.8273C260.178 40.7749 260.181 40.72 260.171 40.6666C260.162 40.6131 260.141 40.5624 260.109 40.5181C260.078 40.4738 260.037 40.4369 259.99 40.41C258.19 39.3633 256.35 38.2967 254.47 37.21ZM160.19 16.34C160.088 16.2812 159.973 16.2502 159.855 16.2502C159.737 16.2502 159.622 16.2812 159.52 16.34L114.44 42.19C114.334 42.2491 114.247 42.3358 114.186 42.4407C114.126 42.5456 114.095 42.665 114.097 42.786C114.099 42.907 114.134 43.0252 114.198 43.128C114.262 43.2309 114.352 43.3145 114.46 43.37L159.34 67.03C159.436 67.08 159.542 67.106 159.65 67.106C159.758 67.106 159.864 67.08 159.96 67.03L204.57 43.26C204.675 43.2037 204.763 43.1203 204.825 43.0185C204.888 42.9167 204.921 42.8001 204.923 42.6809C204.926 42.5616 204.896 42.444 204.837 42.3401C204.778 42.2362 204.693 42.1499 204.59 42.09L160.19 16.34ZM265.607 44.6886C265.607 44.6335 265.596 44.5788 265.575 44.5278C265.554 44.4768 265.523 44.4305 265.484 44.3914C265.446 44.3524 265.399 44.3213 265.348 44.3001C265.297 44.279 265.243 44.268 265.188 44.2679L210.368 44.1722C210.313 44.1721 210.258 44.1829 210.207 44.2039C210.156 44.2249 210.11 44.2558 210.071 44.2947C210.032 44.3337 210.001 44.3799 209.979 44.4308C209.958 44.4818 209.947 44.5364 209.947 44.5915L209.853 98.5114C209.853 98.5666 209.864 98.6212 209.885 98.6722C209.906 98.7232 209.937 98.7695 209.976 98.8086C210.014 98.8477 210.061 98.8787 210.112 98.8999C210.163 98.9211 210.217 98.932 210.272 98.9321L265.092 99.0278C265.147 99.0279 265.202 99.0171 265.253 98.9961C265.304 98.9751 265.35 98.9442 265.389 98.9053C265.428 98.8664 265.459 98.8201 265.481 98.7692C265.502 98.7183 265.513 98.6637 265.513 98.6085L265.607 44.6886ZM111.36 45.24C110.293 45.7533 109.523 46.4467 109.05 47.32C101.75 60.7333 94.41 74.1033 87.03 87.43C86.81 87.8367 86.8933 88.1633 87.28 88.41L129.41 115.38C129.486 115.429 129.572 115.463 129.661 115.479C129.751 115.495 129.842 115.492 129.93 115.471C130.018 115.451 130.101 115.413 130.173 115.359C130.245 115.306 130.305 115.238 130.35 115.16L157.28 69.98C157.327 69.8998 157.358 69.8108 157.37 69.7183C157.382 69.6259 157.375 69.532 157.35 69.4423C157.325 69.3526 157.282 69.2689 157.223 69.1964C157.165 69.1238 157.092 69.0638 157.01 69.02L111.51 45.24C111.488 45.2279 111.463 45.2215 111.437 45.2215C111.411 45.2215 111.385 45.2279 111.36 45.24ZM207.06 46.41C207.058 46.277 207.022 46.1467 206.955 46.0316C206.889 45.9164 206.794 45.8202 206.68 45.752C206.565 45.6839 206.436 45.6461 206.303 45.6422C206.17 45.6384 206.038 45.6686 205.92 45.73L161.49 69.4C161.366 69.4671 161.262 69.5667 161.189 69.6882C161.117 69.8098 161.079 69.9486 161.08 70.09L161.17 125.61C161.17 125.748 161.206 125.883 161.276 126.003C161.345 126.122 161.445 126.221 161.565 126.289C161.685 126.357 161.821 126.392 161.959 126.39C162.097 126.389 162.232 126.351 162.35 126.28L206.89 99.76C207.007 99.6899 207.104 99.5902 207.171 99.4708C207.238 99.3515 207.272 99.2167 207.27 99.08L207.06 46.41ZM313.91 74.53L269.23 46.15C269.135 46.0911 269.025 46.0582 268.913 46.0548C268.801 46.0513 268.691 46.0775 268.593 46.1305C268.495 46.1835 268.413 46.2615 268.357 46.3563C268.3 46.4512 268.27 46.5595 268.27 46.67L268.23 99.01C268.23 99.3633 268.38 99.6367 268.68 99.83L314.06 128.55C315.467 129.443 315.963 129.083 315.55 127.47C315.39 126.837 315.313 125.847 315.32 124.5C315.433 108.313 315.317 92.2767 314.97 76.39C314.961 76.0181 314.859 75.6537 314.674 75.3293C314.489 75.0048 314.227 74.7303 313.91 74.53ZM37.58 113.79C37.0667 114.137 36.8333 114.667 36.88 115.38C36.9067 115.787 37.0933 115.883 37.44 115.67C51.3333 107.103 65.2633 98.6033 79.23 90.17C81.54 88.78 83.34 87.9 84.72 85.41C91.3867 73.41 98.0867 61.2967 104.82 49.07C105.673 47.5167 105.33 47.18 103.79 48.06C93.53 53.9067 82.8167 59.9067 71.65 66.06C68.27 67.9267 64.92 69.87 61.6 71.89C59.27 73.32 57.98 74.79 56.86 77.12C50.95 89.39 44.07 101.14 37.99 113.33C37.8985 113.513 37.7571 113.672 37.58 113.79ZM132.03 169.64C132.031 169.704 132.053 169.766 132.092 169.817C132.131 169.867 132.185 169.904 132.246 169.922C132.308 169.94 132.373 169.938 132.433 169.916C132.493 169.894 132.545 169.853 132.58 169.8L158.06 129.34C158.092 129.293 158.109 129.237 158.11 129.18L158.02 75.37C158.02 75.3039 157.998 75.2396 157.958 75.1872C157.918 75.1347 157.861 75.097 157.798 75.0799C157.734 75.0628 157.666 75.0673 157.605 75.0926C157.544 75.1179 157.493 75.1627 157.46 75.22L131.98 117.85C131.954 117.896 131.94 117.947 131.94 118L132.03 169.64ZM333.53 106.75L319.2 81.95C319.14 81.8482 319.048 81.7684 318.938 81.723C318.828 81.6775 318.707 81.6689 318.593 81.6985C318.479 81.7281 318.379 81.7943 318.308 81.8868C318.237 81.9792 318.199 82.0929 318.2 82.21L318.16 131.52C318.16 131.644 318.191 131.762 318.25 131.86L341.29 171.29C341.331 171.364 341.395 171.422 341.473 171.457C341.55 171.491 341.637 171.499 341.719 171.48C341.801 171.461 341.875 171.415 341.93 171.35C341.984 171.285 342.016 171.205 342.02 171.12C342.173 168.827 342.233 166.453 342.2 164C342.007 150.5 341.947 137 342.02 123.5C342.04 120.74 341.35 120.39 340.16 118.38C338.53 115.6 336 112.23 335.17 109.16C334.997 108.493 334.657 107.943 334.15 107.51C333.903 107.29 333.697 107.037 333.53 106.75ZM33.62 172.53C33.6203 172.575 33.6338 172.619 33.6586 172.656C33.6835 172.693 33.7187 172.722 33.76 172.74C34.1133 172.873 34.5067 172.837 34.94 172.63C50.3867 165.21 66.0133 157.673 81.82 150.02C82.2373 149.816 82.5889 149.499 82.8346 149.104C83.0804 148.71 83.2104 148.255 83.21 147.79L83.17 92.17C83.1697 92.0744 83.144 91.9806 83.0955 91.8981C83.0471 91.8157 82.9776 91.7476 82.8942 91.7008C82.8108 91.654 82.7165 91.6302 82.6208 91.6318C82.5252 91.6334 82.4318 91.6604 82.35 91.71L35.46 120.45C34.9011 120.792 34.4394 121.273 34.119 121.845C33.7986 122.418 33.6303 123.063 33.63 123.72L33.62 172.53ZM86 148.76C86.0001 148.882 86.0325 149.002 86.094 149.107C86.1555 149.213 86.2438 149.3 86.35 149.36L127.98 172.99C128.085 173.049 128.204 173.08 128.324 173.08C128.445 173.079 128.563 173.047 128.667 172.986C128.772 172.925 128.858 172.838 128.918 172.734C128.978 172.629 129.01 172.511 129.01 172.39L129.05 118.8C129.05 118.684 129.02 118.57 128.964 118.469C128.908 118.368 128.828 118.282 128.73 118.22L87.09 91.82C86.9858 91.7538 86.8659 91.7168 86.7425 91.7128C86.6192 91.7088 86.497 91.7379 86.3888 91.7971C86.2805 91.8563 86.1901 91.9435 86.127 92.0496C86.0639 92.1556 86.0304 92.2766 86.03 92.4L86 148.76ZM165.41 127.72C165.35 127.757 165.304 127.813 165.278 127.878C165.251 127.944 165.247 128.016 165.265 128.084C165.283 128.152 165.322 128.213 165.377 128.257C165.432 128.301 165.5 128.327 165.57 128.33L217.6 130.41C217.668 130.41 217.734 130.389 217.79 130.35L261.25 102.39C261.311 102.352 261.358 102.295 261.384 102.227C261.41 102.16 261.412 102.086 261.392 102.017C261.372 101.947 261.329 101.887 261.271 101.844C261.213 101.801 261.142 101.779 261.07 101.78L209.01 101.8C208.95 101.801 208.891 101.818 208.84 101.85L165.41 127.72ZM266.64 156.92C266.743 156.978 266.86 157.01 266.979 157.012C267.098 157.013 267.215 156.985 267.32 156.93L312.84 132.37C312.951 132.312 313.044 132.226 313.111 132.121C313.178 132.015 313.216 131.894 313.221 131.769C313.226 131.645 313.198 131.521 313.14 131.41C313.082 131.3 312.996 131.207 312.89 131.14L267.32 102.28C267.205 102.209 267.073 102.173 266.939 102.175C266.804 102.177 266.673 102.216 266.56 102.29L221.77 131.12C221.667 131.187 221.583 131.28 221.526 131.389C221.47 131.499 221.443 131.621 221.448 131.744C221.453 131.867 221.49 131.987 221.555 132.091C221.62 132.196 221.712 132.282 221.82 132.34L266.64 156.92ZM213.88 131.13C203.733 131.997 191.993 132.123 178.66 131.51C174.57 131.32 170.25 130.61 166.08 130.08C163.887 129.807 162.173 129.91 160.94 130.39C156.88 131.95 153.97 137.84 151.75 141.68C150.077 144.587 148.443 147.243 146.85 149.65C143.19 155.19 139.747 160.87 136.52 166.69C135.08 169.31 134.15 169.94 131.72 171.43C129.66 172.7 129.23 174.91 130.6 177.06C135.18 184.23 139.24 192.91 142.89 199.25C147.37 207.03 152.79 215.08 155.05 223.82C155.209 224.439 155.571 224.986 156.077 225.374C156.582 225.762 157.204 225.968 157.84 225.96C174.28 225.793 190.917 225.807 207.75 226C209.39 226.02 210.36 226.54 211.71 227.35C211.86 227.438 212.027 227.492 212.2 227.509C212.373 227.527 212.547 227.506 212.71 227.45C214.88 226.67 217.71 222.56 218.59 221.08C221.577 216.06 224.713 211.137 228 206.31C233.54 198.16 238.5 189.56 244.14 181.4C244.32 181.136 244.398 180.816 244.36 180.5C244.12 178.46 243.527 176.787 242.58 175.48C238.76 170.21 235.46 163.55 233.2 159.73C228.62 151.98 221.75 141.77 220.68 132.01C220.66 131.83 220.583 131.662 220.461 131.529C220.339 131.396 220.177 131.305 220 131.27C218.373 130.963 216.333 130.917 213.88 131.13ZM268.93 160.18L294.2 204.67C294.238 204.736 294.3 204.784 294.373 204.804C294.445 204.825 294.524 204.816 294.59 204.78L333.96 182.41C336.003 181.25 337.859 179.957 339.123 178.815C340.386 177.673 340.954 176.776 340.7 176.32L317.09 134.75C316.828 134.299 315.767 134.327 314.14 134.827C312.513 135.328 310.452 136.26 308.41 137.42L269.04 159.79C268.974 159.828 268.926 159.89 268.906 159.963C268.885 160.035 268.894 160.114 268.93 160.18ZM223.03 137.68C230.423 151.127 237.897 164.247 245.45 177.04C245.968 177.919 246.702 178.648 247.58 179.16L288.55 202.97C289.623 203.59 289.86 203.357 289.26 202.27L266.16 160.2C265.993 159.9 265.757 159.667 265.45 159.5L223.31 136.33C222.95 136.13 222.76 136.237 222.74 136.65C222.727 136.963 222.823 137.307 223.03 137.68ZM80.7 153.67C65.4467 161.01 50.3867 168.487 35.52 176.1C35.329 176.198 35.16 176.334 35.0235 176.5C34.8869 176.665 34.7856 176.858 34.7257 177.064C34.6658 177.271 34.6486 177.488 34.6752 177.702C34.7017 177.917 34.7714 178.123 34.88 178.31L61.21 223.2C61.2555 223.279 61.3163 223.349 61.3889 223.404C61.4615 223.46 61.5443 223.5 61.6327 223.524C61.7211 223.547 61.8132 223.552 61.9038 223.54C61.9943 223.527 62.0814 223.497 62.16 223.45L107.11 197.34C107.35 197.199 107.527 196.971 107.603 196.705C107.679 196.438 107.65 196.154 107.52 195.91L84.64 152.83C84.5555 152.675 84.4213 152.552 84.2596 152.483C84.0978 152.414 83.9181 152.402 83.75 152.45C82.8967 152.697 81.88 153.103 80.7 153.67ZM152.7 220.68C152.718 220.681 152.736 220.678 152.751 220.669C152.767 220.66 152.78 220.647 152.789 220.631C152.799 220.615 152.803 220.596 152.804 220.576C152.804 220.557 152.799 220.537 152.79 220.52L129.81 178.11C129.47 177.489 128.968 176.977 128.36 176.63L89.15 154.11C88.5633 153.77 88.43 153.9 88.75 154.5L110.33 195.05C110.742 195.822 111.358 196.469 112.11 196.92C124.963 204.673 138 212.483 151.22 220.35C151.567 220.563 152.06 220.673 152.7 220.68ZM295.21 260.97C295.211 261.063 295.237 261.154 295.284 261.234C295.331 261.314 295.399 261.38 295.48 261.426C295.561 261.471 295.653 261.495 295.746 261.494C295.839 261.493 295.93 261.467 296.01 261.42L341.7 233.73C341.778 233.684 341.843 233.618 341.889 233.539C341.934 233.46 341.959 233.371 341.96 233.28V181.2C341.961 181.106 341.936 181.014 341.89 180.932C341.843 180.851 341.776 180.783 341.694 180.737C341.613 180.69 341.521 180.665 341.427 180.666C341.333 180.667 341.241 180.692 341.16 180.74L295.48 208.25C295.402 208.296 295.337 208.362 295.291 208.441C295.246 208.52 295.221 208.609 295.22 208.7L295.21 260.97ZM246.32 233.37C246.32 233.464 246.343 233.557 246.389 233.639C246.434 233.721 246.5 233.79 246.58 233.84L291.69 261.48C291.774 261.532 291.869 261.56 291.968 261.563C292.066 261.565 292.163 261.541 292.249 261.493C292.334 261.445 292.406 261.375 292.455 261.29C292.505 261.205 292.53 261.108 292.53 261.01L292.54 208.86C292.541 208.763 292.517 208.668 292.469 208.584C292.422 208.5 292.353 208.429 292.27 208.38L247.1 182.22C247.016 182.17 246.92 182.144 246.823 182.143C246.725 182.143 246.629 182.168 246.545 182.217C246.46 182.266 246.39 182.337 246.342 182.421C246.294 182.506 246.269 182.602 246.27 182.7L246.32 233.37ZM42.38 249.62C47.6533 258.307 52.9333 267.057 58.22 275.87C58.2724 275.959 58.3517 276.029 58.4464 276.071C58.5412 276.112 58.6466 276.122 58.7476 276.1C58.8486 276.078 58.9399 276.024 59.0086 275.947C59.0773 275.87 59.1198 275.773 59.13 275.67C59.1433 275.503 59.1533 275.277 59.16 274.99C59.55 259.93 59.32 244.89 59.7 229.85C59.76 227.683 59.5867 226.253 59.18 225.56C51.0133 211.567 42.78 197.567 34.48 183.56C34.4533 183.514 34.4127 183.477 34.364 183.455C34.3153 183.432 34.2612 183.426 34.2097 183.436C34.1581 183.446 34.1119 183.472 34.0777 183.511C34.0436 183.549 34.0233 183.598 34.02 183.65C33.52 188.19 33.3233 192.76 33.43 197.36C33.7 208.69 33.66 220.02 33.59 231.38C33.5767 233.067 33.9133 234.593 34.6 235.96C36.2067 239.18 38.8 243.733 42.38 249.62ZM217.58 224.6C216.767 225.86 216.357 227.243 216.35 228.75C216.257 243.617 216.227 258.487 216.26 273.36C216.267 273.787 216.207 274.21 216.08 274.63C215.853 275.403 215.74 275.82 215.74 275.88C215.873 277.88 216.48 277.997 217.56 276.23L243.17 234.51C243.477 234.013 243.64 233.442 243.64 232.86C243.613 217.34 243.593 201.72 243.58 186C243.58 185.707 243.53 185.527 243.43 185.46C243.347 185.409 243.255 185.374 243.159 185.358C243.063 185.343 242.965 185.346 242.87 185.368C242.775 185.391 242.686 185.431 242.607 185.488C242.528 185.545 242.461 185.617 242.41 185.7C234.21 198.64 225.933 211.607 217.58 224.6ZM153.58 226.44C153.674 226.378 153.751 226.293 153.803 226.193C153.856 226.094 153.882 225.982 153.88 225.87C153.878 225.757 153.848 225.647 153.792 225.549C153.736 225.451 153.656 225.369 153.56 225.31L110.28 199.23C110.177 199.169 110.06 199.137 109.94 199.137C109.82 199.137 109.703 199.169 109.6 199.23L64.82 225.27C64.7217 225.328 64.64 225.411 64.5826 225.51C64.5252 225.608 64.494 225.72 64.492 225.834C64.49 225.949 64.5173 226.062 64.5712 226.162C64.6251 226.263 64.7039 226.348 64.8 226.41L109.59 255.42C109.701 255.491 109.83 255.528 109.962 255.526C110.093 255.525 110.221 255.484 110.33 255.41L153.58 226.44ZM208.02 228.35C208.107 228.289 208.172 228.203 208.207 228.103C208.241 228.003 208.243 227.894 208.212 227.793C208.181 227.692 208.118 227.603 208.033 227.54C207.949 227.476 207.846 227.441 207.74 227.44L159.31 227.15C158.457 227.144 157.623 227.395 156.92 227.87L116.49 254.7C115.177 255.573 115.307 256.007 116.88 256C131.573 255.953 146.697 255.97 162.25 256.05C164.65 256.063 166.25 255.817 167.05 255.31C180.643 246.657 194.3 237.67 208.02 228.35ZM107.02 308.02L108.21 308.15C108.537 308.19 108.68 308.047 108.64 307.72L108.39 305.95L108.46 258.68C108.46 258.3 108.3 258.007 107.98 257.8L63.15 228.86C62.8167 228.647 62.65 228.737 62.65 229.13C62.6367 246.303 62.7533 263.51 63 280.75C63.02 282.017 63.6067 282.927 64.76 283.48C69.89 285.93 75.82 289.94 79.35 291.98C88.6033 297.333 97.8267 302.68 107.02 308.02ZM213.08 282.76C213.214 282.681 213.326 282.569 213.403 282.434C213.48 282.299 213.52 282.146 213.52 281.99L213.44 230.15C213.441 229.989 213.399 229.83 213.317 229.691C213.235 229.552 213.117 229.438 212.975 229.361C212.833 229.284 212.673 229.247 212.512 229.254C212.351 229.261 212.195 229.311 212.06 229.4L168.26 258.14C168.137 258.221 168.037 258.331 167.967 258.46C167.897 258.589 167.86 258.733 167.86 258.88L167.99 307.85C167.991 308.006 168.034 308.159 168.113 308.293C168.192 308.428 168.305 308.539 168.441 308.616C168.577 308.693 168.73 308.733 168.886 308.732C169.042 308.731 169.195 308.689 169.33 308.61L213.08 282.76ZM217.39 281.88C217.315 282.003 217.266 282.139 217.245 282.282C217.224 282.424 217.232 282.569 217.269 282.708C217.305 282.847 217.369 282.977 217.457 283.091C217.545 283.205 217.655 283.3 217.78 283.37L263.93 309.24C264.172 309.376 264.458 309.413 264.727 309.342C264.996 309.271 265.226 309.098 265.37 308.86L291.25 265.84C291.395 265.599 291.44 265.311 291.374 265.038C291.309 264.765 291.138 264.529 290.9 264.38L246.24 236.94C245.999 236.792 245.708 236.746 245.433 236.811C245.157 236.877 244.919 237.049 244.77 237.29L217.39 281.88ZM270.74 305.52C270.46 305.86 270.343 306.207 270.39 306.56C270.45 306.973 270.66 307.077 271.02 306.87L312.85 282.85C313.65 282.39 314.28 281.76 314.74 280.96L338.31 240.28C338.361 240.199 338.384 240.104 338.374 240.008C338.363 239.913 338.321 239.825 338.253 239.757C338.185 239.689 338.097 239.647 338.002 239.637C337.906 239.626 337.811 239.649 337.73 239.7C324.077 247.813 310.443 256.007 296.83 264.28C295.563 265.047 294.547 266.063 293.78 267.33C286.247 279.757 278.787 292.2 271.4 304.66C271.34 304.76 271.12 305.047 270.74 305.52ZM165.126 259.273C165.126 259.2 165.111 259.127 165.083 259.059C165.055 258.991 165.013 258.929 164.961 258.878C164.909 258.826 164.847 258.784 164.779 258.756C164.711 258.728 164.639 258.714 164.565 258.714L112.065 258.806C111.917 258.806 111.774 258.865 111.67 258.971C111.565 259.076 111.506 259.218 111.506 259.367L111.594 309.607C111.594 309.68 111.609 309.753 111.637 309.821C111.665 309.889 111.707 309.951 111.759 310.002C111.811 310.054 111.873 310.096 111.941 310.124C112.009 310.152 112.081 310.166 112.155 310.166L164.655 310.074C164.803 310.074 164.946 310.015 165.05 309.909C165.155 309.804 165.214 309.662 165.214 309.513L165.126 259.273ZM218.87 337.37C219.53 336.697 221.023 336.06 223.35 335.46C223.643 335.38 223.843 335.197 223.95 334.91C224.03 334.697 224.177 334.527 224.39 334.4C236.443 327.067 248.533 319.88 260.66 312.84C261.84 312.153 261.833 311.473 260.64 310.8L216.45 285.84C215.981 285.576 215.452 285.439 214.915 285.444C214.377 285.45 213.851 285.596 213.39 285.87L170.68 311.04C170.557 311.113 170.456 311.217 170.385 311.34C170.314 311.464 170.276 311.604 170.275 311.747C170.274 311.89 170.31 312.031 170.379 312.155C170.448 312.28 170.548 312.385 170.67 312.46C184.397 320.94 197.967 329.407 211.38 337.86C214.273 339.68 216.77 339.517 218.87 337.37ZM156.32 338.93C156.6 340.003 157.33 340.537 158.51 340.53C173.997 340.383 190.01 340.1 206.55 339.68C207.977 339.647 208.083 339.25 206.87 338.49L167.77 314.15C166.894 313.601 165.882 313.31 164.85 313.31C150.457 313.283 136.007 313.267 121.5 313.26C119.887 313.26 118.37 313.447 116.95 313.82C116.888 313.836 116.831 313.871 116.788 313.919C116.745 313.967 116.717 314.026 116.707 314.09C116.698 314.154 116.707 314.22 116.734 314.278C116.761 314.337 116.805 314.386 116.86 314.42C125.747 319.82 134.57 325.32 143.33 330.92C143.363 330.933 143.38 330.96 143.38 331C143.373 331.087 143.367 331.17 143.36 331.25C143.347 331.377 143.397 331.473 143.51 331.54L156.03 338.54C156.102 338.581 156.165 338.637 156.215 338.704C156.265 338.771 156.301 338.848 156.32 338.93Z" fill="#0B0B0B"/>
<path d="M254.47 37.21C256.35 38.2967 258.19 39.3634 259.99 40.41C260.037 40.4369 260.078 40.4738 260.109 40.5181C260.141 40.5624 260.162 40.6131 260.171 40.6666C260.181 40.72 260.178 40.7749 260.164 40.8274C260.15 40.8798 260.125 40.9285 260.09 40.97C259.857 41.2434 259.577 41.38 259.25 41.38C242.603 41.4734 226.01 41.4634 209.47 41.35C209.109 41.3435 208.755 41.2473 208.44 41.07L166.46 16.58C166.382 16.5353 166.322 16.4665 166.288 16.384C166.254 16.3015 166.249 16.2098 166.272 16.1228C166.296 16.0357 166.348 15.9581 166.42 15.9017C166.491 15.8452 166.579 15.8131 166.67 15.81C182.83 15.6834 199.08 15.74 215.42 15.98C216.84 16.0067 218.163 16.3667 219.39 17.06C224.137 19.7667 228.85 22.4634 233.53 25.15C240.517 29.1634 247.497 33.1834 254.47 37.21Z" fill="white"/>
<path d="M160.19 16.34L204.59 42.09C204.693 42.1499 204.778 42.2362 204.837 42.3401C204.896 42.444 204.926 42.5616 204.923 42.6809C204.921 42.8001 204.888 42.9167 204.825 43.0185C204.763 43.1203 204.675 43.2037 204.57 43.26L159.96 67.03C159.864 67.08 159.758 67.106 159.65 67.106C159.542 67.106 159.436 67.08 159.34 67.03L114.46 43.37C114.352 43.3145 114.262 43.2309 114.198 43.128C114.134 43.0252 114.099 42.907 114.097 42.786C114.095 42.665 114.126 42.5456 114.186 42.4407C114.247 42.3358 114.334 42.2491 114.44 42.19L159.52 16.34C159.622 16.2812 159.737 16.2502 159.855 16.2502C159.973 16.2502 160.088 16.2812 160.19 16.34Z" fill="white"/>
<path d="M265.188 44.2678L210.368 44.1721C210.136 44.1717 209.948 44.3594 209.947 44.5914L209.853 98.5113C209.853 98.7433 210.04 98.9316 210.272 98.932L265.092 99.0277C265.324 99.0281 265.512 98.8404 265.513 98.6084L265.607 44.6885C265.607 44.4566 265.42 44.2682 265.188 44.2678Z" fill="#F3F3F3"/>
<path d="M111.36 45.2399C111.385 45.2278 111.411 45.2214 111.437 45.2214C111.463 45.2214 111.488 45.2278 111.51 45.2399L157.01 69.0199C157.092 69.0637 157.165 69.1237 157.223 69.1963C157.282 69.2688 157.325 69.3525 157.35 69.4422C157.375 69.5319 157.382 69.6258 157.37 69.7182C157.358 69.8107 157.327 69.8997 157.28 69.9799L130.35 115.16C130.305 115.238 130.245 115.305 130.173 115.359C130.101 115.413 130.018 115.451 129.93 115.471C129.842 115.492 129.751 115.494 129.661 115.479C129.572 115.463 129.486 115.429 129.41 115.38L87.28 88.4099C86.8933 88.1632 86.81 87.8366 87.03 87.4299C94.41 74.1032 101.75 60.7332 109.05 47.3199C109.523 46.4466 110.293 45.7532 111.36 45.2399Z" fill="white"/>
<path d="M207.06 46.4099L207.27 99.0799C207.272 99.2166 207.238 99.3514 207.171 99.4708C207.104 99.5901 207.007 99.6898 206.89 99.7599L162.35 126.28C162.232 126.351 162.097 126.389 161.959 126.39C161.821 126.392 161.685 126.357 161.565 126.289C161.445 126.22 161.345 126.122 161.276 126.003C161.206 125.883 161.17 125.748 161.17 125.61L161.08 70.0899C161.079 69.9486 161.117 69.8097 161.189 69.6882C161.262 69.5666 161.366 69.467 161.49 69.3999L205.92 45.7299C206.038 45.6685 206.17 45.6383 206.303 45.6422C206.436 45.646 206.565 45.6838 206.68 45.752C206.794 45.8201 206.889 45.9163 206.955 46.0315C207.022 46.1467 207.058 46.2769 207.06 46.4099Z" fill="#F3F3F3"/>
<path d="M269.23 46.15L313.91 74.53C314.227 74.7303 314.489 75.0048 314.674 75.3292C314.859 75.6537 314.961 76.018 314.97 76.39C315.317 92.2766 315.433 108.313 315.32 124.5C315.313 125.847 315.39 126.837 315.55 127.47C315.963 129.083 315.467 129.443 314.06 128.55L268.68 99.83C268.38 99.6367 268.23 99.3633 268.23 99.01L268.27 46.67C268.27 46.5594 268.3 46.4511 268.357 46.3563C268.413 46.2614 268.495 46.1835 268.593 46.1305C268.691 46.0775 268.801 46.0513 268.913 46.0547C269.025 46.0582 269.135 46.0911 269.23 46.15Z" fill="#F3F3F3"/>
<path d="M37.99 113.33C44.07 101.14 50.95 89.3899 56.86 77.1199C57.98 74.7899 59.27 73.3199 61.6 71.8899C64.92 69.8699 68.27 67.9266 71.65 66.0599C82.8167 59.9066 93.53 53.9066 103.79 48.0599C105.33 47.1799 105.673 47.5166 104.82 49.0699C98.0867 61.2966 91.3867 73.4099 84.72 85.4099C83.34 87.8999 81.54 88.7799 79.23 90.1699C65.2633 98.6032 51.3333 107.103 37.44 115.67C37.0933 115.883 36.9067 115.787 36.88 115.38C36.8333 114.667 37.0667 114.137 37.58 113.79C37.7571 113.672 37.8985 113.513 37.99 113.33Z" fill="#F3F3F3"/>
<path d="M132.03 169.64L131.94 118C131.94 117.947 131.954 117.896 131.98 117.85L157.46 75.2199C157.493 75.1626 157.544 75.1178 157.605 75.0925C157.666 75.0672 157.734 75.0627 157.798 75.0798C157.861 75.0969 157.918 75.1346 157.958 75.1871C157.998 75.2395 158.02 75.3038 158.02 75.3699L158.11 129.18C158.109 129.237 158.092 129.292 158.06 129.34L132.58 169.8C132.545 169.853 132.493 169.894 132.433 169.916C132.373 169.938 132.308 169.94 132.246 169.922C132.185 169.904 132.131 169.867 132.092 169.817C132.053 169.766 132.031 169.704 132.03 169.64Z" fill="#F3F3F3"/>
<path d="M334.15 107.51C334.657 107.943 334.997 108.493 335.17 109.16C336 112.23 338.53 115.6 340.16 118.38C341.35 120.39 342.04 120.74 342.02 123.5C341.947 137 342.007 150.5 342.2 164C342.233 166.453 342.173 168.827 342.02 171.12C342.016 171.204 341.984 171.285 341.93 171.35C341.875 171.415 341.801 171.46 341.719 171.48C341.637 171.499 341.55 171.491 341.473 171.456C341.395 171.422 341.331 171.364 341.29 171.29L318.25 131.86C318.191 131.762 318.16 131.644 318.16 131.52L318.2 82.2099C318.199 82.0928 318.237 81.9792 318.308 81.8867C318.379 81.7942 318.479 81.7281 318.593 81.6984C318.707 81.6688 318.828 81.6774 318.938 81.7229C319.048 81.7683 319.14 81.8481 319.2 81.9499L333.53 106.75C333.697 107.037 333.903 107.29 334.15 107.51Z" fill="#F3F3F3"/>
<path d="M33.62 172.53L33.63 123.72C33.6303 123.063 33.7986 122.418 34.119 121.845C34.4394 121.273 34.9011 120.792 35.46 120.45L82.35 91.7101C82.4318 91.6605 82.5252 91.6335 82.6208 91.6319C82.7165 91.6303 82.8108 91.6541 82.8942 91.7009C82.9776 91.7477 83.0471 91.8158 83.0955 91.8982C83.144 91.9806 83.1697 92.0745 83.17 92.1701L83.21 147.79C83.2104 148.255 83.0804 148.71 82.8346 149.104C82.5889 149.499 82.2373 149.816 81.82 150.02C66.0133 157.673 50.3867 165.21 34.94 172.63C34.5067 172.837 34.1133 172.873 33.76 172.74C33.7187 172.723 33.6835 172.693 33.6586 172.656C33.6337 172.619 33.6203 172.575 33.62 172.53Z" fill="#F3F3F3"/>
<path d="M86 148.76L86.03 92.4C86.0304 92.2766 86.0639 92.1556 86.127 92.0495C86.1901 91.9435 86.2805 91.8563 86.3888 91.7971C86.497 91.7379 86.6192 91.7087 86.7425 91.7128C86.8659 91.7168 86.9858 91.7538 87.09 91.82L128.73 118.22C128.828 118.282 128.908 118.368 128.964 118.469C129.02 118.57 129.05 118.684 129.05 118.8L129.01 172.39C129.01 172.511 128.978 172.629 128.918 172.734C128.858 172.838 128.772 172.925 128.667 172.986C128.563 173.046 128.445 173.079 128.324 173.08C128.204 173.08 128.085 173.049 127.98 172.99L86.35 149.36C86.2438 149.3 86.1555 149.213 86.094 149.107C86.0325 149.002 86.0001 148.882 86 148.76Z" fill="white"/>
<path d="M165.41 127.72L208.84 101.85C208.891 101.818 208.95 101.801 209.01 101.8L261.07 101.78C261.142 101.779 261.213 101.801 261.271 101.844C261.329 101.887 261.372 101.947 261.392 102.017C261.412 102.086 261.41 102.16 261.384 102.227C261.358 102.295 261.311 102.352 261.25 102.39L217.79 130.35C217.734 130.389 217.668 130.41 217.6 130.41L165.57 128.33C165.5 128.327 165.432 128.302 165.377 128.257C165.322 128.213 165.283 128.152 165.265 128.084C165.247 128.016 165.251 127.944 165.278 127.878C165.304 127.813 165.35 127.757 165.41 127.72Z" fill="white"/>
<path d="M266.64 156.92L221.82 132.34C221.712 132.281 221.62 132.196 221.555 132.091C221.49 131.987 221.453 131.867 221.448 131.744C221.443 131.621 221.47 131.499 221.526 131.389C221.583 131.28 221.667 131.187 221.77 131.12L266.56 102.29C266.673 102.216 266.804 102.176 266.939 102.175C267.073 102.173 267.205 102.209 267.32 102.28L312.89 131.14C312.996 131.206 313.082 131.3 313.14 131.41C313.198 131.521 313.226 131.645 313.221 131.769C313.216 131.894 313.178 132.015 313.111 132.121C313.044 132.226 312.951 132.312 312.84 132.37L267.32 156.93C267.215 156.985 267.098 157.013 266.979 157.012C266.86 157.01 266.743 156.978 266.64 156.92Z" fill="white"/>
<path d="M268.93 160.18C268.894 160.114 268.885 160.035 268.906 159.963C268.926 159.89 268.974 159.828 269.04 159.79L308.41 137.42C310.452 136.26 312.513 135.328 314.14 134.827C315.767 134.327 316.828 134.299 317.09 134.75L340.7 176.32C340.954 176.776 340.386 177.673 339.123 178.815C337.859 179.957 336.003 181.25 333.96 182.41L294.59 204.78C294.523 204.816 294.445 204.825 294.373 204.804C294.3 204.784 294.238 204.736 294.2 204.67L268.93 160.18Z" fill="white"/>
<path d="M223.03 137.68C222.823 137.307 222.727 136.963 222.74 136.65C222.76 136.237 222.95 136.13 223.31 136.33L265.45 159.5C265.757 159.667 265.993 159.9 266.16 160.2L289.26 202.27C289.86 203.357 289.623 203.59 288.55 202.97L247.58 179.16C246.702 178.648 245.968 177.918 245.45 177.04C237.897 164.247 230.423 151.127 223.03 137.68Z" fill="#F3F3F3"/>
<path d="M80.7 153.67C81.88 153.103 82.8967 152.697 83.75 152.45C83.9181 152.402 84.0978 152.414 84.2596 152.483C84.4213 152.552 84.5555 152.674 84.64 152.83L107.52 195.91C107.65 196.153 107.679 196.438 107.603 196.705C107.527 196.971 107.35 197.199 107.11 197.34L62.16 223.45C62.0814 223.496 61.9943 223.527 61.9038 223.54C61.8132 223.552 61.7211 223.547 61.6327 223.524C61.5443 223.5 61.4615 223.46 61.3889 223.404C61.3163 223.349 61.2555 223.279 61.21 223.2L34.88 178.31C34.7714 178.123 34.7017 177.917 34.6752 177.702C34.6486 177.488 34.6658 177.271 34.7257 177.064C34.7856 176.858 34.8869 176.665 35.0235 176.5C35.16 176.334 35.329 176.198 35.52 176.1C50.3867 168.487 65.4467 161.01 80.7 153.67Z" fill="#F3F3F3"/>
<path d="M152.7 220.68C152.06 220.673 151.567 220.563 151.22 220.35C138 212.483 124.963 204.673 112.11 196.92C111.358 196.469 110.742 195.822 110.33 195.05L88.75 154.5C88.43 153.9 88.5633 153.77 89.15 154.11L128.36 176.63C128.968 176.977 129.47 177.489 129.81 178.11L152.79 220.52C152.799 220.537 152.804 220.557 152.804 220.576C152.803 220.596 152.799 220.615 152.789 220.631C152.78 220.647 152.767 220.66 152.751 220.669C152.736 220.678 152.718 220.681 152.7 220.68Z" fill="white"/>
<path d="M295.21 260.97L295.22 208.7C295.221 208.609 295.246 208.52 295.291 208.441C295.337 208.362 295.402 208.296 295.48 208.25L341.16 180.74C341.241 180.692 341.333 180.667 341.427 180.666C341.52 180.665 341.613 180.69 341.694 180.737C341.776 180.783 341.843 180.851 341.89 180.932C341.936 181.014 341.961 181.106 341.96 181.2V233.28C341.959 233.371 341.934 233.46 341.889 233.539C341.843 233.618 341.778 233.684 341.7 233.73L296.01 261.42C295.93 261.467 295.839 261.493 295.746 261.494C295.653 261.495 295.561 261.471 295.48 261.426C295.399 261.38 295.331 261.314 295.284 261.234C295.237 261.154 295.211 261.063 295.21 260.97Z" fill="white"/>
<path d="M246.32 233.37L246.27 182.7C246.269 182.602 246.294 182.506 246.342 182.421C246.39 182.337 246.46 182.266 246.545 182.217C246.629 182.168 246.725 182.143 246.823 182.143C246.92 182.144 247.016 182.17 247.1 182.22L292.27 208.38C292.353 208.429 292.422 208.499 292.469 208.584C292.517 208.668 292.541 208.763 292.54 208.86L292.53 261.01C292.53 261.108 292.505 261.205 292.455 261.29C292.406 261.375 292.334 261.445 292.249 261.493C292.163 261.541 292.066 261.565 291.968 261.562C291.869 261.56 291.773 261.532 291.69 261.48L246.58 233.84C246.5 233.79 246.434 233.721 246.389 233.639C246.343 233.557 246.32 233.464 246.32 233.37Z" fill="#F3F3F3"/>
<path d="M42.38 249.62C38.8 243.733 36.2067 239.18 34.6 235.96C33.9133 234.593 33.5767 233.067 33.59 231.38C33.66 220.02 33.7 208.69 33.43 197.36C33.3233 192.76 33.52 188.19 34.02 183.65C34.0233 183.598 34.0436 183.549 34.0777 183.511C34.1119 183.472 34.1581 183.446 34.2097 183.436C34.2612 183.426 34.3153 183.433 34.364 183.455C34.4127 183.477 34.4533 183.514 34.48 183.56C42.78 197.567 51.0133 211.567 59.18 225.56C59.5867 226.253 59.76 227.683 59.7 229.85C59.32 244.89 59.55 259.93 59.16 274.99C59.1533 275.277 59.1433 275.503 59.13 275.67C59.1198 275.773 59.0773 275.87 59.0086 275.947C58.9399 276.025 58.8486 276.078 58.7476 276.1C58.6466 276.122 58.5412 276.112 58.4464 276.071C58.3517 276.029 58.2724 275.959 58.22 275.87C52.9333 267.057 47.6533 258.307 42.38 249.62Z" fill="white"/>
<path d="M217.58 224.6C225.933 211.607 234.21 198.64 242.41 185.7C242.461 185.617 242.528 185.545 242.607 185.488C242.686 185.431 242.775 185.391 242.87 185.368C242.965 185.346 243.063 185.343 243.159 185.358C243.255 185.374 243.347 185.409 243.43 185.46C243.53 185.527 243.58 185.707 243.58 186C243.593 201.72 243.613 217.34 243.64 232.86C243.64 233.442 243.477 234.013 243.17 234.51L217.56 276.23C216.48 277.997 215.873 277.88 215.74 275.88C215.74 275.82 215.853 275.403 216.08 274.63C216.207 274.21 216.267 273.787 216.26 273.36C216.227 258.487 216.257 243.617 216.35 228.75C216.357 227.243 216.767 225.86 217.58 224.6Z" fill="white"/>
<path d="M153.58 226.44L110.33 255.41C110.221 255.484 110.093 255.525 109.962 255.526C109.83 255.528 109.701 255.491 109.59 255.42L64.8 226.41C64.7039 226.348 64.6251 226.263 64.5712 226.162C64.5173 226.061 64.49 225.949 64.492 225.834C64.494 225.72 64.5252 225.608 64.5826 225.509C64.64 225.411 64.7217 225.328 64.82 225.27L109.6 199.23C109.703 199.169 109.82 199.137 109.94 199.137C110.06 199.137 110.177 199.169 110.28 199.23L153.56 225.31C153.656 225.369 153.736 225.451 153.792 225.549C153.848 225.646 153.878 225.757 153.88 225.869C153.882 225.982 153.856 226.093 153.803 226.193C153.751 226.293 153.674 226.378 153.58 226.44Z" fill="#F3F3F3"/>
<path d="M208.02 228.35C194.3 237.67 180.643 246.657 167.05 255.31C166.25 255.817 164.65 256.063 162.25 256.05C146.697 255.97 131.573 255.953 116.88 256C115.307 256.007 115.177 255.573 116.49 254.7L156.92 227.87C157.623 227.395 158.457 227.144 159.31 227.15L207.74 227.44C207.846 227.441 207.949 227.476 208.033 227.54C208.118 227.603 208.181 227.692 208.212 227.793C208.243 227.894 208.241 228.003 208.207 228.103C208.172 228.203 208.107 228.289 208.02 228.35Z" fill="#F3F3F3"/>
<path d="M108.39 305.95C108.323 307.117 107.867 307.807 107.02 308.02C97.8267 302.68 88.6033 297.333 79.35 291.98C75.82 289.94 69.89 285.93 64.76 283.48C63.6067 282.927 63.02 282.017 63 280.75C62.7533 263.51 62.6367 246.303 62.65 229.13C62.65 228.737 62.8167 228.647 63.15 228.86L107.98 257.8C108.3 258.007 108.46 258.3 108.46 258.68L108.39 305.95Z" fill="white"/>
<path d="M213.08 282.76L169.33 308.61C169.195 308.689 169.042 308.731 168.886 308.732C168.73 308.733 168.577 308.693 168.441 308.616C168.305 308.539 168.192 308.428 168.113 308.293C168.034 308.159 167.991 308.006 167.99 307.85L167.86 258.88C167.86 258.733 167.897 258.589 167.967 258.46C168.037 258.331 168.137 258.221 168.26 258.14L212.06 229.4C212.195 229.311 212.351 229.261 212.512 229.254C212.673 229.247 212.833 229.284 212.975 229.361C213.117 229.438 213.235 229.552 213.317 229.691C213.399 229.83 213.441 229.989 213.44 230.15L213.52 281.99C213.52 282.146 213.48 282.299 213.403 282.434C213.326 282.569 213.214 282.681 213.08 282.76Z" fill="white"/>
<path d="M217.39 281.88L244.77 237.29C244.919 237.049 245.157 236.877 245.433 236.811C245.708 236.745 245.999 236.792 246.24 236.94L290.9 264.38C291.138 264.529 291.309 264.765 291.374 265.038C291.44 265.311 291.395 265.599 291.25 265.84L265.37 308.86C265.226 309.098 264.996 309.271 264.727 309.342C264.458 309.412 264.172 309.376 263.93 309.24L217.78 283.37C217.655 283.3 217.545 283.205 217.457 283.091C217.369 282.977 217.305 282.847 217.269 282.708C217.232 282.569 217.224 282.424 217.245 282.281C217.266 282.139 217.315 282.003 217.39 281.88Z" fill="#F3F3F3"/>
<path d="M271.4 304.66C278.787 292.2 286.247 279.757 293.78 267.33C294.547 266.063 295.563 265.047 296.83 264.28C310.443 256.007 324.077 247.813 337.73 239.7C337.811 239.649 337.906 239.626 338.002 239.637C338.097 239.647 338.185 239.689 338.253 239.757C338.321 239.825 338.363 239.913 338.373 240.008C338.384 240.104 338.361 240.199 338.31 240.28L314.74 280.96C314.28 281.76 313.65 282.39 312.85 282.85L271.02 306.87C270.66 307.077 270.45 306.973 270.39 306.56C270.343 306.207 270.46 305.86 270.74 305.52C271.12 305.047 271.34 304.76 271.4 304.66Z" fill="white"/>
<path d="M164.565 258.714L112.065 258.806C111.756 258.806 111.506 259.058 111.506 259.367L111.594 309.607C111.594 309.916 111.846 310.166 112.155 310.166L164.655 310.074C164.964 310.074 165.214 309.823 165.214 309.513L165.126 259.273C165.126 258.964 164.874 258.714 164.565 258.714Z" fill="white"/>
<path d="M218.87 337.37C216.77 339.517 214.273 339.68 211.38 337.86C197.967 329.407 184.397 320.94 170.67 312.46C170.548 312.385 170.448 312.28 170.379 312.155C170.31 312.031 170.274 311.89 170.275 311.747C170.276 311.604 170.314 311.464 170.385 311.34C170.456 311.217 170.557 311.113 170.68 311.04L213.39 285.87C213.851 285.596 214.377 285.45 214.915 285.444C215.452 285.439 215.981 285.575 216.45 285.84L260.64 310.8C261.833 311.473 261.84 312.153 260.66 312.84C248.533 319.88 236.443 327.067 224.39 334.4C224.177 334.527 224.03 334.697 223.95 334.91C223.843 335.197 223.643 335.38 223.35 335.46C221.023 336.06 219.53 336.697 218.87 337.37Z" fill="#F3F3F3"/>
<path d="M108.39 305.95L108.64 307.72C108.68 308.047 108.537 308.19 108.21 308.15L107.02 308.02C107.867 307.807 108.323 307.117 108.39 305.95Z" fill="#F3F3F3"/>
<path d="M156.03 338.54L143.51 331.54C143.397 331.473 143.347 331.377 143.36 331.25C143.367 331.17 143.373 331.087 143.38 331C143.38 330.96 143.363 330.933 143.33 330.92C134.57 325.32 125.747 319.82 116.86 314.42C116.805 314.386 116.761 314.337 116.734 314.278C116.707 314.22 116.698 314.154 116.707 314.09C116.717 314.026 116.745 313.967 116.788 313.919C116.831 313.871 116.888 313.836 116.95 313.82C118.37 313.447 119.887 313.26 121.5 313.26C136.007 313.267 150.457 313.283 164.85 313.31C165.882 313.31 166.894 313.601 167.77 314.15L206.87 338.49C208.083 339.25 207.977 339.647 206.55 339.68C190.01 340.1 173.997 340.383 158.51 340.53C157.33 340.537 156.6 340.003 156.32 338.93C156.301 338.848 156.265 338.771 156.215 338.704C156.165 338.637 156.102 338.581 156.03 338.54Z" fill="#F3F3F3"/>
</svg>
