<svg width="94" height="20" viewBox="0 0 94 20" fill="none" xmlns="http://www.w3.org/2000/svg">
<path d="M0.83412 11.1585C0.833965 11.1625 0.835149 11.1664 0.837479 11.1696C0.839809 11.1728 0.843149 11.1751 0.846953 11.1761C0.850758 11.1772 0.854804 11.1769 0.858432 11.1753C0.86206 11.1738 0.865056 11.171 0.866933 11.1676L2.19323 8.87607C2.19473 8.8733 2.19546 8.87017 2.19535 8.86702L2.1964 6.13032C2.19656 6.12636 2.19538 6.12246 2.19305 6.11926C2.19071 6.11606 2.18738 6.11375 2.18357 6.1127C2.17977 6.11165 2.17572 6.11193 2.17209 6.11349C2.16846 6.11505 2.16547 6.11779 2.16359 6.12128L0.837825 8.41702C0.836324 8.41979 0.835592 8.42292 0.835708 8.42607L0.83412 11.1585Z" stroke="#888888" stroke-width="0.0868578"/>
<path d="M2.28907 9.12366C2.28609 9.11806 2.28167 9.11337 2.27629 9.11007C2.2709 9.10676 2.26473 9.10496 2.25842 9.10485C2.25211 9.10474 2.24588 9.10633 2.24038 9.10945C2.23489 9.11257 2.23032 9.11711 2.22715 9.12259L0.856923 11.4896C0.853811 11.495 0.852173 11.5012 0.852173 11.5074C0.852173 11.5137 0.853811 11.5198 0.856923 11.5253L2.22662 13.9327C2.22975 13.9383 2.23433 13.943 2.23989 13.9462C2.24544 13.9494 2.25175 13.951 2.25816 13.9509C2.26456 13.9508 2.27082 13.949 2.27626 13.9456C2.2817 13.9422 2.28613 13.9374 2.28907 13.9316L3.54815 11.5237C3.55079 11.5186 3.55217 11.5129 3.55217 11.5072C3.55217 11.5014 3.55079 11.4958 3.54815 11.4907L2.28907 9.12366Z" stroke="#888888" stroke-width="0.0868578"/>
<path d="M2.37535 5.8735C2.37041 5.8735 2.36552 5.87448 2.36097 5.87638C2.35641 5.87828 2.35226 5.88106 2.34877 5.88456C2.34529 5.88807 2.34252 5.89223 2.34063 5.89682C2.33874 5.9014 2.33777 5.90631 2.33777 5.91127L2.33777 8.79744C2.33777 8.8024 2.33874 8.80731 2.34063 8.81189C2.34252 8.81647 2.34529 8.82064 2.34877 8.82414C2.35226 8.82765 2.35641 8.83043 2.36097 8.83233C2.36552 8.83423 2.37041 8.83521 2.37535 8.83521L5.20047 8.8352C5.21044 8.8352 5.21999 8.83123 5.22704 8.82414C5.23409 8.81706 5.23805 8.80745 5.23805 8.79744L5.23805 5.91127C5.23805 5.90125 5.23409 5.89165 5.22704 5.88456C5.21999 5.87748 5.21044 5.8735 5.20047 5.8735L2.37535 5.8735Z" stroke="#828282" stroke-width="0.0868578"/>
<path d="M3.70532 11.6347C3.70089 11.6321 3.69599 11.6304 3.6909 11.6297C3.68581 11.6291 3.68064 11.6294 3.6757 11.6308C3.67075 11.6322 3.66614 11.6346 3.66214 11.6378C3.65813 11.641 3.65482 11.6451 3.65239 11.6496L2.38008 14.09C2.37537 14.0989 2.37433 14.1093 2.37721 14.119C2.38008 14.1287 2.38663 14.1368 2.39543 14.1416L4.6278 15.3714C4.63629 15.376 4.64621 15.3772 4.65554 15.3747C4.66487 15.3722 4.67293 15.3663 4.67807 15.3581L6.10493 13.1198C6.1077 13.1155 6.10958 13.1106 6.11044 13.1055C6.11131 13.1005 6.11114 13.0952 6.10996 13.0902C6.10877 13.0852 6.10659 13.0805 6.10354 13.0763C6.10049 13.0722 6.09665 13.0687 6.09222 13.0661L3.70532 11.6347Z" stroke="#888888" stroke-width="0.0868578"/>
<path d="M2.41921 9.04068L3.66135 11.3907C3.67617 11.418 3.69893 11.4316 3.72962 11.4316L6.6516 11.43C6.69923 11.43 6.7107 11.4095 6.686 11.3683L5.29355 9.0226C5.28614 9.01012 5.27567 8.99979 5.26314 8.99261C5.25062 8.98543 5.23648 8.98165 5.2221 8.98164C4.31003 8.97455 3.39408 8.97774 2.47425 8.99121C2.45661 8.99157 2.44479 8.99246 2.43879 8.99387C2.41338 9.00132 2.40686 9.01692 2.41921 9.04068Z" stroke="#828282" stroke-width="0.0868578"/>
<path d="M5.2555 5.73242C5.25952 5.73242 5.26347 5.73139 5.26698 5.72944C5.2705 5.72748 5.27347 5.72467 5.27561 5.72125L6.82048 3.26593C6.82273 3.26235 6.824 3.25824 6.82414 3.25401C6.82429 3.24977 6.82332 3.24558 6.82133 3.24185C6.81934 3.23812 6.8164 3.23498 6.81281 3.23277C6.80922 3.23055 6.80511 3.22933 6.8009 3.22923L3.99483 3.22178C3.99081 3.22179 3.98686 3.22282 3.98335 3.22477C3.97983 3.22672 3.97686 3.22954 3.97472 3.23295L2.41767 5.69412C2.4154 5.69774 2.41414 5.70191 2.41401 5.70618C2.41389 5.71046 2.4149 5.71469 2.41696 5.71844C2.41901 5.72218 2.42202 5.72531 2.42569 5.72749C2.42935 5.72967 2.43353 5.73082 2.43778 5.73083L5.2555 5.73242Z" stroke="#828282" stroke-width="0.0868578"/>
<path d="M5.0824 17.5082C5.44264 17.7033 5.799 17.8979 6.15148 18.0923C6.15404 18.0939 6.15706 18.0945 6.16005 18.0941C6.16303 18.0938 6.1658 18.0924 6.1679 18.0902C6.16999 18.088 6.17129 18.0852 6.17158 18.0822C6.17186 18.0792 6.17112 18.0762 6.16947 18.0737C5.75737 17.4056 5.35108 16.7396 4.95062 16.0758C4.82095 15.8604 4.7114 15.604 4.51557 15.4928C3.8459 15.1109 3.17499 14.7377 2.50284 14.3731C2.49982 14.3714 2.49629 14.3706 2.49282 14.3711C2.48935 14.3716 2.48613 14.3732 2.48365 14.3756C2.48118 14.3781 2.47959 14.3814 2.47914 14.3849C2.47868 14.3883 2.47939 14.3919 2.48114 14.3949C2.92395 15.1768 3.36375 15.9632 3.80056 16.754C3.84025 16.8258 3.91223 16.905 3.97627 16.9364C4.34886 17.1198 4.71757 17.3104 5.0824 17.5082Z" stroke="#828282" stroke-width="0.0868578"/>
<path d="M4.01544 11.6596C4.7338 12.0763 5.45323 12.5038 6.17371 12.9421C6.21556 12.9678 6.26373 12.9814 6.3129 12.9814L8.98349 12.9798C8.98813 12.98 8.99269 12.9785 8.99644 12.9758C9.0002 12.973 9.00295 12.9691 9.00428 12.9646C9.0056 12.9602 9.00542 12.9554 9.00377 12.951C9.00212 12.9466 8.99908 12.9429 8.99513 12.9405L6.91254 11.6309C6.86583 11.6017 6.81211 11.5862 6.75747 11.5862L3.99585 11.5963C3.94716 11.5963 3.94081 11.6098 3.9768 11.6368C3.97892 11.6382 3.9918 11.6458 4.01544 11.6596Z" stroke="#828282" stroke-width="0.0868578"/>
<path d="M6.97022 3.07192C6.9734 3.07184 6.97651 3.07093 6.97922 3.06926L9.07875 1.83628C9.0821 1.83421 9.08469 1.8311 9.08612 1.82742C9.08755 1.82374 9.08774 1.81969 9.08666 1.81588C9.08558 1.81208 9.08329 1.80874 9.08014 1.80637C9.07699 1.804 9.07315 1.80274 9.06922 1.80277L6.42351 1.8033C6.42033 1.80337 6.41722 1.80429 6.41451 1.80596L4.26894 3.04798C4.26536 3.0499 4.26252 3.05298 4.2609 3.05672C4.25928 3.06046 4.25896 3.06464 4.26 3.06859C4.26105 3.07253 4.26338 3.07601 4.26664 3.07845C4.2699 3.08089 4.27388 3.08215 4.27794 3.08202L6.97022 3.07192Z" stroke="#828282" stroke-width="0.0868578"/>
<path d="M9.16552 18.2241C9.16854 18.2242 9.17152 18.2234 9.17417 18.222C9.17682 18.2206 9.17906 18.2184 9.18065 18.2159C9.18225 18.2133 9.18316 18.2104 9.18329 18.2073C9.18342 18.2043 9.18277 18.2013 9.1814 18.1986L7.90485 15.5848C7.90337 15.5818 7.90109 15.5794 7.89828 15.5777C7.89547 15.576 7.89225 15.5751 7.88898 15.5752L4.85691 15.5757C4.85384 15.5757 4.85082 15.5766 4.84817 15.5782C4.84552 15.5797 4.84333 15.582 4.84183 15.5847C4.84032 15.5874 4.83955 15.5904 4.8396 15.5935C4.83965 15.5966 4.84051 15.5997 4.8421 15.6023L6.42508 18.2114C6.42662 18.2139 6.42879 18.2161 6.43138 18.2176C6.43398 18.219 6.43691 18.2198 6.4399 18.2199L9.16552 18.2241Z" stroke="#828282" stroke-width="0.0868578"/>
<path d="M7.88319 15.425C7.88618 15.4251 7.88914 15.4243 7.89174 15.4228C7.89434 15.4213 7.8965 15.4191 7.898 15.4165L9.17773 13.1591C9.17922 13.1565 9.18 13.1535 9.18 13.1505C9.17999 13.1475 9.17919 13.1446 9.17769 13.142C9.17618 13.1394 9.17402 13.1373 9.17143 13.1358C9.16883 13.1343 9.16589 13.1335 9.16291 13.1336L6.27533 13.1383C6.27247 13.1384 6.26966 13.1391 6.26716 13.1405C6.26467 13.1419 6.26256 13.1439 6.26104 13.1463L4.84054 15.3985C4.83893 15.401 4.83804 15.404 4.83796 15.407C4.83787 15.41 4.8386 15.4131 4.84005 15.4157C4.84151 15.4184 4.84365 15.4206 4.84625 15.4221C4.84885 15.4237 4.85181 15.4245 4.85483 15.4245L7.88319 15.425Z" stroke="#888888" stroke-width="0.0868578"/>
<path d="M5.53914 9.1401C5.95019 9.82981 6.3563 10.5183 6.75747 11.2055C6.75935 11.2088 6.76223 11.2113 6.76568 11.2128C6.76913 11.2142 6.77297 11.2145 6.77665 11.2136C6.78032 11.2126 6.78362 11.2105 6.78608 11.2075C6.78853 11.2045 6.79001 11.2008 6.79028 11.197L6.90248 8.44595C6.90316 8.43109 6.89927 8.41657 6.89137 8.40446L5.44282 6.14169C5.40577 6.08389 5.38725 6.08921 5.38725 6.15765C5.38654 7.01191 5.38813 7.88177 5.39201 8.76723C5.39307 8.91669 5.46716 9.01989 5.53914 9.1401Z" stroke="#888888" stroke-width="0.0868578"/>
<path d="M6.94486 8.21025C6.94792 8.21501 6.95215 8.2189 6.95714 8.22154C6.96213 8.22419 6.96772 8.22549 6.97336 8.22533C6.979 8.22517 6.9845 8.22355 6.98934 8.22063C6.99417 8.21771 6.99818 8.21358 7.00096 8.20865L8.30609 5.81344C8.30877 5.80855 8.31018 5.80306 8.31018 5.79748C8.31018 5.7919 8.30877 5.78641 8.30609 5.78152L7.00149 3.35546C6.99879 3.35038 6.99481 3.3461 6.98994 3.34305C6.98508 3.34 6.97951 3.33828 6.97378 3.33806C6.96806 3.33785 6.96237 3.33914 6.9573 3.34182C6.95222 3.3445 6.94794 3.34847 6.94486 3.35333L5.4111 5.78259C5.40781 5.78785 5.40607 5.79393 5.40607 5.80014C5.40607 5.80635 5.40781 5.81244 5.4111 5.81769L6.94486 8.21025Z" stroke="#888888" stroke-width="0.0868578"/>
<path d="M9.40317 1.88525C9.39526 1.87205 9.38248 1.86252 9.36761 1.85874C9.35275 1.85495 9.337 1.85722 9.32379 1.86503L7.13164 3.15759C7.11866 3.16527 7.10915 3.1777 7.10511 3.19229C7.10106 3.20687 7.10279 3.22245 7.10994 3.23578L8.40078 5.64589C8.40439 5.65273 8.40932 5.65879 8.41528 5.66371C8.42124 5.66863 8.42811 5.67231 8.43549 5.67453C8.44288 5.67676 8.45063 5.67749 8.4583 5.67668C8.46597 5.67587 8.4734 5.67354 8.48017 5.66982L10.8316 4.37248C10.8385 4.36872 10.8446 4.3636 10.8494 4.35742C10.8543 4.35125 10.8579 4.34415 10.86 4.33655C10.8621 4.32895 10.8626 4.321 10.8615 4.31319C10.8605 4.30538 10.8579 4.29787 10.8538 4.2911L9.40317 1.88525Z" stroke="#888888" stroke-width="0.0868578"/>
<path d="M10.7326 4.59964L8.48175 5.84166C8.46446 5.85088 8.45106 5.86418 8.44153 5.88155L7.19515 8.16134C7.19396 8.16365 7.19353 8.16627 7.19393 8.16884C7.19433 8.17141 7.19552 8.17378 7.19735 8.17562C7.19918 8.17745 7.20154 8.17866 7.20409 8.17905C7.20665 8.17945 7.20926 8.17902 7.21156 8.17783C7.92145 7.78528 8.63012 7.38315 9.33755 6.97145C9.40176 6.93421 9.45257 6.88333 9.48997 6.81879C9.91337 6.08971 10.3354 5.35815 10.7559 4.6241C10.7767 4.58793 10.769 4.57978 10.7326 4.59964Z" stroke="#828282" stroke-width="0.0868578"/>
<path d="M8.13299 15.7075C8.52887 16.5316 8.9258 17.3405 9.3238 18.1341C9.34497 18.177 9.37619 18.1864 9.41747 18.1623L11.8076 16.7469C11.8124 16.744 11.8167 16.7402 11.8201 16.7357C11.8235 16.7312 11.826 16.726 11.8274 16.7205C11.8289 16.715 11.8292 16.7093 11.8284 16.7037C11.8276 16.6981 11.8258 16.6927 11.8229 16.6878L10.4373 14.291C10.4318 14.2814 10.4228 14.2744 10.4122 14.2713C10.4015 14.2682 10.3901 14.2694 10.3802 14.2745L8.0843 15.5006C8.06454 15.5112 8.05837 15.5272 8.06578 15.5484C8.0813 15.5938 8.1037 15.6469 8.13299 15.7075Z" stroke="#828282" stroke-width="0.0868578"/>
<path d="M8.17535 15.2773C8.9664 14.861 9.67047 14.4844 10.2876 14.1475C10.3525 14.112 10.4042 14.0626 10.4426 13.9991C10.8675 13.3023 11.2843 12.603 11.6933 11.9012C11.7183 11.8583 11.709 11.8487 11.6652 11.8725L9.41167 13.0964C9.38781 13.1093 9.36801 13.1286 9.35451 13.1523L8.15788 15.2587C8.14271 15.2852 8.14853 15.2915 8.17535 15.2773Z" stroke="#888888" stroke-width="0.0868578"/>
<path d="M9.56777 1.80751C9.56498 1.80751 9.56224 1.80824 9.55982 1.80964C9.55741 1.81104 9.5554 1.81306 9.55401 1.81548C9.55261 1.81791 9.55188 1.82066 9.55188 1.82346C9.55188 1.82627 9.55261 1.82902 9.55401 1.83145L11.0258 4.28836C11.0272 4.29079 11.0292 4.2928 11.0317 4.2942C11.0341 4.29561 11.0368 4.29634 11.0396 4.29634L13.8314 4.29687C13.8343 4.29693 13.8371 4.29621 13.8396 4.29478C13.8421 4.29336 13.8441 4.29128 13.8455 4.28877C13.847 4.28626 13.8477 4.28341 13.8476 4.28053C13.8475 4.27765 13.8467 4.27484 13.8451 4.2724L12.3696 1.81389C12.3682 1.81147 12.3662 1.80945 12.3638 1.80805C12.3614 1.80665 12.3586 1.80591 12.3558 1.80591L9.56777 1.80751Z" stroke="#888888" stroke-width="0.0868578"/>
<path d="M12.3532 6.89634C12.3579 6.8963 12.3625 6.89505 12.3666 6.89273C12.3706 6.8904 12.3741 6.88706 12.3765 6.88304L13.8393 4.4825C13.8419 4.47829 13.8433 4.47347 13.8433 4.46853C13.8434 4.4636 13.8422 4.45874 13.8397 4.45445C13.8373 4.45016 13.8338 4.44661 13.8295 4.44415C13.8253 4.4417 13.8204 4.44043 13.8155 4.44048L11.0528 4.43995C11.048 4.43996 11.0433 4.44124 11.0391 4.44366C11.0349 4.44609 11.0314 4.44958 11.029 4.45378L9.64187 6.85963C9.63946 6.86384 9.63818 6.8686 9.63818 6.87346C9.63818 6.87831 9.63945 6.88308 9.64187 6.88729C9.64428 6.89149 9.64775 6.89498 9.65193 6.89741C9.65611 6.89984 9.66086 6.90112 9.66569 6.90112L12.3532 6.89634Z" stroke="#828282" stroke-width="0.0868578"/>
<path d="M11.9224 16.8602L9.66359 18.1905C9.65929 18.1928 9.65591 18.1966 9.65399 18.2011C9.65207 18.2056 9.65173 18.2106 9.65302 18.2154C9.6543 18.2201 9.65714 18.2243 9.66108 18.2272C9.66502 18.2301 9.66982 18.2316 9.67471 18.2314C10.5074 18.2233 11.3415 18.2211 12.177 18.225C12.3416 18.2261 12.4739 18.2314 12.6126 18.1442C13.2893 17.7194 13.9724 17.2976 14.6618 16.8788C14.6667 16.8757 14.6704 16.871 14.6725 16.8656C14.6746 16.8602 14.6749 16.8543 14.6733 16.8487C14.6718 16.8431 14.6685 16.8381 14.6639 16.8345C14.6594 16.8309 14.6538 16.8289 14.648 16.8288L12.0452 16.8266C12.0011 16.8266 11.9602 16.8378 11.9224 16.8602Z" stroke="#888888" stroke-width="0.0868578"/>
<path d="M13.6065 7.80499C13.2046 7.5557 12.8006 7.30641 12.3945 7.05712C12.3793 7.04773 12.3617 7.04276 12.3437 7.04276L9.8684 7.04116C9.77384 7.04081 9.76625 7.06652 9.84564 7.11829L11.9515 8.48478C11.9629 8.49207 11.976 8.49594 11.9891 8.49595C12.802 8.49879 13.6151 8.49879 14.4284 8.49595C14.4993 8.49595 14.5861 8.52095 14.6681 8.52361C14.7073 8.52467 14.7112 8.51368 14.6798 8.49063C14.3342 8.23425 13.9203 7.99967 13.6065 7.80499Z" stroke="#888888" stroke-width="0.0868578"/>
<path d="M10.5416 14.1389C10.5392 14.143 10.5379 14.1477 10.5379 14.1524C10.5379 14.1572 10.5392 14.1619 10.5416 14.166L11.9298 16.5655C11.9321 16.5694 11.9353 16.5726 11.9392 16.5749C11.9431 16.5772 11.9475 16.5785 11.952 16.5786C11.9565 16.5787 11.961 16.5777 11.965 16.5755C11.969 16.5734 11.9723 16.5703 11.9748 16.5665L13.5202 14.1676C13.5231 14.1633 13.5246 14.1582 13.5246 14.153C13.5246 14.1478 13.5231 14.1427 13.5202 14.1384L11.9753 11.8091C11.9729 11.8053 11.9695 11.8022 11.9655 11.8001C11.9615 11.798 11.9571 11.7969 11.9525 11.797C11.948 11.7971 11.9436 11.7984 11.9398 11.8007C11.9359 11.803 11.9326 11.8063 11.9303 11.8102L10.5416 14.1389Z" stroke="#828282" stroke-width="0.0868578"/>
<path d="M12.477 9.49791C12.3532 9.30288 12.214 9.10164 12.0595 8.89419C12.0333 8.85908 12.0203 8.86352 12.0203 8.90749L12.0272 11.5793C12.0272 11.6029 12.0342 11.6258 12.0473 11.6453L13.4815 13.8032C13.5271 13.8717 13.5496 13.8648 13.5493 13.7825C13.5465 13.0573 13.5461 12.3121 13.5482 11.5469C13.5488 11.2617 13.5657 11.1655 13.4249 10.9623C13.2859 10.7616 12.9699 10.2734 12.477 9.49791Z" stroke="#828282" stroke-width="0.0868578"/>
<path d="M13.6705 14.2288C13.6678 14.2288 13.6651 14.2294 13.6627 14.2307C13.6603 14.232 13.6582 14.2339 13.6567 14.2362L12.1113 16.6421C12.1097 16.6445 12.1088 16.6474 12.1087 16.6504C12.1085 16.6534 12.1092 16.6563 12.1106 16.659C12.112 16.6616 12.1141 16.6638 12.1167 16.6653C12.1192 16.6668 12.1221 16.6676 12.1251 16.6676L14.9497 16.6692C14.9526 16.6692 14.9554 16.6685 14.9579 16.6671C14.9604 16.6657 14.9625 16.6637 14.964 16.6612L16.3548 14.2522C16.3563 14.2496 16.3572 14.2468 16.3572 14.2438C16.3572 14.2409 16.3565 14.238 16.355 14.2354C16.3536 14.2329 16.3514 14.2308 16.3489 14.2293C16.3464 14.2279 16.3435 14.2271 16.3405 14.2272L13.6705 14.2288Z" stroke="#888888" stroke-width="0.0868578"/>
<path d="M16.3157 11.064C16.3215 11.0639 16.3273 11.0623 16.3324 11.0594C16.3374 11.0564 16.3416 11.0521 16.3445 11.047C16.3474 11.0419 16.3489 11.0361 16.3489 11.0302C16.3488 11.0243 16.3472 11.0185 16.3443 11.0134L14.9624 8.66129C14.9595 8.65629 14.9553 8.65214 14.9503 8.64925C14.9453 8.64636 14.9396 8.64483 14.9338 8.6448L12.1457 8.64215C12.1397 8.64209 12.1337 8.64369 12.1285 8.64679C12.1232 8.64988 12.119 8.65435 12.1161 8.65971C12.1132 8.66508 12.1118 8.67113 12.1121 8.67722C12.1124 8.68331 12.1143 8.6892 12.1177 8.69427L13.6647 11.0581C13.6677 11.0627 13.6719 11.0665 13.6768 11.0691C13.6817 11.0717 13.6872 11.0731 13.6927 11.073L16.3157 11.064Z" stroke="#888888" stroke-width="0.0868578"/>
<path d="M14.9254 8.44108C14.9309 8.44449 14.937 8.44675 14.9434 8.44771C14.9499 8.44867 14.9564 8.44833 14.9627 8.44669C14.969 8.44505 14.9748 8.44215 14.98 8.43817C14.9851 8.43419 14.9894 8.42921 14.9926 8.42353L16.3755 5.95012C16.3815 5.93914 16.3831 5.92624 16.3798 5.91413C16.3765 5.90203 16.3687 5.89166 16.358 5.88523L14.0616 4.50438C14.0507 4.4979 14.0377 4.49601 14.0254 4.49909C14.0132 4.50218 14.0026 4.51 13.996 4.52087L12.5363 6.9081C12.533 6.91354 12.5307 6.91959 12.5297 6.92592C12.5286 6.93224 12.5289 6.93871 12.5303 6.94495C12.5318 6.95118 12.5345 6.95706 12.5383 6.96224C12.542 6.96742 12.5468 6.9718 12.5522 6.97512L14.9254 8.44108Z" stroke="#828282" stroke-width="0.0868578"/>
<path d="M16.2713 5.62351C15.8251 4.89479 15.4165 4.13096 14.9984 3.38415C14.967 3.32812 14.9155 3.27918 14.8439 3.23734C14.1417 2.82883 13.4341 2.41677 12.7211 2.00117C12.6579 1.96429 12.6452 1.97723 12.683 2.04C13.1071 2.74674 13.5419 3.47085 13.9876 4.21234C14.0278 4.27901 14.0811 4.33273 14.1474 4.37351C14.8453 4.80011 15.5469 5.22333 16.2522 5.64319C16.2549 5.64459 16.258 5.64508 16.261 5.64459C16.2641 5.64409 16.2668 5.64263 16.269 5.64043C16.2711 5.63823 16.2725 5.63539 16.2729 5.63235C16.2733 5.6293 16.2727 5.62621 16.2713 5.62351Z" stroke="#888888" stroke-width="0.0868578"/>
<path d="M13.7125 11.2168C13.7098 11.2168 13.7071 11.2173 13.7046 11.2184C13.7021 11.2194 13.6998 11.221 13.6979 11.2229C13.696 11.2248 13.6945 11.2271 13.6935 11.2296C13.6924 11.2322 13.6919 11.2349 13.6919 11.2376L13.6968 14.0503C13.6968 14.0531 13.6973 14.0558 13.6984 14.0583C13.6994 14.0608 13.7009 14.0631 13.7029 14.065C13.7048 14.0669 13.707 14.0684 13.7096 14.0695C13.7121 14.0705 13.7147 14.071 13.7175 14.071L16.3965 14.0663C16.3992 14.0663 16.4019 14.0658 16.4044 14.0648C16.4069 14.0637 16.4092 14.0622 16.4111 14.0602C16.413 14.0583 16.4145 14.056 16.4156 14.0535C16.4166 14.051 16.4171 14.0483 16.4171 14.0456L16.4122 11.2328C16.4122 11.2301 16.4117 11.2274 16.4106 11.2249C16.4096 11.2224 16.4081 11.2201 16.4062 11.2181C16.4042 11.2162 16.402 11.2147 16.3994 11.2137C16.3969 11.2126 16.3943 11.2121 16.3915 11.2121L13.7125 11.2168Z" stroke="#888888" stroke-width="0.0868578"/>
<path d="M16.3279 10.7133C16.3716 10.7899 16.4127 10.8584 16.4512 10.9187C16.4559 10.926 16.4624 10.932 16.4701 10.9361C16.4777 10.9403 16.4863 10.9424 16.495 10.9424C16.5037 10.9423 16.5122 10.9401 16.5198 10.9358C16.5274 10.9316 16.5339 10.9255 16.5385 10.9181L17.9363 8.67025C17.9551 8.64013 17.9653 8.60539 17.9657 8.56982C17.9662 8.53426 17.9569 8.49926 17.9389 8.46865L16.5311 6.08674C16.5082 6.04809 16.4861 6.04844 16.4649 6.0878C16.0391 6.87362 15.5956 7.66334 15.1344 8.45695C15.0924 8.52929 15.0926 8.60092 15.1349 8.67185C15.5407 9.34773 15.9383 10.0282 16.3279 10.7133Z" stroke="#828282" stroke-width="0.0868578"/>
<path d="M17.9564 8.9225L16.6242 11.0783C16.5938 11.1273 16.5779 11.184 16.5782 11.2416L16.583 13.8283C16.583 13.833 16.5846 13.8376 16.5874 13.8413C16.5901 13.8451 16.594 13.8479 16.5985 13.8493C16.6029 13.8507 16.6077 13.8507 16.6121 13.8492C16.6166 13.8477 16.6204 13.8449 16.6232 13.8411C16.6782 13.764 16.7248 13.648 16.7618 13.5895C17.1623 12.9622 17.5559 12.3307 17.9426 11.6948C17.98 11.6338 17.999 11.5344 17.9998 11.3964C18.004 10.561 18.0035 9.7404 17.9982 8.93473C17.9978 8.88189 17.9839 8.87782 17.9564 8.9225Z" stroke="#828282" stroke-width="0.0868578"/>
<path d="M0.83412 11.1585L0.835708 8.42607C0.835592 8.42292 0.836324 8.41979 0.837825 8.41702L2.16359 6.12128C2.16547 6.11779 2.16846 6.11505 2.17209 6.11349C2.17572 6.11193 2.17977 6.11165 2.18357 6.1127C2.18738 6.11375 2.19071 6.11606 2.19305 6.11926C2.19538 6.12246 2.19656 6.12636 2.1964 6.13032L2.19535 8.86702C2.19546 8.87017 2.19473 8.8733 2.19323 8.87607L0.866933 11.1676C0.865056 11.171 0.86206 11.1738 0.858432 11.1753C0.854804 11.1769 0.850758 11.1772 0.846953 11.1761C0.843149 11.1751 0.839809 11.1728 0.837479 11.1696C0.835149 11.1664 0.833965 11.1625 0.83412 11.1585Z" fill="white"/>
<path d="M2.28901 9.12341L3.54809 11.4904C3.55073 11.4955 3.55211 11.5012 3.55211 11.5069C3.55211 11.5127 3.55073 11.5183 3.54809 11.5234L2.28901 13.9314C2.28607 13.9371 2.28164 13.9419 2.2762 13.9453C2.27076 13.9487 2.2645 13.9506 2.2581 13.9507C2.25169 13.9508 2.24538 13.9492 2.23982 13.9459C2.23427 13.9427 2.22969 13.9381 2.22656 13.9325L0.856862 11.525C0.85375 11.5196 0.852112 11.5134 0.852112 11.5072C0.852112 11.5009 0.85375 11.4948 0.856862 11.4894L2.22709 9.12235C2.23025 9.11686 2.23482 9.11232 2.24032 9.10921C2.24582 9.10609 2.25205 9.1045 2.25836 9.10461C2.26467 9.10472 2.27084 9.10652 2.27623 9.10982C2.28161 9.11313 2.28603 9.11782 2.28901 9.12341Z" fill="white"/>
<path d="M2.33771 5.91102L2.33771 8.79719C2.33771 8.81805 2.35453 8.83496 2.37528 8.83496L5.20041 8.83496C5.22116 8.83496 5.23799 8.81805 5.23799 8.79719L5.23799 5.91102C5.23799 5.89017 5.22116 5.87326 5.20041 5.87326L2.37528 5.87326C2.35453 5.87326 2.33771 5.89017 2.33771 5.91102Z" fill="#F3F3F3"/>
<path d="M3.70526 11.6345L6.09216 13.0658C6.09658 13.0685 6.10043 13.0719 6.10348 13.0761C6.10653 13.0802 6.10871 13.085 6.1099 13.09C6.11108 13.095 6.11125 13.1002 6.11038 13.1053C6.10952 13.1104 6.10764 13.1152 6.10487 13.1196L4.67801 15.3579C4.67287 15.3661 4.66481 15.372 4.65548 15.3745C4.64615 15.3769 4.63623 15.3758 4.62773 15.3712L2.39537 14.1414C2.38657 14.1365 2.38002 14.1284 2.37715 14.1187C2.37427 14.1091 2.3753 14.0987 2.38002 14.0898L3.65233 11.6494C3.65476 11.6448 3.65807 11.6408 3.66208 11.6376C3.66608 11.6343 3.67069 11.632 3.67564 11.6306C3.68058 11.6292 3.68575 11.6288 3.69084 11.6295C3.69593 11.6301 3.70083 11.6318 3.70526 11.6345Z" fill="white"/>
<path d="M3.66135 11.3904L2.41921 9.04044C2.40686 9.01668 2.41338 9.00108 2.43879 8.99363C2.44479 8.99221 2.45661 8.99133 2.47425 8.99097C3.39408 8.9775 4.31003 8.9743 5.2221 8.9814C5.23648 8.98141 5.25062 8.98519 5.26314 8.99237C5.27567 8.99955 5.28614 9.00988 5.29355 9.02235L6.686 11.3681C6.7107 11.4092 6.69923 11.4298 6.6516 11.4298L3.72962 11.4314C3.69893 11.4314 3.67617 11.4177 3.66135 11.3904Z" fill="#F3F3F3"/>
<path d="M5.25544 5.73242L2.43772 5.73083C2.43347 5.73082 2.42929 5.72967 2.42563 5.72749C2.42196 5.72531 2.41895 5.72218 2.41689 5.71844C2.41484 5.71469 2.41383 5.71046 2.41395 5.70618C2.41408 5.70191 2.41534 5.69774 2.41761 5.69412L3.97466 3.23295C3.9768 3.22954 3.97977 3.22672 3.98328 3.22477C3.9868 3.22282 3.99075 3.22179 3.99477 3.22178L6.80084 3.22923C6.80505 3.22933 6.80916 3.23055 6.81275 3.23277C6.81634 3.23498 6.81928 3.23812 6.82127 3.24185C6.82326 3.24558 6.82423 3.24977 6.82408 3.25401C6.82393 3.25824 6.82267 3.26235 6.82042 3.26593L5.27555 5.72125C5.27341 5.72467 5.27044 5.72748 5.26692 5.72944C5.26341 5.73139 5.25946 5.73242 5.25544 5.73242Z" fill="#F3F3F3"/>
<path d="M5.08234 17.508C4.71751 17.3101 4.3488 17.1195 3.97621 16.9362C3.91217 16.9048 3.84019 16.8255 3.8005 16.7537C3.36369 15.9629 2.92389 15.1766 2.48108 14.3947C2.47933 14.3916 2.47862 14.3881 2.47908 14.3846C2.47953 14.3811 2.48112 14.3779 2.48359 14.3754C2.48607 14.3729 2.48929 14.3713 2.49276 14.3709C2.49623 14.3704 2.49976 14.3711 2.50278 14.3729C3.17493 14.7374 3.84584 15.1106 4.51551 15.4926C4.71133 15.6037 4.82089 15.8601 4.95055 16.0755C5.35102 16.7394 5.7573 17.4053 6.16941 18.0734C6.17106 18.0759 6.1718 18.079 6.17152 18.082C6.17123 18.085 6.16993 18.0878 6.16784 18.09C6.16574 18.0921 6.16297 18.0935 6.15999 18.0939C6.157 18.0943 6.15398 18.0936 6.15142 18.092C5.79894 17.8977 5.44258 17.703 5.08234 17.508Z" fill="#F3F3F3"/>
<path d="M4.01537 11.6596C3.99173 11.6458 3.97886 11.6382 3.97674 11.6368C3.94075 11.6098 3.9471 11.5963 3.99579 11.5963L6.75741 11.5862C6.81205 11.5862 6.86577 11.6017 6.91248 11.6309L8.99507 12.9405C8.99902 12.9429 9.00206 12.9466 9.00371 12.951C9.00536 12.9554 9.00554 12.9602 9.00422 12.9646C9.00289 12.9691 9.00014 12.973 8.99638 12.9758C8.99262 12.9785 8.98807 12.98 8.98342 12.9798L6.31284 12.9814C6.26367 12.9814 6.2155 12.9678 6.17365 12.9421C5.45316 12.5038 4.73374 12.0763 4.01537 11.6596Z" fill="#F3F3F3"/>
<path d="M6.97022 3.07192L4.27794 3.08202C4.27388 3.08215 4.2699 3.08089 4.26664 3.07845C4.26338 3.07601 4.26105 3.07253 4.26 3.06859C4.25896 3.06464 4.25928 3.06046 4.2609 3.05672C4.26252 3.05298 4.26536 3.0499 4.26894 3.04798L6.41451 1.80596C6.41722 1.80429 6.42033 1.80337 6.42351 1.8033L9.06922 1.80277C9.07315 1.80274 9.07699 1.804 9.08014 1.80637C9.08329 1.80874 9.08558 1.81208 9.08666 1.81588C9.08774 1.81969 9.08755 1.82374 9.08612 1.82742C9.08469 1.8311 9.0821 1.83421 9.07875 1.83628L6.97922 3.06926C6.97651 3.07093 6.9734 3.07184 6.97022 3.07192Z" fill="#F3F3F3"/>
<path d="M9.16552 18.2239L6.4399 18.2196C6.43691 18.2196 6.43398 18.2188 6.43138 18.2173C6.42879 18.2158 6.42662 18.2137 6.42508 18.2111L4.8421 15.6021C4.84051 15.5994 4.83965 15.5964 4.8396 15.5933C4.83955 15.5902 4.84032 15.5871 4.84183 15.5844C4.84333 15.5817 4.84552 15.5795 4.84817 15.5779C4.85082 15.5763 4.85384 15.5755 4.85691 15.5755L7.88898 15.5749C7.89225 15.5749 7.89547 15.5757 7.89828 15.5774C7.90109 15.5791 7.90337 15.5816 7.90485 15.5845L9.1814 18.1983C9.18277 18.201 9.18342 18.2041 9.18329 18.2071C9.18316 18.2101 9.18225 18.2131 9.18065 18.2156C9.17906 18.2182 9.17682 18.2203 9.17417 18.2218C9.17152 18.2232 9.16854 18.2239 9.16552 18.2239Z" fill="#F3F3F3"/>
<path d="M7.88312 15.425L4.85477 15.4245C4.85175 15.4245 4.84879 15.4237 4.84619 15.4221C4.84359 15.4206 4.84145 15.4184 4.83999 15.4157C4.83854 15.4131 4.83781 15.41 4.8379 15.407C4.83798 15.404 4.83887 15.401 4.84048 15.3985L6.26098 13.1463C6.2625 13.1439 6.2646 13.1419 6.2671 13.1405C6.2696 13.1391 6.27241 13.1384 6.27527 13.1383L9.16285 13.1336C9.16583 13.1335 9.16877 13.1343 9.17137 13.1358C9.17396 13.1373 9.17612 13.1394 9.17763 13.142C9.17913 13.1446 9.17993 13.1475 9.17993 13.1505C9.17994 13.1535 9.17916 13.1565 9.17767 13.1591L7.89794 15.4165C7.89644 15.4191 7.89428 15.4213 7.89168 15.4228C7.88908 15.4243 7.88612 15.4251 7.88312 15.425Z" fill="white"/>
<path d="M5.53914 9.13985C5.46716 9.01964 5.39307 8.91645 5.39201 8.76698C5.38813 7.88152 5.38654 7.01166 5.38725 6.15741C5.38725 6.08897 5.40577 6.08365 5.44282 6.14145L6.89137 8.40422C6.89927 8.41633 6.90316 8.43085 6.90248 8.44571L6.79028 11.1968C6.79001 11.2006 6.78853 11.2043 6.78608 11.2073C6.78362 11.2102 6.78032 11.2124 6.77665 11.2133C6.77297 11.2143 6.76913 11.214 6.76568 11.2125C6.76223 11.2111 6.75935 11.2086 6.75747 11.2053C6.3563 10.518 5.95019 9.82957 5.53914 9.13985Z" fill="white"/>
<path d="M6.9448 8.21L5.41104 5.81745C5.40775 5.81219 5.40601 5.80611 5.40601 5.7999C5.40601 5.79369 5.40775 5.7876 5.41104 5.78234L6.9448 3.35309C6.94787 3.34823 6.95216 3.34426 6.95724 3.34158C6.96231 3.3389 6.96799 3.3376 6.97372 3.33782C6.97945 3.33803 6.98502 3.33975 6.98988 3.34281C6.99474 3.34586 6.99873 3.35014 7.00143 3.35522L8.30603 5.78128C8.30871 5.78617 8.31012 5.79166 8.31012 5.79724C8.31012 5.80282 8.30871 5.80831 8.30603 5.8132L7.0009 8.20841C6.99811 8.21334 6.99411 8.21746 6.98927 8.22038C6.98444 8.22331 6.97894 8.22492 6.9733 8.22508C6.96766 8.22524 6.96207 8.22394 6.95708 8.2213C6.95209 8.21866 6.94786 8.21477 6.9448 8.21Z" fill="white"/>
<path d="M9.40317 1.88525L10.8538 4.2911C10.8579 4.29787 10.8605 4.30538 10.8615 4.31319C10.8626 4.321 10.8621 4.32895 10.86 4.33655C10.8579 4.34415 10.8543 4.35125 10.8494 4.35742C10.8446 4.3636 10.8385 4.36872 10.8316 4.37248L8.48017 5.66982C8.4734 5.67354 8.46597 5.67587 8.4583 5.67668C8.45063 5.67749 8.44288 5.67676 8.43549 5.67453C8.42811 5.67231 8.42124 5.66863 8.41528 5.66371C8.40932 5.65879 8.40439 5.65273 8.40078 5.64589L7.10994 3.23578C7.10279 3.22245 7.10106 3.20687 7.10511 3.19229C7.10915 3.1777 7.11866 3.16527 7.13164 3.15759L9.32379 1.86503C9.337 1.85722 9.35275 1.85495 9.36761 1.85874C9.38248 1.86252 9.39526 1.87205 9.40317 1.88525Z" fill="white"/>
<path d="M8.48169 5.84166L10.7326 4.59964C10.7689 4.57978 10.7767 4.58793 10.7559 4.6241C10.3353 5.35815 9.91331 6.08971 9.48991 6.81879C9.45251 6.88333 9.4017 6.93421 9.33748 6.97145C8.63006 7.38315 7.92139 7.78528 7.2115 8.17783C7.2092 8.17902 7.20659 8.17945 7.20403 8.17905C7.20148 8.17866 7.19912 8.17745 7.19729 8.17562C7.19546 8.17378 7.19427 8.17141 7.19387 8.16884C7.19347 8.16627 7.1939 8.16365 7.19509 8.16134L8.44147 5.88155C8.45099 5.86418 8.4644 5.85088 8.48169 5.84166Z" fill="#F3F3F3"/>
<path d="M8.13299 15.7075C8.1037 15.6469 8.0813 15.5938 8.06578 15.5484C8.05837 15.5272 8.06454 15.5112 8.0843 15.5006L10.3802 14.2745C10.3901 14.2694 10.4015 14.2682 10.4122 14.2713C10.4228 14.2744 10.4318 14.2814 10.4373 14.291L11.8229 16.6878C11.8258 16.6927 11.8276 16.6981 11.8284 16.7037C11.8292 16.7093 11.8289 16.715 11.8274 16.7205C11.826 16.726 11.8235 16.7312 11.8201 16.7357C11.8167 16.7402 11.8124 16.744 11.8076 16.7469L9.41747 18.1623C9.37619 18.1864 9.34497 18.177 9.3238 18.1341C8.9258 17.3405 8.52887 16.5316 8.13299 15.7075Z" fill="#F3F3F3"/>
<path d="M8.17529 15.277C8.14847 15.2912 8.14265 15.285 8.15782 15.2584L9.35445 13.152C9.36795 13.1284 9.38775 13.109 9.41161 13.0962L11.6651 11.8722C11.7089 11.8485 11.7182 11.8581 11.6932 11.901C11.2843 12.6027 10.8674 13.302 10.4426 13.9988C10.4041 14.0623 10.3524 14.1118 10.2875 14.1472C9.67041 14.4841 8.96633 14.8607 8.17529 15.277Z" fill="white"/>
<path d="M9.56777 1.80751L12.3558 1.80591C12.3586 1.80591 12.3614 1.80665 12.3638 1.80805C12.3662 1.80945 12.3682 1.81147 12.3696 1.81389L13.8451 4.2724C13.8467 4.27484 13.8475 4.27765 13.8476 4.28053C13.8477 4.28341 13.847 4.28626 13.8455 4.28877C13.8441 4.29128 13.8421 4.29336 13.8396 4.29478C13.8371 4.29621 13.8343 4.29693 13.8314 4.29687L11.0396 4.29634C11.0368 4.29634 11.0341 4.29561 11.0317 4.2942C11.0292 4.2928 11.0272 4.29079 11.0258 4.28836L9.55401 1.83145C9.55261 1.82902 9.55188 1.82627 9.55188 1.82346C9.55188 1.82066 9.55261 1.81791 9.55401 1.81548C9.5554 1.81306 9.55741 1.81104 9.55982 1.80964C9.56224 1.80824 9.56498 1.80751 9.56777 1.80751Z" fill="white"/>
<path d="M12.3532 6.89634L9.66566 6.90112C9.66083 6.90112 9.65608 6.89984 9.6519 6.89741C9.64772 6.89498 9.64425 6.89149 9.64184 6.88729C9.63942 6.88308 9.63815 6.87831 9.63815 6.87346C9.63815 6.8686 9.63942 6.86384 9.64184 6.85963L11.029 4.45378C11.0314 4.44958 11.0349 4.44609 11.0391 4.44366C11.0432 4.44124 11.048 4.43996 11.0528 4.43995L13.8155 4.44048C13.8204 4.44043 13.8252 4.4417 13.8295 4.44415C13.8337 4.44661 13.8373 4.45016 13.8397 4.45445C13.8421 4.45874 13.8434 4.4636 13.8433 4.46853C13.8432 4.47347 13.8419 4.47829 13.8393 4.4825L12.3765 6.88304C12.374 6.88706 12.3706 6.8904 12.3665 6.89273C12.3625 6.89505 12.3579 6.8963 12.3532 6.89634Z" fill="#F3F3F3"/>
<path d="M9.66353 18.1905L11.9224 16.8602C11.9601 16.8378 12.001 16.8266 12.0451 16.8266L14.648 16.8288C14.6538 16.8289 14.6593 16.8309 14.6639 16.8345C14.6684 16.8381 14.6717 16.8431 14.6733 16.8487C14.6748 16.8543 14.6745 16.8602 14.6724 16.8656C14.6704 16.871 14.6666 16.8757 14.6617 16.8788C13.9723 17.2976 13.2892 17.7194 12.6125 18.1442C12.4738 18.2314 12.3415 18.2261 12.1769 18.225C11.3414 18.2211 10.5073 18.2233 9.67464 18.2314C9.66976 18.2316 9.66496 18.2301 9.66102 18.2272C9.65708 18.2243 9.65424 18.2201 9.65296 18.2154C9.65167 18.2106 9.65201 18.2056 9.65393 18.2011C9.65585 18.1966 9.65923 18.1928 9.66353 18.1905Z" fill="white"/>
<path d="M13.6064 7.80475C13.9203 7.99943 14.3342 8.234 14.6798 8.49039C14.7112 8.51344 14.7073 8.52443 14.6681 8.52337C14.5861 8.52071 14.4993 8.49571 14.4284 8.49571C13.6151 8.49854 12.802 8.49854 11.9891 8.49571C11.9759 8.4957 11.9629 8.49182 11.9515 8.48454L9.84561 7.11805C9.76622 7.06627 9.77381 7.04056 9.86836 7.04092L12.3437 7.04252C12.3617 7.04252 12.3792 7.04749 12.3945 7.05688C12.8006 7.30617 13.2046 7.55546 13.6064 7.80475Z" fill="white"/>
<path d="M10.5415 14.1389L11.9303 11.8102C11.9326 11.8063 11.9358 11.803 11.9397 11.8007C11.9436 11.7984 11.948 11.7971 11.9525 11.797C11.957 11.7969 11.9615 11.798 11.9654 11.8001C11.9694 11.8022 11.9728 11.8053 11.9753 11.8091L13.5201 14.1384C13.523 14.1427 13.5245 14.1478 13.5245 14.153C13.5245 14.1582 13.523 14.1633 13.5201 14.1676L11.9747 16.5665C11.9723 16.5703 11.9689 16.5734 11.9649 16.5755C11.9609 16.5777 11.9565 16.5787 11.952 16.5786C11.9475 16.5785 11.943 16.5772 11.9392 16.5749C11.9353 16.5726 11.932 16.5694 11.9298 16.5655L10.5415 14.166C10.5391 14.1619 10.5378 14.1572 10.5378 14.1524C10.5378 14.1477 10.5391 14.143 10.5415 14.1389Z" fill="#F3F3F3"/>
<path d="M12.477 9.49791C12.9699 10.2734 13.2859 10.7616 13.4249 10.9623C13.5657 11.1655 13.5488 11.2617 13.5482 11.5469C13.5461 12.3121 13.5465 13.0573 13.5493 13.7825C13.5496 13.8648 13.5271 13.8717 13.4815 13.8032L12.0473 11.6453C12.0342 11.6258 12.0272 11.6029 12.0272 11.5793L12.0203 8.90749C12.0203 8.86352 12.0333 8.85908 12.0595 8.89419C12.214 9.10164 12.3532 9.30288 12.477 9.49791Z" fill="#F3F3F3"/>
<path d="M13.6705 14.2288L16.3405 14.2272C16.3435 14.2271 16.3464 14.2279 16.3489 14.2293C16.3514 14.2308 16.3536 14.2329 16.355 14.2354C16.3565 14.238 16.3572 14.2409 16.3572 14.2438C16.3572 14.2468 16.3563 14.2496 16.3548 14.2522L14.964 16.6612C14.9625 16.6637 14.9604 16.6657 14.9579 16.6671C14.9554 16.6685 14.9526 16.6692 14.9497 16.6692L12.1251 16.6676C12.1221 16.6676 12.1192 16.6668 12.1167 16.6653C12.1141 16.6638 12.112 16.6616 12.1106 16.659C12.1092 16.6563 12.1085 16.6534 12.1087 16.6504C12.1088 16.6474 12.1097 16.6445 12.1113 16.6421L13.6567 14.2362C13.6582 14.2339 13.6603 14.232 13.6627 14.2307C13.6651 14.2294 13.6678 14.2288 13.6705 14.2288Z" fill="white"/>
<path d="M16.3157 11.064L13.6927 11.073C13.6872 11.0731 13.6817 11.0717 13.6768 11.0691C13.6719 11.0665 13.6677 11.0627 13.6647 11.0581L12.1177 8.69427C12.1143 8.6892 12.1124 8.68331 12.1121 8.67722C12.1118 8.67113 12.1132 8.66508 12.1161 8.65971C12.119 8.65435 12.1232 8.64988 12.1285 8.64679C12.1337 8.64369 12.1397 8.64209 12.1457 8.64215L14.9338 8.6448C14.9396 8.64483 14.9453 8.64636 14.9503 8.64925C14.9553 8.65214 14.9595 8.65629 14.9624 8.66129L16.3443 11.0134C16.3472 11.0185 16.3488 11.0243 16.3489 11.0302C16.3489 11.0361 16.3474 11.0419 16.3445 11.047C16.3416 11.0521 16.3374 11.0564 16.3324 11.0594C16.3273 11.0623 16.3215 11.0639 16.3157 11.064Z" fill="white"/>
<path d="M14.9253 8.44108L12.5522 6.97512C12.5467 6.9718 12.542 6.96742 12.5382 6.96224C12.5345 6.95706 12.5318 6.95118 12.5303 6.94495C12.5288 6.93871 12.5286 6.93224 12.5296 6.92592C12.5307 6.91959 12.5329 6.91354 12.5363 6.9081L13.996 4.52087C14.0026 4.51 14.0131 4.50218 14.0254 4.49909C14.0377 4.49601 14.0507 4.4979 14.0616 4.50438L16.358 5.88523C16.3687 5.89166 16.3765 5.90203 16.3798 5.91413C16.383 5.92624 16.3815 5.93914 16.3755 5.95012L14.9925 8.42353C14.9894 8.42921 14.9851 8.43419 14.9799 8.43817C14.9748 8.44215 14.9689 8.44505 14.9627 8.44669C14.9564 8.44833 14.9498 8.44867 14.9434 8.44771C14.937 8.44675 14.9309 8.44449 14.9253 8.44108Z" fill="#F3F3F3"/>
<path d="M14.9984 3.3839C15.4165 4.13071 15.825 4.89454 16.2712 5.62327C16.2727 5.62596 16.2732 5.62906 16.2728 5.6321C16.2724 5.63515 16.271 5.63798 16.2689 5.64018C16.2668 5.64239 16.264 5.64384 16.261 5.64434C16.258 5.64484 16.2549 5.64435 16.2521 5.64295C15.5468 5.22309 14.8452 4.79986 14.1473 4.37327C14.081 4.33249 14.0277 4.27876 13.9875 4.2121C13.5419 3.47061 13.107 2.74649 12.6829 2.03976C12.6451 1.97699 12.6578 1.96405 12.721 2.00093C13.4341 2.41653 14.1417 2.82858 14.8438 3.2371C14.9154 3.27894 14.967 3.32788 14.9984 3.3839Z" fill="white"/>
<path d="M13.6918 11.2375L13.6967 14.0503C13.6967 14.0618 13.706 14.071 13.7174 14.071L16.3964 14.0663C16.4078 14.0663 16.4171 14.057 16.417 14.0455L16.4122 11.2328C16.4121 11.2213 16.4029 11.212 16.3915 11.2121L13.7124 11.2168C13.701 11.2168 13.6918 11.2261 13.6918 11.2375Z" fill="white"/>
<path d="M16.3278 10.7133C15.9383 10.0282 15.5407 9.34773 15.1349 8.67185C15.0926 8.60092 15.0924 8.52929 15.1344 8.45695C15.5955 7.66334 16.039 6.87362 16.4649 6.0878C16.4861 6.04844 16.5081 6.04809 16.5311 6.08674L17.9389 8.46865C17.9569 8.49926 17.9662 8.53426 17.9657 8.56982C17.9652 8.60539 17.955 8.64013 17.9362 8.67025L16.5385 10.9181C16.5338 10.9255 16.5274 10.9316 16.5198 10.9358C16.5122 10.9401 16.5037 10.9423 16.495 10.9424C16.4863 10.9424 16.4777 10.9403 16.47 10.9361C16.4624 10.932 16.4559 10.926 16.4512 10.9187C16.4127 10.8584 16.3716 10.7899 16.3278 10.7133Z" fill="#F3F3F3"/>
<path d="M16.6242 11.0783L17.9563 8.9225C17.9838 8.87782 17.9978 8.88189 17.9981 8.93473C18.0034 9.7404 18.004 10.561 17.9997 11.3964C17.999 11.5344 17.98 11.6338 17.9426 11.6948C17.5559 12.3307 17.1623 12.9622 16.7618 13.5895C16.7248 13.648 16.6782 13.764 16.6231 13.8411C16.6204 13.8449 16.6165 13.8477 16.6121 13.8492C16.6077 13.8507 16.6029 13.8507 16.5985 13.8493C16.594 13.8479 16.5901 13.8451 16.5873 13.8413C16.5845 13.8376 16.583 13.833 16.5829 13.8283L16.5782 11.2416C16.5778 11.184 16.5938 11.1273 16.6242 11.0783Z" fill="#F3F3F3"/>
<path d="M26.792 11.2881H24.2012V9.92773H26.792C27.2432 9.92773 27.6077 9.85482 27.8857 9.70898C28.1637 9.56315 28.3665 9.36263 28.4941 9.10742C28.6263 8.84766 28.6924 8.55143 28.6924 8.21875C28.6924 7.9043 28.6263 7.61035 28.4941 7.33691C28.3665 7.05892 28.1637 6.83561 27.8857 6.66699C27.6077 6.49837 27.2432 6.41406 26.792 6.41406H24.7275V15H23.0117V5.04688H26.792C27.5622 5.04688 28.2161 5.18359 28.7539 5.45703C29.2962 5.72591 29.7087 6.09961 29.9912 6.57812C30.2738 7.05208 30.415 7.5944 30.415 8.20508C30.415 8.84766 30.2738 9.39909 29.9912 9.85938C29.7087 10.3197 29.2962 10.6729 28.7539 10.9189C28.2161 11.165 27.5622 11.2881 26.792 11.2881ZM31.8689 11.3838V11.2266C31.8689 10.6934 31.9464 10.1989 32.1013 9.74316C32.2563 9.28288 32.4796 8.88411 32.7712 8.54688C33.0675 8.20508 33.4275 7.94076 33.8513 7.75391C34.2797 7.5625 34.7628 7.4668 35.3005 7.4668C35.8429 7.4668 36.3259 7.5625 36.7498 7.75391C37.1782 7.94076 37.5405 8.20508 37.8367 8.54688C38.1329 8.88411 38.3585 9.28288 38.5134 9.74316C38.6684 10.1989 38.7459 10.6934 38.7459 11.2266V11.3838C38.7459 11.917 38.6684 12.4115 38.5134 12.8672C38.3585 13.3229 38.1329 13.7217 37.8367 14.0635C37.5405 14.4007 37.1804 14.665 36.7566 14.8564C36.3328 15.0433 35.852 15.1367 35.3142 15.1367C34.7719 15.1367 34.2865 15.0433 33.8582 14.8564C33.4343 14.665 33.0743 14.4007 32.7781 14.0635C32.4819 13.7217 32.2563 13.3229 32.1013 12.8672C31.9464 12.4115 31.8689 11.917 31.8689 11.3838ZM33.5164 11.2266V11.3838C33.5164 11.7165 33.5505 12.0309 33.6189 12.3271C33.6873 12.6234 33.7944 12.8831 33.9402 13.1064C34.086 13.3298 34.2729 13.5052 34.5007 13.6328C34.7286 13.7604 34.9998 13.8242 35.3142 13.8242C35.6196 13.8242 35.8839 13.7604 36.1072 13.6328C36.3351 13.5052 36.5219 13.3298 36.6677 13.1064C36.8136 12.8831 36.9207 12.6234 36.989 12.3271C37.0619 12.0309 37.0984 11.7165 37.0984 11.3838V11.2266C37.0984 10.8984 37.0619 10.5885 36.989 10.2969C36.9207 10.0007 36.8113 9.73861 36.6609 9.51074C36.5151 9.28288 36.3282 9.10514 36.1004 8.97754C35.877 8.84538 35.6104 8.7793 35.3005 8.7793C34.9907 8.7793 34.7218 8.84538 34.4939 8.97754C34.2706 9.10514 34.086 9.28288 33.9402 9.51074C33.7944 9.73861 33.6873 10.0007 33.6189 10.2969C33.5505 10.5885 33.5164 10.8984 33.5164 11.2266ZM42.6265 13.3594L44.3355 7.60352H45.3882L45.1011 9.32617L43.3784 15H42.4351L42.6265 13.3594ZM41.6216 7.60352L42.9546 13.3867L43.064 15H42.0112L40.0083 7.60352H41.6216ZM46.9878 13.3184L48.2798 7.60352H49.8862L47.8902 15H46.8374L46.9878 13.3184ZM45.5659 7.60352L47.2544 13.291L47.4663 15H46.523L44.7798 9.31934L44.4927 7.60352H45.5659ZM54.7581 15.1367C54.2112 15.1367 53.7167 15.0479 53.2747 14.8701C52.8372 14.6878 52.4635 14.4349 52.1536 14.1113C51.8483 13.7878 51.6136 13.4072 51.4495 12.9697C51.2854 12.5322 51.2034 12.0605 51.2034 11.5547V11.2812C51.2034 10.7025 51.2877 10.1784 51.4563 9.70898C51.6249 9.23958 51.8596 8.83854 52.1604 8.50586C52.4612 8.16862 52.8167 7.91113 53.2268 7.7334C53.637 7.55566 54.0813 7.4668 54.5598 7.4668C55.0885 7.4668 55.5511 7.55566 55.9475 7.7334C56.344 7.91113 56.6721 8.16178 56.9319 8.48535C57.1962 8.80436 57.3922 9.1849 57.5198 9.62695C57.652 10.069 57.718 10.5566 57.718 11.0898V11.7939H52.0032V10.6113H56.0911V10.4814C56.082 10.1852 56.0227 9.90723 55.9134 9.64746C55.8085 9.3877 55.6468 9.17806 55.428 9.01855C55.2093 8.85905 54.9176 8.7793 54.553 8.7793C54.2796 8.7793 54.0358 8.83854 53.8216 8.95703C53.6119 9.07096 53.4365 9.2373 53.2952 9.45605C53.1539 9.6748 53.0445 9.93913 52.9671 10.249C52.8942 10.5544 52.8577 10.8984 52.8577 11.2812V11.5547C52.8577 11.8783 52.901 12.179 52.9876 12.457C53.0787 12.7305 53.2109 12.9697 53.3841 13.1748C53.5572 13.3799 53.7669 13.5417 54.013 13.6602C54.2591 13.7741 54.5393 13.8311 54.8538 13.8311C55.2503 13.8311 55.6035 13.7513 55.9134 13.5918C56.2233 13.4323 56.4921 13.2067 56.72 12.915L57.5882 13.7559C57.4287 13.9883 57.2213 14.2116 56.9661 14.4258C56.7109 14.6354 56.3987 14.8063 56.0296 14.9385C55.665 15.0706 55.2412 15.1367 54.7581 15.1367ZM61.1475 9.01172V15H59.5V7.60352H61.0723L61.1475 9.01172ZM63.4102 7.55566L63.3965 9.08691C63.2963 9.06868 63.1869 9.05501 63.0684 9.0459C62.9545 9.03678 62.8405 9.03223 62.7266 9.03223C62.444 9.03223 62.1957 9.07324 61.9815 9.15527C61.7673 9.23275 61.5873 9.34668 61.4414 9.49707C61.3002 9.6429 61.1908 9.82064 61.1133 10.0303C61.0358 10.2399 60.9903 10.4746 60.9766 10.7344L60.6006 10.7617C60.6006 10.2969 60.6462 9.86621 60.7373 9.46973C60.8285 9.07324 60.9652 8.72461 61.1475 8.42383C61.3343 8.12305 61.5668 7.88835 61.8448 7.71973C62.1273 7.55111 62.4532 7.4668 62.8223 7.4668C62.9226 7.4668 63.0297 7.47591 63.1436 7.49414C63.2621 7.51237 63.3509 7.53288 63.4102 7.55566ZM68.8768 11.2881H66.2859V9.92773H68.8768C69.3279 9.92773 69.6925 9.85482 69.9705 9.70898C70.2485 9.56315 70.4513 9.36263 70.5789 9.10742C70.7111 8.84766 70.7771 8.55143 70.7771 8.21875C70.7771 7.9043 70.7111 7.61035 70.5789 7.33691C70.4513 7.05892 70.2485 6.83561 69.9705 6.66699C69.6925 6.49837 69.3279 6.41406 68.8768 6.41406H66.8123V15H65.0965V5.04688H68.8768C69.6469 5.04688 70.3009 5.18359 70.8387 5.45703C71.381 5.72591 71.7934 6.09961 72.076 6.57812C72.3585 7.05208 72.4998 7.5944 72.4998 8.20508C72.4998 8.84766 72.3585 9.39909 72.076 9.85938C71.7934 10.3197 71.381 10.6729 70.8387 10.9189C70.3009 11.165 69.6469 11.2881 68.8768 11.2881ZM73.9537 11.3838V11.2266C73.9537 10.6934 74.0311 10.1989 74.1861 9.74316C74.341 9.28288 74.5643 8.88411 74.856 8.54688C75.1522 8.20508 75.5123 7.94076 75.9361 7.75391C76.3645 7.5625 76.8476 7.4668 77.3853 7.4668C77.9276 7.4668 78.4107 7.5625 78.8345 7.75391C79.2629 7.94076 79.6252 8.20508 79.9214 8.54688C80.2177 8.88411 80.4433 9.28288 80.5982 9.74316C80.7531 10.1989 80.8306 10.6934 80.8306 11.2266V11.3838C80.8306 11.917 80.7531 12.4115 80.5982 12.8672C80.4433 13.3229 80.2177 13.7217 79.9214 14.0635C79.6252 14.4007 79.2652 14.665 78.8414 14.8564C78.4175 15.0433 77.9367 15.1367 77.399 15.1367C76.8567 15.1367 76.3713 15.0433 75.9429 14.8564C75.5191 14.665 75.1591 14.4007 74.8629 14.0635C74.5666 13.7217 74.341 13.3229 74.1861 12.8672C74.0311 12.4115 73.9537 11.917 73.9537 11.3838ZM75.6011 11.2266V11.3838C75.6011 11.7165 75.6353 12.0309 75.7037 12.3271C75.772 12.6234 75.8791 12.8831 76.025 13.1064C76.1708 13.3298 76.3576 13.5052 76.5855 13.6328C76.8134 13.7604 77.0845 13.8242 77.399 13.8242C77.7043 13.8242 77.9686 13.7604 78.192 13.6328C78.4198 13.5052 78.6067 13.3298 78.7525 13.1064C78.8983 12.8831 79.0054 12.6234 79.0738 12.3271C79.1467 12.0309 79.1832 11.7165 79.1832 11.3838V11.2266C79.1832 10.8984 79.1467 10.5885 79.0738 10.2969C79.0054 10.0007 78.8961 9.73861 78.7457 9.51074C78.5998 9.28288 78.413 9.10514 78.1851 8.97754C77.9618 8.84538 77.6952 8.7793 77.3853 8.7793C77.0754 8.7793 76.8065 8.84538 76.5787 8.97754C76.3554 9.10514 76.1708 9.28288 76.025 9.51074C75.8791 9.73861 75.772 10.0007 75.7037 10.2969C75.6353 10.5885 75.6011 10.8984 75.6011 11.2266ZM82.387 11.3838V11.2266C82.387 10.6934 82.4645 10.1989 82.6195 9.74316C82.7744 9.28288 82.9977 8.88411 83.2894 8.54688C83.5856 8.20508 83.9456 7.94076 84.3695 7.75391C84.7978 7.5625 85.2809 7.4668 85.8187 7.4668C86.361 7.4668 86.8441 7.5625 87.2679 7.75391C87.6963 7.94076 88.0586 8.20508 88.3548 8.54688C88.651 8.88411 88.8766 9.28288 89.0316 9.74316C89.1865 10.1989 89.264 10.6934 89.264 11.2266V11.3838C89.264 11.917 89.1865 12.4115 89.0316 12.8672C88.8766 13.3229 88.651 13.7217 88.3548 14.0635C88.0586 14.4007 87.6986 14.665 87.2747 14.8564C86.8509 15.0433 86.3701 15.1367 85.8323 15.1367C85.29 15.1367 84.8047 15.0433 84.3763 14.8564C83.9525 14.665 83.5924 14.4007 83.2962 14.0635C83 13.7217 82.7744 13.3229 82.6195 12.8672C82.4645 12.4115 82.387 11.917 82.387 11.3838ZM84.0345 11.2266V11.3838C84.0345 11.7165 84.0687 12.0309 84.137 12.3271C84.2054 12.6234 84.3125 12.8831 84.4583 13.1064C84.6042 13.3298 84.791 13.5052 85.0189 13.6328C85.2467 13.7604 85.5179 13.8242 85.8323 13.8242C86.1377 13.8242 86.402 13.7604 86.6253 13.6328C86.8532 13.5052 87.04 13.3298 87.1859 13.1064C87.3317 12.8831 87.4388 12.6234 87.5071 12.3271C87.5801 12.0309 87.6165 11.7165 87.6165 11.3838V11.2266C87.6165 10.8984 87.5801 10.5885 87.5071 10.2969C87.4388 10.0007 87.3294 9.73861 87.179 9.51074C87.0332 9.28288 86.8463 9.10514 86.6185 8.97754C86.3952 8.84538 86.1286 8.7793 85.8187 8.7793C85.5088 8.7793 85.2399 8.84538 85.012 8.97754C84.7887 9.10514 84.6042 9.28288 84.4583 9.51074C84.3125 9.73861 84.2054 10.0007 84.137 10.2969C84.0687 10.5885 84.0345 10.8984 84.0345 11.2266ZM92.8985 4.5V15H91.2442V4.5H92.8985Z" fill="white"/>
</svg>
