<svg width="654" height="379" viewBox="0 0 654 379" fill="none" xmlns="http://www.w3.org/2000/svg">
<line x1="356.488" y1="2.56699" x2="645.442" y2="169.394" stroke="#AFAFAF" stroke-dasharray="2 10"/>
<line x1="343.63" y1="17.0493" x2="474.841" y2="244.314" stroke="#AFAFAF" stroke-dasharray="2 10"/>
<line x1="325.5" y1="23.4136" x2="325.5" y2="354.414" stroke="#AFAFAF" stroke-dasharray="2 10"/>
<line x1="306.413" y1="17.6522" x2="155.452" y2="279.124" stroke="#AFAFAF" stroke-dasharray="2 10"/>
<line x1="291.942" y1="0.741606" x2="37.1579" y2="147.842" stroke="#AFAFAF" stroke-dasharray="2 10"/>
<circle cx="475.079" cy="244.493" r="24.0792" fill="black"/>
<path fill-rule="evenodd" clip-rule="evenodd" d="M457.02 244.493C457.02 234.518 465.105 226.433 475.079 226.433C465.105 226.433 457.02 234.519 457.02 244.493ZM475.079 226.433C485.054 226.433 493.139 234.518 493.139 244.493C493.139 234.519 485.053 226.433 475.079 226.433ZM474.951 235.549L467.754 239.689L474.951 243.848L482.129 239.698L474.951 235.549ZM486.076 237.398L482.4 239.542L486.108 237.398V250.298L482.206 247.997V244.256L474.962 248.449L467.738 244.277V247.997L474.951 252.147L482.132 247.997L486.076 250.298L474.951 256.747L463.792 250.298V237.398L474.951 230.948L486.076 237.398Z" fill="#FCFCFC"/>
<circle cx="629.079" cy="157.079" r="24.0792" fill="black"/>
<path fill-rule="evenodd" clip-rule="evenodd" d="M611.02 157.079C611.02 147.105 619.105 139.02 629.079 139.02C619.105 139.02 611.02 147.105 611.02 157.079ZM629.079 139.02C639.054 139.02 647.139 147.105 647.139 157.079C647.139 147.105 639.053 139.02 629.079 139.02ZM628.951 148.135L621.754 152.275L628.951 156.435L636.129 152.284L628.951 148.135ZM640.076 149.984L636.4 152.129L640.108 149.984V162.884L636.206 160.584V156.842L628.962 161.035L621.738 156.864V160.584L628.951 164.733L636.132 160.584L640.076 162.884L628.951 169.334L617.792 162.884V149.984L628.951 143.535L640.076 149.984Z" fill="#FCFCFC"/>
<circle cx="155.079" cy="278.493" r="24.0792" fill="black"/>
<path fill-rule="evenodd" clip-rule="evenodd" d="M137.02 278.493C137.02 268.518 145.105 260.433 155.079 260.433C145.105 260.433 137.02 268.519 137.02 278.493ZM155.079 260.433C165.054 260.433 173.139 268.518 173.139 278.493C173.139 268.519 165.053 260.433 155.079 260.433ZM154.951 269.549L147.754 273.689L154.951 277.848L162.129 273.698L154.951 269.549ZM166.076 271.398L162.4 273.542L166.108 271.398V284.298L162.206 281.997V278.256L154.962 282.449L147.738 278.277V281.997L154.951 286.147L162.132 281.997L166.076 284.298L154.951 290.747L143.792 284.298V271.398L154.951 264.948L166.076 271.398Z" fill="#FCFCFC"/>
<circle cx="24.0792" cy="151.079" r="24.0792" fill="black"/>
<path fill-rule="evenodd" clip-rule="evenodd" d="M6.02002 151.079C6.02002 141.105 14.105 133.02 24.0794 133.02C14.1055 133.02 6.02002 141.105 6.02002 151.079ZM24.0794 133.02C34.0539 133.02 42.1388 141.105 42.1388 151.079C42.1388 141.105 34.0534 133.02 24.0794 133.02ZM23.9508 142.135L16.7541 146.275L23.9508 150.435L31.1294 146.284L23.9508 142.135ZM35.0765 143.984L31.4003 146.129L35.1081 143.984V156.884L31.2061 154.584V150.842L23.962 155.035L16.7383 150.864V154.584L23.9508 158.733L31.1316 154.584L35.0765 156.884L23.9508 163.334L12.7923 156.884V143.984L23.9508 137.535L35.0765 143.984Z" fill="#FCFCFC"/>
<circle cx="325.079" cy="354.493" r="24.0792" fill="black"/>
<path fill-rule="evenodd" clip-rule="evenodd" d="M307.02 354.493C307.02 344.518 315.105 336.433 325.079 336.433C315.105 336.433 307.02 344.519 307.02 354.493ZM325.079 336.433C335.054 336.433 343.139 344.518 343.139 354.493C343.139 344.519 335.053 336.433 325.079 336.433ZM324.951 345.549L317.754 349.689L324.951 353.848L332.129 349.698L324.951 345.549ZM336.076 347.398L332.4 349.542L336.108 347.398V360.298L332.206 357.997V354.256L324.962 358.449L317.738 354.277V357.997L324.951 362.147L332.132 357.997L336.076 360.298L324.951 366.747L313.792 360.298V347.398L324.951 340.948L336.076 347.398Z" fill="#FCFCFC"/>
<circle cx="325.079" cy="199.493" r="24.0792" fill="black"/>
<path fill-rule="evenodd" clip-rule="evenodd" d="M307.02 199.493C307.02 189.518 315.105 181.433 325.079 181.433C315.105 181.433 307.02 189.519 307.02 199.493ZM325.079 181.433C335.054 181.433 343.139 189.518 343.139 199.493C343.139 189.519 335.053 181.433 325.079 181.433ZM324.951 190.549L317.754 194.689L324.951 198.848L332.129 194.698L324.951 190.549ZM336.076 192.398L332.4 194.542L336.108 192.398V205.298L332.206 202.997V199.256L324.962 203.449L317.738 199.277V202.997L324.951 207.147L332.132 202.997L336.076 205.298L324.951 211.747L313.792 205.298V192.398L324.951 185.948L336.076 192.398Z" fill="#FCFCFC"/>
<circle cx="392.079" cy="100.493" r="24.0792" fill="black"/>
<path fill-rule="evenodd" clip-rule="evenodd" d="M374.02 100.493C374.02 90.5183 382.105 82.4333 392.079 82.4333C382.105 82.4333 374.02 90.5188 374.02 100.493ZM392.079 82.4333C402.054 82.4333 410.139 90.5183 410.139 100.493C410.139 90.5188 402.053 82.4333 392.079 82.4333ZM391.951 91.5488L384.754 95.689L391.951 99.8483L399.129 95.698L391.951 91.5488ZM403.076 93.3977L399.4 95.5422L403.108 93.3977V106.298L399.206 103.997V100.256L391.962 104.449L384.738 100.277V103.997L391.951 108.147L399.132 103.997L403.076 106.298L391.951 112.747L380.792 106.298V93.3977L391.951 86.9482L403.076 93.3977Z" fill="#FCFCFC"/>
<circle cx="525.079" cy="100.079" r="24.0792" fill="black"/>
<path fill-rule="evenodd" clip-rule="evenodd" d="M507.02 100.079C507.02 90.1047 515.105 82.0198 525.079 82.0198C515.105 82.0198 507.02 90.1052 507.02 100.079ZM525.079 82.0198C535.054 82.0198 543.139 90.1047 543.139 100.079C543.139 90.1052 535.053 82.0198 525.079 82.0198ZM524.951 91.1353L517.754 95.2754L524.951 99.4347L532.129 95.2844L524.951 91.1353ZM536.076 92.9841L532.4 95.1286L536.108 92.9841V105.884L532.206 103.584V99.8422L524.962 104.035L517.738 99.8636V103.584L524.951 107.733L532.132 103.584L536.076 105.884L524.951 112.334L513.792 105.884V92.9841L524.951 86.5346L536.076 92.9841Z" fill="#FCFCFC"/>
<circle cx="176.079" cy="71.4928" r="24.0792" fill="black"/>
<path fill-rule="evenodd" clip-rule="evenodd" d="M158.02 71.4928C158.02 61.5183 166.105 53.4333 176.079 53.4333C166.105 53.4333 158.02 61.5188 158.02 71.4928ZM176.079 53.4333C186.054 53.4333 194.139 61.5183 194.139 71.4928C194.139 61.5188 186.053 53.4333 176.079 53.4333ZM175.951 62.5488L168.754 66.689L175.951 70.8483L183.129 66.698L175.951 62.5488ZM187.076 64.3977L183.4 66.5422L187.108 64.3977V77.2977L183.206 74.9974V71.2557L175.962 75.4489L168.738 71.2772V74.9974L175.951 79.1466L183.132 74.9974L187.076 77.2977L175.951 83.7472L164.792 77.2977V64.3977L175.951 57.9482L187.076 64.3977Z" fill="#FCFCFC"/>
</svg>
