<svg width="161" height="130" viewBox="0 0 161 130" fill="none" xmlns="http://www.w3.org/2000/svg">
<path d="M103.147 5.57855C105.02 6.65786 106.917 7.31448 108.837 7.54842L114.837 9.94098C116.777 11.0947 118.844 11.8284 121.037 12.1421L127.567 14.7261C129.594 15.9968 131.777 16.797 134.117 17.1266L140.607 19.7026C141.907 20.4523 143.247 20.9149 144.627 21.0903L159.457 26.6809C159.91 26.8511 159.904 27.0132 159.437 27.1674L156.387 28.1723L76.6569 44.673C75.9953 44.8114 75.2949 44.7459 74.6969 44.4896L4.35693 14.1599L13.5869 12.3096C17.6469 12.0544 21.6603 11.4164 25.6269 10.3956L40.8369 7.7159C45.4569 7.38626 50.0303 6.66849 54.5569 5.5626L87.8069 0.0278017C88.1308 -0.029037 88.4717 0.00179588 88.7769 0.115529L103.147 5.57855Z" fill="#C7C7C7"/>
<path d="M54.557 5.56256C50.0304 6.66846 45.457 7.38622 40.837 7.71587C45.377 6.48768 49.9504 5.76992 54.557 5.56256Z" fill="#474747"/>
<path d="M103.147 5.57855C105.24 5.74337 107.137 6.4 108.837 7.54843C106.917 7.31449 105.02 6.65786 103.147 5.57855Z" fill="#474747"/>
<path d="M114.837 9.94098C117.01 10.1111 119.077 10.8448 121.037 12.1421C118.844 11.8284 116.777 11.0947 114.837 9.94098Z" fill="#474747"/>
<path d="M25.627 10.3956C21.6604 11.4164 17.647 12.0544 13.587 12.3096C17.5604 11.1612 21.5737 10.5232 25.627 10.3956Z" fill="#474747"/>
<path d="M4.35704 14.1599L74.697 44.4896C75.295 44.7459 75.9954 44.8114 76.657 44.673L156.387 28.1723L156.577 42.5835C156.578 42.6447 156.596 42.7049 156.63 42.7597C156.664 42.8145 156.713 42.8625 156.774 42.9C156.834 42.9376 156.905 42.9638 156.98 42.9766C157.055 42.9895 157.132 42.9887 157.207 42.9743L160.107 42.3921C160.237 42.375 160.37 42.3972 160.481 42.4544C160.592 42.5115 160.672 42.5994 160.705 42.701C160.739 42.8026 160.724 42.9106 160.663 43.0039C160.603 43.0972 160.501 43.1691 160.377 43.2056L132.477 49.6336L74.707 62.9442C74.0279 63.0979 73.303 63.0349 72.687 62.7687C58.4404 56.6704 44.1037 50.5321 29.677 44.354C28.0837 43.6681 26.737 43.4049 25.637 43.5644C25.3704 42.8307 24.4337 42.1156 22.827 41.4191C16.4137 38.6384 9.92038 35.8763 3.34704 33.1329C3.07367 33.0185 2.85044 32.8405 2.70704 32.6225C0.640375 29.443 -0.242958 26.4603 0.0570423 23.6743C0.343709 20.9468 1.77704 17.7753 4.35704 14.1599ZM142.857 34.5525C121.417 38.875 99.987 43.2162 78.567 47.576C77.5204 47.7886 77.0904 48.4798 77.277 49.6495C77.317 49.926 77.507 50.0297 77.847 49.9606L152.307 34.2015C152.64 34.1324 152.814 33.957 152.827 33.6752L152.867 32.8856C152.869 32.8342 152.857 32.7831 152.829 32.7363C152.802 32.6896 152.762 32.6487 152.711 32.6168C152.661 32.585 152.601 32.5631 152.538 32.553C152.475 32.5429 152.409 32.5448 152.347 32.5587C149.18 33.2552 146.017 33.9198 142.857 34.5525ZM75.617 53.4457L76.417 55.7346C76.4262 55.7587 76.4412 55.7812 76.4613 55.8006C76.4813 55.8201 76.5059 55.8362 76.5338 55.8481C76.5617 55.8599 76.5922 55.8673 76.6237 55.8697C76.6551 55.8721 76.6868 55.8696 76.717 55.8622L152.007 39.0983C152.379 39.0152 152.727 38.9116 152.976 38.8101C153.225 38.7086 153.355 38.6173 153.337 38.556L152.567 36.3549C152.539 36.296 152.368 36.2723 152.089 36.2887C151.811 36.3051 151.447 36.3603 151.077 36.4426L75.787 53.2065C75.7559 53.2129 75.7267 53.2243 75.7012 53.2399C75.6757 53.2555 75.6543 53.2751 75.6385 53.2974C75.6226 53.3197 75.6126 53.3443 75.6089 53.3698C75.6052 53.3953 75.608 53.4211 75.617 53.4457ZM152.961 41.0408C152.9 40.8656 152.754 40.7171 152.555 40.6278C152.356 40.5385 152.121 40.5158 151.902 40.5647L77.083 57.2247C76.8634 57.2736 76.6771 57.3901 76.5651 57.5486C76.4531 57.7071 76.4247 57.8945 76.486 58.0697L76.5129 58.1465C76.5743 58.3217 76.7204 58.4703 76.9191 58.5596C77.1178 58.6489 77.3529 58.6716 77.5725 58.6227L152.391 41.9627C152.611 41.9138 152.797 41.7973 152.909 41.6388C153.021 41.4803 153.049 41.2928 152.988 41.1176L152.961 41.0408Z" fill="#474747"/>
<path d="M127.567 14.7261C129.9 15.0504 132.084 15.8506 134.117 17.1266C131.777 16.797 129.594 15.9968 127.567 14.7261Z" fill="#474747"/>
<path d="M140.607 19.7026C142.167 19.7452 143.507 20.2077 144.627 21.0903C143.247 20.9149 141.907 20.4523 140.607 19.7026Z" fill="#474747"/>
<path d="M142.857 34.5525C146.017 33.9198 149.18 33.2552 152.347 32.5587C152.409 32.5448 152.475 32.5429 152.538 32.553C152.601 32.5631 152.66 32.585 152.711 32.6168C152.762 32.6487 152.802 32.6897 152.829 32.7364C152.857 32.7831 152.869 32.8342 152.867 32.8857L152.827 33.6752C152.814 33.957 152.64 34.1325 152.307 34.2016L77.847 49.9606C77.507 50.0297 77.317 49.926 77.277 49.6496C77.0903 48.4799 77.5203 47.7887 78.567 47.576C99.987 43.2162 121.417 38.875 142.857 34.5525Z" fill="#FAFAFA"/>
<path d="M75.617 53.4458C75.608 53.4211 75.6052 53.3953 75.6089 53.3698C75.6126 53.3444 75.6226 53.3197 75.6385 53.2974C75.6543 53.2751 75.6757 53.2555 75.7012 53.2399C75.7267 53.2243 75.7559 53.2129 75.787 53.2065L151.077 36.4426C151.447 36.3603 151.811 36.3051 152.089 36.2887C152.368 36.2723 152.539 36.2961 152.567 36.3549L153.337 38.556C153.355 38.6174 153.225 38.7087 152.976 38.8102C152.727 38.9117 152.379 39.0152 152.007 39.0984L76.717 55.8622C76.6868 55.8696 76.6551 55.8722 76.6237 55.8697C76.5922 55.8673 76.5617 55.86 76.5338 55.8481C76.506 55.8363 76.4813 55.8201 76.4613 55.8007C76.4412 55.7812 76.4262 55.7587 76.417 55.7346L75.617 53.4458Z" fill="#FAFAFA"/>
<path d="M151.902 40.5647L77.0831 57.2247C76.6256 57.3265 76.3583 57.7049 76.486 58.0697L76.5129 58.1465C76.6407 58.5114 77.115 58.7246 77.5725 58.6227L152.391 41.9627C152.848 41.8609 153.116 41.4825 152.988 41.1177L152.961 41.0409C152.833 40.676 152.359 40.4628 151.902 40.5647Z" fill="#FAFAFA"/>
<path d="M132.477 49.6336L159.597 59.9615C160.137 60.1635 160.124 60.3363 159.557 60.4798L156.407 61.2774L76.5271 77.9057C76.0004 78.0173 75.4971 77.9695 75.0171 77.7621L4.50708 47.1852L16.3571 44.984L23.7871 43.8276L25.6371 43.5644C26.7371 43.4049 28.0837 43.6681 29.6771 44.354C44.1037 50.5321 58.4404 56.6704 72.6871 62.7687C73.303 63.0349 74.0279 63.0979 74.7071 62.9442L132.477 49.6336Z" fill="#C7C7C7"/>
<path d="M4.50709 47.1852L75.0171 77.7621C75.4971 77.9695 76.0004 78.0173 76.5271 77.9057L156.407 61.2774L156.577 75.6726C156.577 75.7415 156.597 75.8095 156.635 75.8712C156.674 75.9329 156.729 75.9868 156.798 76.0285C156.867 76.0702 156.947 76.0986 157.032 76.1116C157.116 76.1246 157.204 76.1217 157.287 76.1033L160.107 75.4892C160.42 75.4254 160.6 75.5184 160.647 75.7683L160.707 76.0554C160.74 76.2202 160.657 76.3239 160.457 76.3665C149.864 78.6793 140.904 80.7369 133.577 82.5393C133.27 82.6137 133.16 82.8184 133.247 83.1534L132.707 82.962C132.354 82.8397 131.99 82.8211 131.617 82.9061L74.1971 96.1848C73.8038 96.2752 73.4238 96.2433 73.0571 96.0891L27.8171 76.7094C27.4971 76.5765 27.1604 76.5366 26.8071 76.5898L16.8371 78.0811C18.9038 77.4697 20.9104 77.1188 22.8571 77.0284C26.2971 76.8583 26.4971 76.1245 23.4571 74.8272L3.04709 66.1263C2.74709 65.9987 2.53042 65.8099 2.39709 65.5601C-1.06291 59.2703 -0.359574 53.1453 4.50709 47.1852ZM152.307 65.7674C128.067 70.3851 103.947 75.553 79.8071 80.4976C78.1204 80.8432 77.2238 81.569 77.1171 82.6748C77.0771 83.0789 77.3004 83.2305 77.7871 83.1294L152.267 67.3625C152.62 67.288 152.804 67.1046 152.817 66.8122L152.837 66.1024C152.837 66.0504 152.823 65.9991 152.795 65.9523C152.766 65.9055 152.725 65.8644 152.674 65.8322C152.623 65.7999 152.564 65.7773 152.5 65.7661C152.436 65.7549 152.37 65.7553 152.307 65.7674ZM152.407 69.3164L75.5771 86.4232C75.5183 86.438 75.4688 86.4702 75.439 86.5133C75.4093 86.5564 75.4014 86.6069 75.4171 86.6545L75.7171 87.5158C75.8666 87.9434 76.1022 88.333 76.3722 88.5992C76.6422 88.8654 76.9245 88.9863 77.1571 88.9354L152.687 72.1157C152.802 72.0898 152.901 72.0225 152.979 71.9175C153.057 71.8125 153.112 71.6719 153.141 71.5038C153.17 71.3357 153.172 71.1433 153.147 70.9377C153.122 70.732 153.071 70.5172 152.997 70.3053L152.697 69.452C152.681 69.4036 152.641 69.3623 152.587 69.3369C152.533 69.3116 152.468 69.3042 152.407 69.3164ZM152.89 74.2349C152.826 74.0536 152.675 73.8998 152.469 73.8074C152.264 73.715 152.02 73.6915 151.793 73.7421L77.0517 90.385C76.9391 90.41 76.8338 90.4525 76.7419 90.51C76.6499 90.5676 76.573 90.639 76.5156 90.7202C76.4582 90.8014 76.4215 90.8908 76.4074 90.9834C76.3934 91.0759 76.4024 91.1697 76.4338 91.2595L76.4446 91.2902C76.5081 91.4715 76.6592 91.6253 76.8649 91.7177C77.0705 91.8101 77.3137 91.8336 77.5411 91.783L152.282 75.1402C152.395 75.1151 152.5 75.0726 152.592 75.0151C152.684 74.9576 152.761 74.8862 152.819 74.805C152.876 74.7238 152.913 74.6343 152.927 74.5418C152.941 74.4493 152.932 74.3554 152.9 74.2656L152.89 74.2349Z" fill="#474747"/>
<path d="M79.8071 80.4976C103.947 75.553 128.067 70.385 152.307 65.7674C152.37 65.7553 152.436 65.7549 152.5 65.7661C152.564 65.7773 152.623 65.7999 152.674 65.8322C152.725 65.8644 152.766 65.9055 152.795 65.9523C152.823 65.9991 152.837 66.0504 152.837 66.1024L152.817 66.8121C152.804 67.1046 152.62 67.288 152.267 67.3624L77.7871 83.1294C77.3004 83.2304 77.0771 83.0789 77.1171 82.6748C77.2238 81.5689 78.1204 80.8432 79.8071 80.4976Z" fill="#FAFAFA"/>
<path d="M152.407 69.3164C152.468 69.3042 152.533 69.3115 152.587 69.3369C152.641 69.3622 152.681 69.4036 152.697 69.4519L152.997 70.3053C153.071 70.5171 153.122 70.732 153.147 70.9377C153.172 71.1433 153.17 71.3357 153.141 71.5038C153.112 71.6719 153.057 71.8125 152.979 71.9175C152.901 72.0224 152.802 72.0898 152.687 72.1157L77.1571 88.9354C76.9245 88.9863 76.6422 88.8654 76.3722 88.5992C76.1022 88.333 75.8666 87.9433 75.7171 87.5158L75.4171 86.6545C75.4014 86.6069 75.4093 86.5563 75.439 86.5133C75.4688 86.4702 75.5183 86.438 75.5771 86.4232L152.407 69.3164Z" fill="#FAFAFA"/>
<path d="M151.793 73.7422L77.0516 90.385C76.5781 90.4904 76.3015 90.8819 76.4337 91.2595L76.4444 91.2902C76.5766 91.6678 77.0676 91.8884 77.541 91.783L152.282 75.1402C152.756 75.0348 153.032 74.6432 152.9 74.2657L152.89 74.235C152.757 73.8574 152.266 73.6368 151.793 73.7422Z" fill="#FAFAFA"/>
<path d="M133.247 83.1533L159.367 92.9628C159.76 93.1117 159.794 93.3005 159.467 93.5291C158.667 94.0767 157.677 94.3771 156.497 94.4303L76.057 111.067C75.75 111.133 75.4234 111.102 75.147 110.979L4.57703 80.37L16.837 78.0811L26.807 76.5897C27.1604 76.5366 27.497 76.5765 27.817 76.7094L73.057 96.0891C73.4237 96.2433 73.8037 96.2752 74.197 96.1848L131.617 82.9061C131.99 82.821 132.354 82.8396 132.707 82.9619L133.247 83.1533Z" fill="#C7C7C7"/>
<path d="M4.577 80.37L75.147 110.979C75.4234 111.102 75.75 111.133 76.057 111.067L156.497 94.4303L156.617 109.799C156.624 110.07 156.46 110.245 156.127 110.325C129.394 116.546 102.677 122.822 75.977 129.154C74.057 129.609 71.227 128.7 69.177 127.807C47.1303 118.167 25.047 108.584 2.92701 99.0559C2.63367 98.9283 2.42034 98.7396 2.28701 98.4897C-1.07299 92.1201 -0.309663 86.0802 4.577 80.37ZM152.187 98.8725L78.637 113.858C78.4568 113.892 78.2892 113.959 78.147 114.053C78.0048 114.147 77.8919 114.266 77.817 114.4L77.057 115.772C76.8437 116.155 76.9937 116.301 77.507 116.211C81.467 115.498 85.4103 114.725 89.337 113.89C109.95 109.493 130.567 105.106 151.187 100.731C152.28 100.497 152.877 100.061 152.977 99.4228C152.99 99.3416 152.978 99.2592 152.942 99.1826C152.905 99.1061 152.845 99.0377 152.768 98.9835C152.69 98.9293 152.596 98.8908 152.495 98.8715C152.394 98.8521 152.288 98.8525 152.187 98.8725ZM75.607 119.799L76.427 122.104C76.4455 122.151 76.486 122.191 76.54 122.214C76.594 122.238 76.6574 122.244 76.717 122.232L152.077 105.34C152.255 105.3 152.429 105.254 152.589 105.205C152.749 105.156 152.892 105.104 153.009 105.053C153.126 105.002 153.216 104.952 153.272 104.907C153.328 104.862 153.35 104.822 153.337 104.79L152.567 102.613C152.544 102.548 152.38 102.517 152.112 102.528C151.844 102.538 151.493 102.589 151.137 102.669L75.777 119.56C75.7459 119.567 75.7167 119.578 75.6912 119.594C75.6656 119.609 75.6443 119.629 75.6285 119.651C75.6126 119.673 75.6025 119.698 75.5988 119.724C75.5952 119.749 75.5979 119.775 75.607 119.799ZM152.876 107.317C152.819 107.152 152.681 107.012 152.494 106.928C152.307 106.844 152.085 106.823 151.878 106.869L77.0407 123.533C76.8338 123.579 76.6583 123.689 76.5529 123.838C76.4474 123.987 76.4206 124.164 76.4784 124.329L76.5376 124.498C76.5954 124.663 76.733 124.803 76.9201 124.887C77.1073 124.971 77.3286 124.992 77.5355 124.946L152.373 108.282C152.58 108.236 152.756 108.126 152.861 107.977C152.967 107.828 152.993 107.651 152.936 107.486L152.876 107.317Z" fill="#474747"/>
<path d="M78.6371 113.858L152.187 98.8725C152.288 98.8525 152.394 98.8522 152.495 98.8715C152.596 98.8908 152.69 98.9293 152.768 98.9835C152.845 99.0378 152.905 99.1061 152.942 99.1827C152.978 99.2592 152.99 99.3416 152.977 99.4228C152.877 100.061 152.28 100.497 151.187 100.731C130.567 105.106 109.95 109.493 89.3371 113.89C85.4104 114.725 81.4671 115.498 77.5071 116.211C76.9938 116.301 76.8437 116.155 77.0571 115.772L77.8171 114.4C77.892 114.266 78.0049 114.147 78.1471 114.053C78.2893 113.959 78.4569 113.893 78.6371 113.858Z" fill="#FAFAFA"/>
<path d="M75.607 119.799C75.598 119.775 75.5952 119.749 75.5989 119.724C75.6026 119.698 75.6126 119.673 75.6285 119.651C75.6443 119.629 75.6657 119.609 75.6912 119.594C75.7167 119.578 75.7459 119.567 75.777 119.56L151.137 102.669C151.494 102.589 151.844 102.538 152.112 102.528C152.38 102.517 152.544 102.548 152.567 102.613L153.337 104.79C153.35 104.822 153.328 104.862 153.272 104.907C153.216 104.952 153.126 105.002 153.009 105.053C152.892 105.104 152.749 105.156 152.589 105.205C152.429 105.255 152.255 105.3 152.077 105.34L76.717 122.232C76.6574 122.244 76.594 122.238 76.54 122.214C76.486 122.191 76.4456 122.151 76.427 122.104L75.607 119.799Z" fill="#FAFAFA"/>
<path d="M151.878 106.869L77.0407 123.533C76.6098 123.629 76.358 123.985 76.4783 124.329L76.5375 124.498C76.6578 124.841 77.1046 125.042 77.5355 124.946L152.373 108.282C152.804 108.186 153.056 107.83 152.936 107.486L152.876 107.317C152.756 106.974 152.309 106.773 151.878 106.869Z" fill="#FAFAFA"/>
</svg>
