<svg width="248" height="160" viewBox="0 0 248 120" fill="none" xmlns="http://www.w3.org/2000/svg">
<g clip-path="url(#clip0_35_76)">
<path d="M234.412 85.1933L235.172 89.8533C235.225 90.1705 235.177 90.4964 235.035 90.7851C234.894 91.0739 234.665 91.311 234.382 91.4633C214.902 102.023 195.875 112.35 177.302 122.443C173.242 124.653 171.322 128.273 166.172 128.133C136.872 127.373 107.665 126.757 78.5518 126.283C78.336 126.28 78.1237 126.229 77.93 126.134C77.7364 126.039 77.5662 125.902 77.4317 125.733L5.37175 36.6833C5.2837 36.5748 5.24001 36.4368 5.24927 36.2962C5.25852 36.1556 5.32003 36.0226 5.42175 35.9233L9.33175 32.0833" stroke="#9A9999" stroke-width="2"/>
<path d="M9.33178 32.0833C5.99178 32.5899 4.29511 33.6699 4.24178 35.3233C4.23511 35.6699 4.05844 35.8599 3.71178 35.8933L0.321777 36.2033" stroke="#292929" stroke-width="2"/>
<path d="M0.321796 36.2032C-0.248204 39.1532 -0.228204 41.1232 1.7818 43.6132C25.7751 73.2666 49.7751 103.05 73.7818 132.963C73.994 133.229 74.2629 133.443 74.5691 133.592C74.8752 133.741 75.2109 133.82 75.5518 133.823L159.792 134.503C160.03 134.504 160.261 134.593 160.442 134.753C163.002 137.053 166.172 141.123 170.042 138.073C171.902 136.613 173.348 134.78 174.382 132.573C174.531 132.243 174.784 131.972 175.102 131.803L239.442 96.8732C239.768 96.6932 239.898 96.4232 239.832 96.0632C239.512 94.2166 238.925 92.6666 238.072 91.4132" stroke="#696969" stroke-width="2"/>
<path d="M238.072 91.4132C235.152 91.4532 235.682 86.9832 234.412 85.1932" stroke="#292929" stroke-width="2"/>
<path d="M238.072 91.4132C237.258 91.9732 236.692 92.3466 236.372 92.5332C214.752 105.087 193.122 117.627 171.482 130.153C170.352 130.813 169.832 131.793 169.212 132.883C167.012 136.733 163.222 133.663 160.812 131.053C160.708 130.937 160.581 130.843 160.438 130.777C160.295 130.712 160.14 130.676 159.982 130.673L77.7318 129.373C77.4527 129.37 77.1776 129.305 76.9254 129.185C76.6733 129.064 76.4502 128.889 76.2718 128.673L0.321777 36.2032" stroke="#888787" stroke-width="2"/>
<path d="M160.842 1.45324C183.662 25.3532 205.995 49.6299 227.842 74.2832C228.822 75.9366 230.052 77.2499 231.532 78.2232C233.305 79.7232 234.265 82.0466 234.412 85.1932L235.172 89.8532C235.225 90.1705 235.177 90.4964 235.035 90.7851C234.894 91.0739 234.665 91.311 234.382 91.4632C214.902 102.023 195.875 112.35 177.302 122.443C173.242 124.653 171.322 128.273 166.172 128.133C136.872 127.373 107.665 126.757 78.5518 126.283C78.336 126.28 78.1237 126.229 77.93 126.134C77.7364 126.039 77.5662 125.902 77.4317 125.733L5.37175 36.6832C5.2837 36.5748 5.24001 36.4368 5.24927 36.2962C5.25852 36.1556 5.32003 36.0225 5.42175 35.9232L9.33175 32.0832C12.3784 28.0699 16.0818 25.6899 20.4418 24.9432C34.8218 22.4732 48.5418 19.5532 63.2518 20.6232C71.7118 21.2432 81.7617 23.7032 90.8217 25.6432C92.4117 25.9832 93.6317 25.3832 95.2817 25.4032C95.6284 25.4099 95.9451 25.3232 96.2318 25.1432C103.252 20.8832 110.408 16.8766 117.702 13.1232C121.942 10.9432 126.858 8.87324 132.452 6.91324C137.485 5.15324 142.512 3.35658 147.532 1.52324L158.282 0.0132433C158.615 -0.0334234 158.918 0.0432428 159.192 0.243243L160.842 1.45324Z" fill="#EBEBEB"/>
<path d="M9.33178 32.0833L5.42178 35.9233C5.32006 36.0226 5.25854 36.1556 5.24929 36.2962C5.24004 36.4368 5.28373 36.5748 5.37178 36.6833L77.4318 125.733C77.5662 125.902 77.7364 126.039 77.9301 126.134C78.1237 126.229 78.3361 126.28 78.5518 126.283C107.665 126.757 136.872 127.373 166.172 128.133C171.322 128.273 173.242 124.653 177.302 122.443C195.875 112.35 214.902 102.023 234.382 91.4633C234.665 91.311 234.894 91.0739 235.035 90.7851C235.177 90.4964 235.225 90.1705 235.172 89.8533L234.412 85.1933C235.682 86.9833 235.152 91.4533 238.072 91.4133C237.258 91.9733 236.692 92.3466 236.372 92.5333C214.752 105.087 193.122 117.627 171.482 130.153C170.352 130.813 169.832 131.793 169.212 132.883C167.012 136.733 163.222 133.663 160.812 131.053C160.708 130.937 160.581 130.843 160.438 130.777C160.295 130.712 160.14 130.676 159.982 130.673L77.7318 129.373C77.4527 129.37 77.1776 129.306 76.9254 129.185C76.6733 129.064 76.4502 128.889 76.2718 128.673L0.321777 36.2033L3.71178 35.8933C4.05844 35.8599 4.23511 35.6699 4.24178 35.3233C4.29511 33.6699 5.99178 32.5899 9.33178 32.0833Z" fill="#484747"/>
<path d="M0.321796 36.2032L76.2718 128.673C76.4503 128.889 76.6733 129.064 76.9255 129.185C77.1776 129.305 77.4528 129.37 77.7318 129.373L159.982 130.673C160.14 130.676 160.295 130.712 160.438 130.777C160.581 130.843 160.708 130.937 160.812 131.053C163.222 133.663 167.012 136.733 169.212 132.883C169.832 131.793 170.352 130.813 171.482 130.153C193.122 117.627 214.752 105.087 236.372 92.5332C236.692 92.3466 237.258 91.9732 238.072 91.4132C238.925 92.6666 239.512 94.2166 239.832 96.0632C239.898 96.4232 239.768 96.6932 239.442 96.8732L175.102 131.803C174.784 131.972 174.531 132.243 174.382 132.573C173.348 134.78 171.902 136.613 170.042 138.073C166.172 141.123 163.002 137.053 160.442 134.753C160.261 134.593 160.03 134.504 159.792 134.503L75.5518 133.823C75.2109 133.82 74.8752 133.741 74.5691 133.592C74.2629 133.443 73.994 133.229 73.7818 132.963C49.7751 103.05 25.7751 73.2666 1.7818 43.6132C-0.228204 41.1232 -0.248204 39.1532 0.321796 36.2032Z" fill="#C7C7C7"/>
</g>
<defs>
<clipPath id="clip0_35_76">
<rect width="248" height="160" fill="white"/>
</clipPath>
</defs>
</svg>
