<svg width="300" height="334" viewBox="0 0 300 334" fill="none" xmlns="http://www.w3.org/2000/svg">
<path fill-rule="evenodd" clip-rule="evenodd" d="M277.158 41.9725L174.11 154.532L288.095 280.582C257.703 312.965 214.512 333.193 166.597 333.193C74.5878 333.193 0 258.605 0 166.597C0 74.5878 74.5878 0 166.597 0C209.023 0 247.745 15.8591 277.158 41.9725Z" fill="#202020"/>
<g filter="url(#filter0_d_66_134)">
<path fill-rule="evenodd" clip-rule="evenodd" d="M278.231 40.8001L174.11 154.532L277.378 268.731C249.973 293.598 213.592 308.75 173.672 308.75C88.413 308.75 19.2969 239.634 19.2969 154.375C19.2969 69.1161 88.413 -3.05176e-05 173.672 -3.05176e-05C214.008 -3.05176e-05 250.731 15.4698 278.231 40.8001Z" fill="#444444"/>
</g>
<path fill-rule="evenodd" clip-rule="evenodd" d="M267.922 96.328L171.526 156.87L99.5808 256.48C77.7277 242.985 60.0183 222.405 50.3054 196.494C27.0255 134.39 58.499 65.1721 120.603 41.8922C177.171 20.6876 239.641 44.9093 267.922 96.328Z" fill="#202020"/>
<g filter="url(#filter1_d_66_134)">
<path fill-rule="evenodd" clip-rule="evenodd" d="M267.071 96.8621L171.526 156.87L107.159 245.905C90.1853 233.533 76.5182 216.224 68.5944 195.086C47.0223 137.537 76.1869 73.3973 133.735 51.8251C184.13 32.9348 239.578 52.9504 267.071 96.8621Z" fill="#444444"/>
</g>
<path fill-rule="evenodd" clip-rule="evenodd" d="M175.778 160.696L166.036 150.736L180.755 70.1355L184.3 56.9235C195.909 58.1338 207.46 61.5073 218.396 67.2251C251.889 84.7369 270.619 119.539 269.711 155.497L175.778 160.696Z" fill="#201F1F"/>
<g filter="url(#filter2_d_66_134)">
<path fill-rule="evenodd" clip-rule="evenodd" d="M267.545 155.455L175.735 160.441L192.245 72.8319L191.557 72.2893C199.913 73.9807 208.194 76.8256 216.181 80.8927C246.217 96.1879 264.724 125.021 267.778 155.765L267.545 155.455Z" fill="#313131"/>
</g>
<defs>
<filter id="filter0_d_66_134" x="14.2969" y="-3.05176e-05" width="263.935" height="314.75" filterUnits="userSpaceOnUse" color-interpolation-filters="sRGB">
<feFlood flood-opacity="0" result="BackgroundImageFix"/>
<feColorMatrix in="SourceAlpha" type="matrix" values="0 0 0 0 0 0 0 0 0 0 0 0 0 0 0 0 0 0 127 0" result="hardAlpha"/>
<feOffset dx="-3" dy="4"/>
<feGaussianBlur stdDeviation="1"/>
<feComposite in2="hardAlpha" operator="out"/>
<feColorMatrix type="matrix" values="0 0 0 0 0 0 0 0 0 0 0 0 0 0 0 0 0 0 0.25 0"/>
<feBlend mode="normal" in2="BackgroundImageFix" result="effect1_dropShadow_66_134"/>
<feBlend mode="normal" in="SourceGraphic" in2="effect1_dropShadow_66_134" result="shape"/>
</filter>
<filter id="filter1_d_66_134" x="58.4839" y="44.7147" width="209.587" height="207.19" filterUnits="userSpaceOnUse" color-interpolation-filters="sRGB">
<feFlood flood-opacity="0" result="BackgroundImageFix"/>
<feColorMatrix in="SourceAlpha" type="matrix" values="0 0 0 0 0 0 0 0 0 0 0 0 0 0 0 0 0 0 127 0" result="hardAlpha"/>
<feOffset dx="-1" dy="4"/>
<feGaussianBlur stdDeviation="1"/>
<feComposite in2="hardAlpha" operator="out"/>
<feColorMatrix type="matrix" values="0 0 0 0 0 0 0 0 0 0 0 0 0 0 0 0 0 0 0.4 0"/>
<feBlend mode="normal" in2="BackgroundImageFix" result="effect1_dropShadow_66_134"/>
<feBlend mode="normal" in="SourceGraphic" in2="effect1_dropShadow_66_134" result="shape"/>
</filter>
<filter id="filter2_d_66_134" x="170.735" y="72.2892" width="97.0432" height="94.1516" filterUnits="userSpaceOnUse" color-interpolation-filters="sRGB">
<feFlood flood-opacity="0" result="BackgroundImageFix"/>
<feColorMatrix in="SourceAlpha" type="matrix" values="0 0 0 0 0 0 0 0 0 0 0 0 0 0 0 0 0 0 127 0" result="hardAlpha"/>
<feOffset dx="-3" dy="4"/>
<feGaussianBlur stdDeviation="1"/>
<feComposite in2="hardAlpha" operator="out"/>
<feColorMatrix type="matrix" values="0 0 0 0 0 0 0 0 0 0 0 0 0 0 0 0 0 0 0.25 0"/>
<feBlend mode="normal" in2="BackgroundImageFix" result="effect1_dropShadow_66_134"/>
<feBlend mode="normal" in="SourceGraphic" in2="effect1_dropShadow_66_134" result="shape"/>
</filter>
</defs>
</svg>
