<svg width="439" height="77" viewBox="0 0 439 77" fill="none" xmlns="http://www.w3.org/2000/svg">
<path d="M35.7807 32.0114C49.8988 32.4109 59.1428 47.1585 62 54.4823C55.9493 56.9791 41.8314 49.4889 40.3188 56.4798C38.8061 63.4708 36.7892 66.4669 35.7807 68.4643C34.7721 70.4617 27.2091 74.4566 22.1669 73.9572C17.1247 73.4578 11.074 74.4565 7.54447 60.974C4.01494 47.4914 18.133 31.5121 35.7807 32.0114Z" fill="white" stroke="black"/>
<path d="M56.7807 33.0114C70.8988 33.4109 80.1428 48.1585 83 55.4823C76.9493 57.9791 62.8314 50.4889 61.3188 57.4798C59.8061 64.4708 57.7892 67.4669 56.7807 69.4643C55.7721 71.4617 48.2091 75.4566 43.1669 74.9572C38.1247 74.4578 32.074 75.4565 28.5445 61.974C25.0149 48.4914 39.133 32.5121 56.7807 33.0114Z" fill="white" stroke="black"/>
<path d="M77.5399 33.0114C91.5399 33.4114 100.707 48.1781 103.54 55.5114C97.5398 58.0114 83.54 50.5115 82.04 57.5115C80.54 64.5115 78.54 67.5115 77.5399 69.5115C76.5398 71.5115 69.04 75.5115 64.04 75.0115C59.04 74.5115 53.0399 75.5114 49.5399 62.0114C46.0399 48.5114 60.0399 32.5114 77.5399 33.0114Z" fill="white" stroke="black"/>
<path d="M407.759 32.0114C393.641 32.4109 384.397 47.1585 381.54 54.4823C387.591 56.9791 401.709 49.4889 403.221 56.4798C404.734 63.4708 406.751 66.4669 407.759 68.4643C408.768 70.4617 416.331 74.4566 421.373 73.9572C426.415 73.4578 432.466 74.4565 435.996 60.974C439.525 47.4914 425.407 31.5121 407.759 32.0114Z" fill="white" stroke="black"/>
<path d="M386.759 33.0114C372.641 33.4109 363.397 48.1585 360.54 55.4823C366.591 57.9791 380.709 50.4889 382.221 57.4798C383.734 64.4708 385.751 67.4669 386.759 69.4643C387.768 71.4617 395.331 75.4566 400.373 74.9572C405.415 74.4578 411.466 75.4565 414.996 61.974C418.525 48.4914 404.407 32.5121 386.759 33.0114Z" fill="white" stroke="black"/>
<path d="M366 33.0114C352 33.4114 342.833 48.1781 340 55.5114C346 58.0114 360 50.5115 361.5 57.5115C363 64.5115 365 67.5115 366 69.5115C367 71.5115 374.5 75.5115 379.5 75.0115C384.5 74.5115 390.5 75.5114 394 62.0114C397.5 48.5114 383.5 32.5114 366 33.0114Z" fill="white" stroke="black"/>
<mask id="path-7-inside-1_20_380" fill="white">
<path fill-rule="evenodd" clip-rule="evenodd" d="M176.478 7C203.867 7 226.163 28.8035 226.956 56H202.936C202.159 42.0623 190.61 31 176.478 31C162.346 31 150.798 42.0623 150.02 56H126C126.793 28.8035 149.09 7 176.478 7Z"/>
</mask>
<path fill-rule="evenodd" clip-rule="evenodd" d="M176.478 7C203.867 7 226.163 28.8035 226.956 56H202.936C202.159 42.0623 190.61 31 176.478 31C162.346 31 150.798 42.0623 150.02 56H126C126.793 28.8035 149.09 7 176.478 7Z" fill="white"/>
<path d="M226.956 56V57H227.986L227.956 55.9708L226.956 56ZM202.936 56L201.938 56.0557L201.991 57H202.936V56ZM150.02 56V57H150.966L151.018 56.0557L150.02 56ZM126 56L125 55.9708L124.97 57H126V56ZM227.956 55.9708C227.147 28.2352 204.409 6 176.478 6V8C203.324 8 225.179 29.3717 225.957 56.0292L227.956 55.9708ZM226.956 55H202.936V57H226.956V55ZM203.935 55.9443C203.128 41.4798 191.144 30 176.478 30V32C190.077 32 201.19 42.6449 201.938 56.0557L203.935 55.9443ZM176.478 30C161.812 30 149.829 41.4798 149.021 55.9443L151.018 56.0557C151.767 42.6449 162.88 32 176.478 32V30ZM150.02 55H126V57H150.02V55ZM176.478 6C148.547 6 125.809 28.2352 125 55.9708L127 56.0292C127.777 29.3717 149.632 8 176.478 8V6Z" fill="black" mask="url(#path-7-inside-1_20_380)"/>
<path d="M149.201 54H127.098L126.969 56H149L149.201 54Z" fill="white"/>
<path d="M203.754 54H215.121L215.015 56H203.916L203.754 54Z" fill="white"/>
<mask id="path-11-inside-2_20_380" fill="white">
<path fill-rule="evenodd" clip-rule="evenodd" d="M265.5 7C292.888 7 315.184 28.8035 315.978 56H291.936C291.159 42.0623 279.61 31 265.478 31C251.346 31 239.798 42.0623 239.02 56H215.021C215.815 28.8035 238.111 7 265.5 7Z"/>
</mask>
<path fill-rule="evenodd" clip-rule="evenodd" d="M265.5 7C292.888 7 315.184 28.8035 315.978 56H291.936C291.159 42.0623 279.61 31 265.478 31C251.346 31 239.798 42.0623 239.02 56H215.021C215.815 28.8035 238.111 7 265.5 7Z" fill="white"/>
<path d="M315.978 56V57H317.007L316.977 55.9708L315.978 56ZM291.936 56L290.938 56.0557L290.991 57H291.936V56ZM239.02 56V57H239.966L240.018 56.0557L239.02 56ZM215.021 56L214.022 55.9708L213.992 57H215.021V56ZM316.977 55.9708C316.168 28.2352 293.431 6 265.5 6V8C292.346 8 314.201 29.3717 314.978 56.0292L316.977 55.9708ZM315.978 55H291.936V57H315.978V55ZM292.935 55.9443C292.128 41.4798 280.144 30 265.478 30V32C279.077 32 290.19 42.6449 290.938 56.0557L292.935 55.9443ZM265.478 30C250.812 30 238.829 41.4798 238.021 55.9443L240.018 56.0557C240.767 42.6449 251.88 32 265.478 32V30ZM239.02 55H215.021V57H239.02V55ZM265.5 6C237.568 6 214.831 28.2352 214.022 55.9708L216.021 56.0292C216.799 29.3717 238.654 8 265.5 8V6Z" fill="black" mask="url(#path-11-inside-2_20_380)"/>
<path d="M292.766 54H314.875L315.02 56H292.949L292.766 54Z" fill="white"/>
<path d="M238.203 54H216.119L216 56H238L238.203 54Z" fill="white"/>
</svg>
